<svg width="1280" height="1280" viewBox="0 0 1280 1280" fill="none" xmlns="http://www.w3.org/2000/svg">
<g clip-path="url(#clip0_1271_24)">
<path d="M0 0H1280V1280H0V0Z" fill="black"/>
<path d="M996.25 223.75L1005 231.25L1026.25 251.25L1041.25 266.25L1051.25 275L1065 290V353.75L1063.75 355L1018.75 356.25L1017.5 355V310L1006.25 307.5H993.75L977.5 310L976.25 355L975 356.25H931.25L918.75 367.5L912.5 372.5L915 378.75L923.75 387.5L936.25 403.75L952.5 428.75L970 457.5L980 477.5L991.25 503.75L1002.5 538.75L1010 572.5L1013.75 603.75V673.75L1008.75 707.5L1002.5 735L996.25 756.25L985 782.5L975 802.5L962.5 823.75L951.25 841.25L933.75 865L918.75 882.5L912.5 888.75L915 893.75L925 905L932.5 916.25L930 922.5L923.75 930L918.75 928.75L895 905L885 912.5L872.5 923.75L853.75 936.25L835 947.5L811.25 960L775 975L743.75 985L710 992.5L682.5 996.25L661.25 997.5H640L613.75 995L570 987.5L540 980L513.75 970L487.5 958.75L458.75 943.75L437.5 928.75L420 916.25L405 905L402.5 903.75L400 908.75L383.75 925H380L377.5 918.75H375L373.75 921.25V950L382.5 958.75L391.25 968.75L398.75 976.25L397.5 982.5L388.75 991.25L383.75 990L328.75 935L315 923.75L307.5 916.25L302.5 918.75L285 933.75L270 950L227.5 992.5L222.5 991.25L215 981.25L217.5 975L232.5 960L241.25 950L246.25 947.5L247.5 943.75L257.5 935L268.75 923.75L282.5 912.5L292.5 902.5L302.5 893.75L308.75 892.5L327.5 910L338.75 917.5H342.5L343.75 902.5L376.25 901.25L380 895L387.5 888.75L378.75 877.5L365 861.25L348.75 837.5L336.25 816.25L321.25 787.5L307.5 755L301.25 736.25L293.75 705L290 675L287.5 632.5L288.75 603.75L292.5 575L303.75 526.25L312.5 500L328.75 465L342.5 438.75L355 418.75L366.25 403.75L378.75 387.5L390 375L388.75 370L375 358.75L368.75 355H327.5L326.25 307.5H287.5L286.25 310L285 355H242.5L241.25 353.75V288.75L258.75 270L278.75 250L288.75 241.25L303.75 226.25H308.75L327.5 243.75L350 266.25L367.5 285L371.25 288.75V328.75L383.75 337.5L403.75 357.5L408.75 356.25L428.75 340L451.25 323.75L471.25 312.5L492.5 301.25L518.75 290L545 281.25L573.75 273.75L612.5 267.5L623.75 266.25H680L723.75 272.5L745 277.5L780 288.75L805 298.75L836.25 315L853.75 326.25L875 341.25L893.75 357.5L898.75 356.25L910 345L916.25 336.25L922.5 333.75L931.25 331.25L932.5 323.75L931.25 315V290L942.5 277.5L977.5 242.5L993.75 227.5L996.25 223.75Z" fill="#F8FBF3"/>
<path d="M625 290H682.5L725 297.5L755 305L786.25 316.25L795 321.25V580L805 578.75L816.25 580V535L818.75 530L875 531.25H975L981.25 552.5L987.5 586.25L990 607.5V620H851.25L852.5 623.75V636.25L851.25 640L961.25 641.25L990 642.5L988.75 672.5L981.25 720L980 721.25L817.5 720L816.25 676.25L812.5 677.5H795L796.25 718.75H772.5L732.5 717.5L731.25 716.25V685L732.5 641.25H751.25L750 637.5V620L670 621.25H497.5V323.75L512.5 317.5L545 305L582.5 296.25L611.25 291.25L625 290Z" fill="black"/>
<path d="M312.5 641.25H475L476.25 752.5H487.5L497.5 753.75L496.25 641.25H527.5V735L528.75 770H595L708.75 771.25V795H623.75L535 796.25V813.75L533.75 816.25H552.5V958.75L538.75 955L508.75 942.5L497.5 938.75V847.5L493.75 848.75H478.75L476.25 847.5L475 850V925L468.75 922.5L453.75 912.5L433.75 897.5L423.75 888.75L431.25 878.75L447.5 861.25L457.5 847.5V843.75L450 838.75L445 835L435 843.75L412.5 866.25L407.5 872.5H405L393.75 858.75L377.5 838.75L363.75 818.75V816.25H437.5L435 805V795H351.25L340 773.75L328.75 742.5L321.25 717.5L315 688.75L312.5 665V641.25Z" fill="black"/>
<path d="M645 387.5L650 388.75L665 406.25L675 415L683.75 423.75L693.75 432.5L708.75 446.25L718.75 455L731.25 468.75L743.75 485L747.5 488.75V590H681.25L680 543.75L677.5 532.5L670 522.5L660 515L652.5 512.5H640L628.75 516.25L618.75 525L613.75 533.75L612.5 545V588.75L611.25 590H546.25L545 516.25V487.5L558.75 473.75L567.5 463.75L593.75 437.5L603.75 428.75L628.75 403.75L638.75 395L645 387.5Z" fill="#F8FBF3"/>
<path d="M352.5 471.25H473.75L475 472.5L476.25 620L450 621.25H350L311.25 620L313.75 595L317.5 571.25L327.5 531.25L335 510L345 486.25L352.5 471.25Z" fill="black"/>
<path d="M573.75 816.25H707.5V920H575L573.75 816.25Z" fill="black"/>
<path d="M817.5 741.25H935L975 742.5L962.5 773.75L948.75 801.25L935 821.25L922.5 838.75L911.25 853.75L897.5 868.75L891.25 877.5L888.75 876.25V873.75L883.75 871.25L872.5 858.75L852.5 838.75L843.75 828.75L821.25 806.25L816.25 802.5L817.5 741.25Z" fill="black"/>
<path d="M996.25 930L1005 937.5L1017.5 950L1027.5 958.75L1036.25 968.75L1046.25 977.5L1060 990L1066.25 997.5V1063.75L1065 1066.25L1020 1067.5L1018.75 1066.25L1017.5 1022.5L1010 1018.75H990L978.75 1021.25L977.5 1066.25L976.25 1067.5H932.5L931.25 1066.25L930 998.75L938.75 988.75L966.25 958.75L976.25 950L996.25 930Z" fill="#F8FBF3"/>
<path d="M731.25 815L801.25 816.25L810 826.25L873.75 890L867.5 897.5L851.25 910L832.5 922.5L798.75 940L785 945L783.75 935L785 856.25L786.25 841.25H762.5L763.75 845V935L762.5 952.5L751.25 957.5L737.5 962.5L730 963.75V925L731.25 815Z" fill="black"/>
<path d="M891.25 388.75L896.25 390L911.25 408.75L927.5 431.25L942.5 455L955 478.75L966.25 502.5L968.75 508.75L966.25 510H823.75L817.5 508.75V460L830 450L843.75 435L858.75 421.25L891.25 388.75Z" fill="black"/>
<path d="M305 933.75L310 936.25L331.25 956.25L340 965L348.75 975L372.5 998.75V1065L370 1066.25L327.5 1067.5L326.25 1026.25L321.25 1021.25L315 1018.75H297.5L288.75 1022.5L286.25 1026.25L285 1066.25H241.25L240 1047.5V998.75L248.75 988.75L267.5 970L277.5 961.25L287.5 950L301.25 938.75L305 933.75Z" fill="#F8FBF3"/>
<path d="M642.5 333.75H648.75L670 351.25L685 365L693.75 371.25H696.25L700 360L701.25 346.25L705 345H746.25L747.5 353.75V421.25L765 440L773.75 450L777.5 455L776.25 461.25L770 468.75L762.5 471.25L756.25 470L746.25 461.25L733.75 447.5L726.25 438.75L711.25 423.75L691.25 406.25V403.75L686.25 401.25L671.25 387.5L652.5 370L647.5 365L643.75 363.75L641.25 368.75L628.75 380L618.75 388.75L572.5 435L562.5 443.75L553.75 452.5L545 462.5L538.75 470L532.5 472.5L525 467.5L520 462.5L518.75 453.75L553.75 418.75L562.5 408.75L596.25 375L606.25 366.25L621.25 351.25L631.25 342.5L642.5 333.75Z" fill="#F8FBF3"/>
<path d="M995 890L1001.25 891.25L1013.75 902.5L1028.75 913.75L1033.75 915L1036.25 901.25L1052.5 900H1065L1066.25 946.25L1076.25 960L1085 970L1091.25 975L1092.5 980L1082.5 991.25H1078.75V988.75L1073.75 986.25L1021.25 933.75L1011.25 925L1002.5 916.25L996.25 911.25L987.5 920L977.5 928.75L943.75 962.5L935 972.5L923.75 985L920 990H917.5V992.5L912.5 991.25L905 981.25L903.75 977.5L917.5 962.5L926.25 952.5L953.75 925L967.5 913.75L983.75 898.75L995 890Z" fill="#F8FBF3"/>
<path d="M302.5 182.5H308.75L323.75 196.25L337.5 208.75L343.75 211.25L345 200H373.75V240L382.5 250L393.75 262.5V265L397.5 266.25L396.25 275L390 281.25L383.75 282.5L363.75 261.25L348.75 246.25L340 236.25L323.75 221.25L315 213.75L307.5 205L302.5 207.5L277.5 232.5L268.75 242.5L255 255L246.25 265L230 281.25L225 283.75L216.25 273.75V267.5L230 253.75L238.75 243.75L257.5 225L267.5 216.25L293.75 190L302.5 182.5Z" fill="#F8FBF3"/>
<path d="M601.25 641.25H633.75L635 683.75V723.75L708.75 725L710 726.25L708.75 750H685L602.5 748.75L601.25 667.5V641.25Z" fill="black"/>
<path d="M993.75 182.5L1000 183.75L1010 192.5L1021.25 203.75L1033.75 212.5L1036.25 213.75L1037.5 201.25H1065V241.25L1075 251.25L1083.75 261.25L1090 267.5V273.75L1080 283.75L1075 281.25L1057.5 262.5L1027.5 232.5L1013.75 221.25L1005 212.5L998.75 205L993.75 207.5L943.75 257.5L935 267.5L918.75 283.75L912.5 281.25L906.25 273.75L907.5 267.5L916.25 258.75L925 248.75L950 223.75L960 215L970 205L980 196.25L993.75 182.5Z" fill="#F8FBF3"/>
<path d="M603.75 940L707.5 941.25V968.75L688.75 971.25L666.25 972.5H637.5L610 970L581.25 965L576.25 963.75L575 957.5V941.25L603.75 940Z" fill="#13181C"/>
<path d="M732.5 737.5L795 740V795H731.25V738.75L732.5 737.5Z" fill="black"/>
<path d="M655 641.25H707.5L708.75 642.5V705H662.5L655 703.75V641.25Z" fill="#14181D"/>
<path d="M633.75 835H648.75L661.25 841.25L671.25 852.5L675 866.25L673.75 878.75L668.75 887.5L658.75 896.25L647.5 901.25H636.25L623.75 895L615 886.25L610 873.75V861.25L613.75 851.25L623.75 840L633.75 835Z" fill="#F8FBF3"/>
<path d="M400 496.25L411.25 497.5L422.5 503.75L431.25 513.75L435 522.5V535L430 547.5L422.5 556.25L412.5 562.5L401.25 563.75L390 558.75L380 551.25L373.75 543.75L371.25 536.25V522.5L376.25 511.25L383.75 502.5L393.75 497.5L400 496.25Z" fill="#F8FBF3"/>
<path d="M405 390L413.75 397.5L437.5 421.25L448.75 435L452.5 437.5L475 436.25V450L365 451.25L366.25 446.25L378.75 426.25L396.25 402.5L405 390Z" fill="black"/>
<path d="M816.25 331.25L822.5 332.5L857.5 356.25L877.5 372.5L841.25 408.75L832.5 416.25L820 428.75L816.25 427.5V331.25Z" fill="black"/>
<path d="M796.25 596.25H807.5L818.75 600L828.75 610L832.5 618.75V635L827.5 646.25L818.75 655L810 658.75L798.75 660L787.5 656.25L777.5 648.75L771.25 638.75L770 635V621.25L775 611.25L782.5 602.5L791.25 597.5L796.25 596.25Z" fill="#F8FBF3"/>
<path d="M550 641.25H578.75V748.75H550V641.25Z" fill="black"/>
<path d="M480 770H490L501.25 773.75L510 782.5L515 792.5V807.5L510 820L501.25 827.5L487.5 831.25H478.75L468.75 827.5L460 820L455 810L453.75 805V795L457.5 785L466.25 775L480 770Z" fill="#F8FBF3"/>
<path d="M473.75 336.25H475V428.75L466.25 421.25L442.5 397.5L437.5 391.25L422.5 376.25L423.75 372.5L437.5 362.5L457.5 347.5L473.75 336.25Z" fill="black"/>
<path d="M343.75 667.5H370L385 668.75L387.5 670V713.75H343.75V667.5Z" fill="#F8FBF3"/>
<path d="M848.75 555H896.25V593.75L850 595L848.75 555Z" fill="#F8FBF3"/>
<path d="M407.5 671.25H447.5L446.25 713.75H405L403.75 690V672.5L407.5 671.25Z" fill="#F8FBF3"/>
<path d="M845 766.25L868.75 767.5L887.5 768.75V802.5L886.25 805H875L872.5 803.75H845V766.25Z" fill="#F8FBF3"/>
<path d="M851.25 670H895V691.25L893.75 701.25H848.75L847.5 671.25L851.25 670Z" fill="#F8FBF3"/>
<path d="M643.75 428.75L655 430L663.75 437.5L666.25 443.75V453.75L661.25 463.75L652.5 468.75H640L632.5 465L627.5 458.75L625 451.25L626.25 441.25L631.25 433.75L637.5 430L643.75 428.75Z" fill="black"/>
<path d="M361.25 573.75L377.5 575L393.75 581.25L406.25 588.75L415 598.75L420 603.75V610L415 613.75H403.75L396.25 610L385 600L372.5 595L360 592.5L357.5 580V575L361.25 573.75Z" fill="#F8FBF3"/>
<path d="M862.5 445H876.25L883.75 448.75L891.25 458.75V472.5L888.75 478.75L883.75 485H867.5L856.25 478.75L852.5 467.5L853.75 456.25L860 446.25L862.5 445Z" fill="#F8FBF3"/>
<path d="M928.75 666.25L936.25 672.5L941.25 678.75L952.5 681.25L953.75 682.5V696.25L952.5 701.25L947.5 702.5H911.25L910 700L908.75 673.75L923.75 668.75L928.75 666.25Z" fill="#F8FBF3"/>
<path d="M930 558.75L933.75 560L942.5 570L953.75 573.75V585L952.5 595H912.5L911.25 566.25L923.75 561.25L930 558.75Z" fill="#F8FBF3"/>
<path d="M901.25 772.5H923.75L932.5 777.5L938.75 780L940 782.5V803.75L903.75 805L901.25 772.5Z" fill="#F8FBF3"/>
<path d="M398.75 737.5H410L417.5 742.5L421.25 751.25L418.75 762.5L412.5 768.75L410 770H398.75L390 760L388.75 751.25L392.5 742.5L398.75 737.5Z" fill="#F8FBF3"/>
<path d="M540 350H560L565 352.5L566.25 356.25V372.5L562.5 377.5H541.25L537.5 376.25V351.25L540 350Z" fill="#F8FBF3"/>
<path d="M496.25 641.25H527.5V735L528.75 770H595L695 771.25V773.75H531.25L527.5 772.5L526.25 770L525 757.5V643.75H497.5L496.25 641.25Z" fill="#05090E"/>
<path d="M636.25 853.75H645L652.5 858.75L656.25 866.25L655 875L648.75 881.25L640 882.5L631.25 877.5L628.75 872.5V861.25L633.75 855L636.25 853.75Z" fill="#13181C"/>
<path d="M400 515L408.75 516.25L416.25 523.75V535L411.25 541.25L406.25 543.75L396.25 542.5L390 536.25L388.75 533.75V525L392.5 518.75L400 515Z" fill="black"/>
<path d="M797.5 613.75H806.25L812.5 617.5L816.25 622.5V630L811.25 637.5L806.25 641.25H797.5L791.25 637.5L787.5 631.25V623.75L795 615L797.5 613.75Z" fill="#151A1E"/>
<path d="M992.5 958.75L1003.75 961.25L1010 967.5L1011.25 970V977.5L1005 985L1001.25 986.25H992.5L986.25 981.25L983.75 976.25V967.5L990 960L992.5 958.75Z" fill="#13181C"/>
<path d="M301.25 960H310L316.25 963.75L320 971.25L318.75 980L311.25 986.25L302.5 987.5L295 982.5L292.5 977.5V968.75L298.75 961.25L301.25 960Z" fill="#13171C"/>
<path d="M991.25 250H1001.25L1007.5 255L1010 258.75V268.75L1005 275L1000 277.5H992.5L986.25 272.5L983.75 268.75V257.5L990 251.25L991.25 250Z" fill="#13181C"/>
<path d="M478.75 787.5H490L497.5 792.5L498.75 795V805L492.5 812.5L490 813.75H481.25L472.5 806.25L471.25 797.5L476.25 788.75L478.75 787.5Z" fill="black"/>
<path d="M300 250H311.25L317.5 255L320 263.75L317.5 270L310 276.25H302.5L295 270L293.75 267.5V256.25L300 250Z" fill="black"/>
<path d="M498.75 617.5L738.75 618.75V620L670 621.25H497.5L498.75 617.5Z" fill="#070B10"/>
<path d="M550 641.25H578.75V647.5L577.5 643.75L553.75 645V746.25L576.25 747.5V738.75H577.5V748.75H550V641.25Z" fill="#0B0F14"/>
<path d="M626.25 380L628.75 381.25L620 391.25L617.5 400H610L605 406.25H602.5V411.25L596.25 415H593.75L595 421.25L590 423.75H585L583.75 428.75L577.5 432.5L567.5 443.75L558.75 451.25H556.25V453.75H553.75L556.25 448.75L570 435L580 426.25L626.25 380Z" fill="#090D12"/>
<path d="M496.25 641.25H527.5V710L526.25 757.5H525V643.75H497.5L496.25 641.25Z" fill="#0A0E13"/>
<path d="M816.25 331.25L822.5 332.5L826.25 335L825 340H820V428.75L816.25 427.5V331.25Z" fill="#0C1115"/>
<path d="M352.5 471.25H473.75L475 473.75H353.75L352.5 477.5L351.25 472.5L352.5 471.25Z" fill="#0B0F14"/>
<path d="M732.5 737.5L736.25 738.75V750L735 756.25L733.75 792.5L750 791.25L791.25 792.5V793.75L731.25 795V738.75L732.5 737.5Z" fill="#090D12"/>
<path d="M300 250H311.25L317.5 255L320 263.75L317.5 270L310 276.25H302.5L295 270L293.75 267.5V256.25L300 250ZM302.5 251.25L298.75 253.75L296.25 260V262.5L297.5 268.75L301.25 273.75L308.75 272.5L307.5 268.75L315 270L316.25 267.5V258.75L315 255L308.75 251.25H302.5Z" fill="#090E12"/>
<path d="M635 512.5H643.75L638.75 515L628.75 518.75L621.25 525L616.25 533.75L615 543.75V575L616.25 577.5H613.75L615 581.25L612.5 585L611.25 580V545L612.5 533.75L620 522.5L628.75 515L635 512.5Z" fill="#0A0E13"/>
<path d="M1006.25 231.25L1012.5 233.75L1016.25 237.5L1021.25 238.75L1028.75 250L1035 253.75L1037.5 260L1043.75 263.75L1048.75 270L1052.5 272.5V275L1047.5 272.5L1031.25 257.5L1015 241.25L1006.25 233.75V231.25Z" fill="#080D11"/>
<path d="M603.75 728.75H605V746.25H637.5L705 747.5V748.75H602.5L603.75 728.75Z" fill="#04080D"/>
<path d="M312.5 612.5L315 617.5L397.5 618.75V620L391.25 621.25H350L311.25 620L312.5 612.5Z" fill="#090E12"/>
<path d="M643.75 428.75L655 430L658.75 432.5L657.5 436.25L650 432.5L638.75 433.75L632.5 437.5L630 441.25L628.75 451.25L635 462.5V465L630 462.5L625 451.25L626.25 441.25L631.25 433.75L637.5 430L643.75 428.75Z" fill="#0A0E13"/>
<path d="M655 641.25H707.5L708.75 643.75H657.5L658.75 651.25L657.5 668.75L655 667.5V641.25Z" fill="#0A0F13"/>
<path d="M705 816.25H707.5L706.25 916.25H705V818.75H675V817.5L705 816.25Z" fill="#04080D"/>
<path d="M550 588.75H585L612.5 590V591.25L605 592.5H575L545 591.25L550 588.75Z" fill="#080C11"/>
<path d="M632.5 663.75H633.75L635 683.75V723.75L655 725V726.25L632.5 727.5L631.25 721.25L632.5 663.75Z" fill="#090D12"/>
<path d="M747.5 345L750 350V420L751.25 423.75L746.25 421.25V380L747.5 345Z" fill="#090D12"/>
<path d="M752.5 425L760 431.25L768.75 441.25L771.25 446.25H773.75L780 452.5L781.25 455L776.25 465L770 471.25L766.25 472.5L767.5 468.75L773.75 463.75L776.25 458.75L775 452.5L765 442.5L756.25 432.5L752.5 427.5V425Z" fill="#0B0F14"/>
<path d="M615 887.5L620 890L627.5 896.25L636.25 900H647.5L662.5 892.5L666.25 893.75L653.75 901.25L646.25 903.75H637.5L625 898.75L615 890V887.5Z" fill="#090E12"/>
<path d="M985 258.75H986.25L988.75 271.25L997.5 272.5V275L1002.5 273.75V271.25L1008.75 265V271.25L1002.5 276.25L1000 277.5H992.5L986.25 272.5L983.75 268.75V260L985 258.75Z" fill="#080C11"/>
<path d="M603.75 940L621.25 941.25V942.5L578.75 943.75L577.5 962.5L575 957.5V941.25L603.75 940Z" fill="#080C11"/>
<path d="M373.75 433.75H376.25L375 438.75L371.25 443.75L370 448.75H416.25V450L365 451.25L366.25 446.25L373.75 433.75Z" fill="#04080D"/>
<path d="M867.5 412.5L870 413.75L863.75 420L861.25 423.75H858.75L856.25 428.75L852.5 432.5H850V435L840 443.75L837.5 445L838.75 440L860 420L867.5 412.5Z" fill="#0A0F13"/>
<path d="M438.75 390L443.75 392.5L453.75 405L461.25 410L463.75 416.25H466.25L468.75 421.25L463.75 418.75L442.5 397.5L438.75 392.5V390Z" fill="#0A0F13"/>
<path d="M891.25 388.75L896.25 390L902.5 397.5L901.25 401.25V398.75H898.75L895 395H890H887.5V397.5H885V400L875 408.75L871.25 411.25L873.75 406.25L891.25 388.75Z" fill="#090E12"/>
<path d="M300 250H311.25V252.5H302.5L298.75 253.75L297.5 258.75V262.5L298.75 268.75L301.25 270V273.75L303.75 275L298.75 273.75L293.75 267.5V256.25L300 250Z" fill="#070C10"/>
<path d="M371.25 826.25L377.5 832.5L388.75 847.5L398.75 860H395L381.25 843.75L371.25 830V826.25Z" fill="#0A0E13"/>
<path d="M1037.5 198.75H1057.5V201.25H1037.5V210L1036.25 213.75L1030 211.25L1027.5 210V207.5L1033.75 210L1037.5 198.75Z" fill="#070B10"/>
<path d="M942.5 802.5H945L943.75 808.75L940 813.75H937.5L940 806.25H910L915 803.75L942.5 802.5Z" fill="#060A0F"/>
<path d="M906.25 673.75L908.75 678.75L910 682.5V703.75H927.5V705H908.75L907.5 686.25L905 685L906.25 683.75V673.75Z" fill="#05090E"/>
<path d="M612.5 416.25H615L612.5 421.25L596.25 437.5L591.25 441.25L588.75 440L595 433.75L600 431.25L602.5 426.25L608.75 420H611.25L612.5 416.25Z" fill="#090D12"/>
<path d="M526.25 735H527.5L528.75 770H537.5L538.75 772.5L531.25 773.75L527.5 772.5L526.25 770V735Z" fill="#0B1014"/>
<path d="M343.75 492.5L345 495L338.75 510L332.5 527.5H331.25L332.5 516.25L341.25 495L343.75 492.5Z" fill="#0A0E13"/>
<path d="M603.75 728.75H605V746.25H625V748.75H602.5L603.75 728.75Z" fill="#0A0E13"/>
<path d="M396.25 516.25H402.5L400 520H396.25L392.5 526.25V533.75L395 540L391.25 538.75L388.75 533.75V525L392.5 518.75L396.25 516.25Z" fill="#090D12"/>
<path d="M346.25 261.25L351.25 263.75L360 273.75L370 283.75V286.25L365 283.75L355 273.75L346.25 262.5V261.25Z" fill="#090D12"/>
<path d="M940 676.25L955 680L956.25 681.25V695L955 702.5H953.75L952.5 682.5L941.25 680L940 676.25Z" fill="#090D12"/>
<path d="M996.25 203.75L1001.25 206.25L1002.5 211.25H1000L998.75 208.75H993.75L992.5 212.5L982.5 221.25L977.5 226.25L978.75 221.25L996.25 203.75Z" fill="#0A0E13"/>
<path d="M663.75 448.75H665V457.5L660 465L652.5 468.75H640L638.75 466.25H648.75L657.5 462.5L662.5 455L663.75 448.75Z" fill="#080D11"/>
<path d="M918.75 366.25V370L916.25 372.5L917.5 377.5L925 386.25H921.25L911.25 375L913.75 370L918.75 366.25Z" fill="#090E12"/>
<path d="M471.25 337.5H473.75V385H472.5V341.25H470L471.25 337.5Z" fill="#04080D"/>
<path d="M777.5 452.5L781.25 453.75L777.5 463.75L772.5 470L766.25 472.5L767.5 468.75L773.75 463.75L777.5 452.5Z" fill="#080D11"/>
<path d="M567.5 437.5L568.75 442.5L558.75 451.25H556.25V453.75H553.75L556.25 448.75L567.5 437.5Z" fill="#0A0E13"/>
<path d="M576.25 451.25H578.75L576.25 456.25L565 467.5H562.5V465H565L566.25 460H570L572.5 455H575L576.25 451.25Z" fill="#090E12"/>
<path d="M1045 960L1050 961.25L1061.25 972.5L1060 976.25V973.75L1055 971.25L1048.75 966.25L1047.5 962.5L1045 960Z" fill="#0A0E13"/>
<path d="M643.75 428.75L655 430L658.75 432.5L657.5 436.25L650 432.5H641.25L643.75 428.75Z" fill="#080C11"/>
<path d="M315 966.25L318.75 967.5L320 977.5L315 983.75L311.25 982.5L315 981.25L316.25 972.5L315 966.25Z" fill="#0B0F14"/>
<path d="M473.75 795H475L477.5 807.5L481.25 810V812.5L476.25 810L472.5 806.25L471.25 797.5L473.75 795Z" fill="#090D12"/>
<path d="M958.75 492.5H961.25L968.75 506.25V508.75H962.5L963.75 506.25L958.75 496.25V492.5Z" fill="#0C1015"/>
<path d="M305 915L310 917.5V921.25L303.75 920L293.75 928.75V925L305 915Z" fill="#0B0F14"/>
<path d="M453.75 406.25L458.75 408.75L463.75 413.75V416.25H466.25L468.75 421.25L463.75 418.75L453.75 408.75V406.25Z" fill="#090D12"/>
<path d="M817.5 777.5H818.75L820 803.75L816.25 802.5L817.5 777.5Z" fill="#080D11"/>
<path d="M408.75 518.75L413.75 520L416.25 523.75V535L415 537.5H412.5L413.75 528.75L411.25 523.75V520L408.75 518.75Z" fill="#0A0E13"/>
<path d="M387.5 415L390 416.25L378.75 432.5L377.5 428.75L387.5 415Z" fill="#0A0E13"/>
<path d="M498.75 617.5H517.5L518.75 620L497.5 621.25L498.75 617.5Z" fill="#060A0F"/>
<path d="M626.25 451.25L630 452.5L635 462.5V465L630 462.5L626.25 455V451.25Z" fill="#080C11"/>
<path d="M373.75 433.75H376.25L375 438.75L366.25 451.25L365 447.5L373.75 433.75Z" fill="#0B0F14"/>
<path d="M817.5 332.5L823.75 333.75L826.25 335L825 340H820L817.5 336.25V332.5Z" fill="#060A0F"/>
<path d="M602.5 403.75H605V406.25H602.5V411.25L596.25 415L592.5 413.75L602.5 403.75Z" fill="#090E12"/>
<path d="M932.5 268.75L935 270L927.5 278.75L918.75 285L921.25 280L932.5 268.75Z" fill="#0B1014"/>
<path d="M617.5 391.25L620 393.75L617.5 400L611.25 398.75L617.5 391.25Z" fill="#04080D"/>
</g>
<defs>
<clipPath id="clip0_1271_24">
<rect width="1280" height="1280" fill="white"/>
</clipPath>
</defs>
</svg>
