<?xml version="1.0" encoding="UTF-8"?>
<svg version="1.1" viewBox="0 0 1024 1024" width="1280" height="1280" xmlns="http://www.w3.org/2000/svg">
<path transform="translate(0)" d="m0 0h1024v1024h-1024z" fill="#151821"/>
<path transform="translate(463,174)" d="m0 0h89l11 1 1 5 8 1 43 12 23 7 53 15 33 10 14 4 21 7 14 3 1 1v14h-20v37h22l4 5 1 4-5 5h-22l-1 12h23l4 5 1 6-5 5h-23l1 43-1 2h-14v-45h-20l-4-2-3-6 4-7 1-1h22l-1-7 1-5h-22l-4-4 1-7 3-3 9-1h9l4 1-1-38-3 1-32 1h-50l1 34 21 1 4 6-1 5-3 3h-19l-2-1v10l-1 4 22-1 4 6v6l-3 3-3 1h-19v9l-1 10-13-1-1-19h-23l-3-3 1-7 3-4h21l1-14-11 1h-9l-5-4-1-5 5-5 4-1h12l5 1v-33l1-3-22 1-54 1 1 22v57l1 3 34 9 15 5 19 6 25 7 42 13 39 11 10 4 22 5 3 2v13l-1 1-76 1h-134l10 105 5 38 2 28 3 37 4 34 2 29 3 28 4 44 1 10 26-1 2 18-1 3h-227v-20l1-1h28l2-25 4-34 9-96 3-34 10-100 5-59 1-5-121 1h-88l-1-14 2-2 28-7 21-7 24-7 47-15 23-6 19-7 18-6 27-7 1-83-11 1h-64l1 16v19h21l4 5v6l-4 3h-21l-1 13h21l4 5v6l-5 4h-19l-1 18-3 1h-11v-20h-22l-4-4v-6l4-5h21v-13l-20 1-4-4-1-4 4-6 18-1 4 1v-36l-24 1h-32l-29-1v37h20l4 4 1 6-4 4h-14l-8-1v13h22l3 4 1 5-3 6-9 1-14-1v45h-14l-1-4v-41h-21l-6-5 2-7 2-3h23v-9l1-4-6 1h-14l-6-3-1-7 3-4 6-1h16l2 1-1-29-1-8h-17v-9l1-5 15-4 31-10 37-10 28-8 87-26 10-2z" fill="#F2F3EF"/>
<path transform="translate(370,802)" d="m0 0h285v30h-286z" fill="#F2F3EF"/>
<path transform="translate(512,672)" d="m0 0 5 4 7 8 14 15 12 14 10 13 9 10 9 9 1 2 1 21h-135l1-20 4-6 7-7 7-8 13-14 9-11 9-10 13-15z" fill="#151821"/>
<path transform="translate(512,543)" d="m0 0 4 2 11 12 7 8 13 15 12 14 3 2v2l-8 6-7 8-7 7-7 8-9 10-9 11-4 2-13-15-12-13-7-8-13-13-4-3v-2l8-7 9-10 32-34z" fill="#151821"/>
<path transform="translate(373,423)" d="m0 0 15 1v30l13-1h13l4 5 1 5-4 4-3 1h-25v9h28l3 3 1 7-4 4h-27v9l7-1h17l5 3 1 2v6l-4 4h-65l-4-5 1-5 3-4 9-1h12l4 1v-9h-25l-3-4 1-7 4-4 24-1 1-5 2-1-26-1-5-3-1-1v-6l4-4h24z" fill="#F2F3EF"/>
<path transform="translate(564,355)" d="m0 0 6 1 29 9 31 9 20 6 15 5 18 5 10 4-1 2-9 1h-118l-1-19z" fill="#151821"/>
<path transform="translate(563,196)" d="m0 0 9 1 52 16 25 7 24 7 21 7v1l-5 1-93 2h-31l-1-5z" fill="#151821"/>
<path transform="translate(458,355)" d="m0 0h3v42l-2 1-112-2-10-1 3-3 29-9 21-7 45-14z" fill="#151821"/>
<path transform="translate(620,613)" d="m0 0h106l35 1v18h-150l-2-1v-17z" fill="#F2F3EF"/>
<path transform="translate(513,444)" d="m0 0 4 2 10 11 8 7 10 10 4 3-1 3-6 5-9 11-12 14-7 9-4-2-14-15-7-8-11-13-3-4 11-9 15-13 8-7z" fill="#151821"/>
<path transform="translate(609,470)" d="m0 0h153v16l-4 1-57 1h-92l-1-1v-16z" fill="#F2F3EF"/>
<path transform="translate(456,198)" d="m0 0h5v41l-122-3v-2l15-5 22-6 40-12 18-5z" fill="#151821"/>
<path transform="translate(563,616)" d="m0 0 3 1 6 56 5 44-2 2-10-11-7-8-16-17-7-7-9-11-3-3v-2l7-6 7-8 11-12 11-14z" fill="#151821"/>
<path transform="translate(268,522)" d="m0 0h59l4 4 1 6-4 5-27 1v6l26 2 5 5 1 3-5 6h-24l-2 1 2 7v16l-2 1h-12v-19h3v-5h-29l-4-4-1-7 4-4 28-2v-6l-29-1-4-6 1-5 4-3z" fill="#F2F3EF"/>
<path transform="translate(350,522)" d="m0 0h65l3 4v6l-3 4-28 1v8h26l5 5v7l-3 3-28 1 1 4 1 17-4 2h-9l-2-1v-9l2-13-26-1-4-5 1-5 3-4 15-1h12v-6l1-2-27 1-5-5-1-5 3-5z" fill="#F2F3EF"/>
<path transform="translate(460,617)" d="m0 0 4 2 9 11 9 9 7 8 10 11v2h2l-2 4-7 7-9 11-12 12-7 8-11 12h-3l5-49 4-43z" fill="#151821"/>
<path transform="translate(280,476)" d="m0 0h36l12 1 3 3 1 7-3 4-14 1h-12v8l12-1h10l5 4 2 6-4 5h-66l-3-4 1-7 3-3h26l1-9-24 1-5-2-2-3v-5l4-5z" fill="#F2F3EF"/>
<path transform="translate(511,228)" d="m0 0 4 1 20 20 6 5-21 21-8 7-7-6-14-14-8-7 19-19 8-7z" fill="#151821"/>
<path transform="translate(652,643)" d="m0 0h16v33l-4 8-7 6-8 4-5 1-16 1h-27l-2-11v-5l44-2 5-3 2-2 1-4z" fill="#F2F3EF"/>
<path transform="translate(639,499)" d="m0 0h2l1 35v58l-1 8-2 1h-10l-3-3v-98z" fill="#F2F3EF"/>
<path transform="translate(745,499)" d="m0 0 2 1v99l-1 2h-12l-2-1-1-100z" fill="#F2F3EF"/>
<path transform="translate(512,303)" d="m0 0h3l7 8 7 7 11 9 2 3-6 4-13 13-8 7-3 2-9-9-8-7-11-11 9-9 8-7z" fill="#151821"/>
<path transform="translate(679,500)" d="m0 0h14l1 6v93l-8 3-5-2-2-4z" fill="#F2F3EF"/>
<path transform="translate(653,499)" d="m0 0h14l1 1v97l-1 3-2 1h-9l-2-2-1-77z" fill="#F2F3EF"/>
<path transform="translate(290,423)" d="m0 0h13l1 2v29h24l4 6-1 5-3 3h-65l-4-5v-5l4-4h26v-30z" fill="#F2F3EF"/>
<path transform="translate(706,500)" d="m0 0h13l1 20v78l-2 2-10 1-2-2z" fill="#F2F3EF"/>
<path transform="translate(512,375)" d="m0 0 4 2 12 12 10 8 2 3-16 15-10 9h-4l-8-7-16-16 12-12 8-7z" fill="#151821"/>
<path transform="translate(551,499)" d="m0 0 4 1 8 66 1 8-4-2-13-15-9-9-9-11-5-7 11-12 9-10z" fill="#151821"/>
<path transform="translate(470,498)" d="m0 0 4 1 11 13 12 13 4 5v2l-5 4-9 11-9 9-7 8-6 7h-2l2-17 3-34z" fill="#151821"/>
<path transform="translate(706,706)" d="m0 0h7v13l11-9 3-4h9l-2 4-11 12 2 5 13 16v1h-10l-9-12-5-2v15h-8l-1-17v-21z" fill="#F2F3EF"/>
<path transform="translate(699,643)" d="m0 0h16l1 7v36h-15l-1-9z" fill="#F2F3EF"/>
<path transform="translate(637,422)" d="m0 0 14 1v24l5 2v9h-26l-1-1v-10h10l-2-7z" fill="#F2F3EF"/>
<path transform="translate(721,424)" d="m0 0h14v21l-1 2 7 2-1 9-22 1-4-1-1-11 9-1z" fill="#F2F3EF"/>
<path transform="translate(739,706)" d="m0 0h8l9 23v2h2l3-10 5-15h9l-3 9-5 12-6 17h-8l-4-9-9-24z" fill="#F2F3EF"/>
<path transform="translate(321,646)" d="m0 0h3l-2 4-5 4-6 7 1 5 12 16 1 2h-6l-11-13-5-1v14h-7l-1-37h7l1 10-1 3 7-5 6-8z" fill="#F2F3EF"/>
<path transform="translate(545,273)" d="m0 0h3v40l-4-2-12-12-7-6 6-7 12-12z" fill="#151821"/>
<path transform="translate(545,417)" d="m0 0 4 1 1 39-8-6-9-10-7-5 6-7 12-11z" fill="#151821"/>
<path transform="translate(477,416)" d="m0 0 5 3 10 8 7 7v2l-11 9-10 9-3 1z" fill="#151821"/>
<path transform="translate(352,645)" d="m0 0 7 1-7 21-6 17-6 1-3-7-9-25-2-7h6l5 12 5 14 4-9 5-16z" fill="#F2F3EF"/>
<path transform="translate(546,200)" d="m0 0h2v37l-5-2-9-9-8-6 2-5 14-12z" fill="#151821"/>
<path transform="translate(478,346)" d="m0 0 4 2 15 14 4 4-8 6-10 9-5 4-1-38z" fill="#151821"/>
<path transform="translate(478,273)" d="m0 0 6 3 12 11 3 4-1 3-8 7-11 11h-1z" fill="#151821"/>
<path transform="translate(545,349)" d="m0 0h3v36l-5-3-15-14-2-1 2-4 14-12z" fill="#151821"/>
<path transform="translate(680,704)" d="m0 0h2l1 40-5 1-4-1v-22l1-7-5 2-5-1-1-1v-5l10-4z" fill="#F2F3EF"/>
<path transform="translate(478,201)" d="m0 0 5 2 5 5 10 9-1 3-8 7-9 8h-2z" fill="#151821"/>
<path transform="translate(654,703)" d="m0 0h1l1 42h-8v-30l-7 1-1-7 10-5z" fill="#F2F3EF"/>
<path transform="translate(528,190)" d="m0 0h2l-2 4-16 16h-2l-9-11-7-7v-1z" fill="#151821"/>
<path transform="translate(600,540)" d="m0 0h17v16l-8 1h-10v-16z" fill="#F2F3EF"/>
<path transform="translate(763,540)" d="m0 0h11l1 4v8l-1 4-17 1v-16z" fill="#F2F3EF"/>
</svg>
