<svg width="25" height="25" viewBox="0 0 25 25" fill="none" xmlns="http://www.w3.org/2000/svg">
<path d="M0 1.79082C0 0.802344 0.827539 0 1.84766 0H23.1523C24.1729 0 25 0.802344 25 1.79082V23.2095C25 24.1982 24.1729 25 23.1523 25H1.84766C0.827637 25 0 24.1983 0 23.2098V1.79053V1.79082Z" fill="#006699"/>
<path d="M7.59824 20.9229V9.66777H3.85723V20.9229H7.59863H7.59824ZM5.72852 8.13135C7.03281 8.13135 7.84482 7.26709 7.84482 6.18701C7.82041 5.08232 7.03281 4.24219 5.75332 4.24219C4.47295 4.24219 3.63672 5.08232 3.63672 6.18691C3.63672 7.26699 4.44844 8.13125 5.704 8.13125H5.72822L5.72852 8.13135ZM9.66895 20.9229H13.4097V14.6382C13.4097 14.3022 13.4341 13.9654 13.5329 13.7255C13.8032 13.0531 14.4188 12.3571 15.4524 12.3571C16.8058 12.3571 17.3475 13.3892 17.3475 14.9023V20.9229H21.0881V14.4695C21.0881 11.0126 19.2428 9.40391 16.7815 9.40391C14.7637 9.40391 13.8774 10.5317 13.3851 11.2999H13.41V9.66816H9.66914C9.71797 10.724 9.66885 20.9232 9.66885 20.9232L9.66895 20.9229Z" fill="white"/>
</svg>
