<svg width="25" height="26" viewBox="0 0 25 26" fill="none" xmlns="http://www.w3.org/2000/svg">
<path d="M24.999 18.6801C24.999 18.8169 24.9949 19.1138 24.9866 19.3431C24.9665 19.9042 24.922 20.6282 24.8548 20.9581C24.7537 21.4539 24.6011 21.9218 24.4021 22.3113C24.1667 22.772 23.8664 23.1847 23.5095 23.5409C23.1535 23.8963 22.7412 24.1955 22.2812 24.4299C21.8896 24.6294 21.4188 24.7821 20.9202 24.8828C20.5936 24.9487 19.875 24.9924 19.3175 25.0122C19.0879 25.0204 18.791 25.0245 18.6546 25.0245L6.34443 25.0225C6.20754 25.0225 5.91072 25.0183 5.6814 25.0101C5.12029 24.99 4.39626 24.9455 4.06636 24.8783C3.57061 24.7771 3.10266 24.6246 2.71321 24.4256C2.25247 24.1901 1.83979 23.8898 1.48362 23.533C1.12815 23.177 0.829028 22.7647 0.59458 22.3046C0.39502 21.9131 0.242334 21.4423 0.141675 20.9437C0.0757568 20.6171 0.0321289 19.8985 0.0122803 19.3409C0.00412598 19.1114 0 18.8145 0 18.6781L0.00195312 6.3679C0.00195312 6.23101 0.00612793 5.93416 0.0143555 5.70483C0.0344971 5.14373 0.0789551 4.4197 0.146216 4.08982C0.247314 3.59407 0.399902 3.12612 0.598901 2.73665C0.834326 2.27593 1.13464 1.86323 1.49146 1.50706C1.84751 1.15161 2.25981 0.852466 2.71985 0.617993C3.11138 0.418481 3.58225 0.265796 4.08081 0.165137C4.4074 0.0991943 5.12603 0.0555664 5.68355 0.0357422C5.91309 0.0275635 6.21003 0.0234375 6.34636 0.0234375L18.6566 0.025415C18.7935 0.025415 19.0903 0.0295898 19.3197 0.0378174C19.8808 0.057959 20.6048 0.102417 20.9347 0.169678C21.4304 0.270776 21.8984 0.423364 22.2878 0.622363C22.7486 0.857788 23.1612 1.15811 23.5174 1.51492C23.8729 1.87097 24.172 2.28325 24.4064 2.74331C24.606 3.13484 24.7587 3.60569 24.8594 4.10425C24.9253 4.43086 24.9689 5.14946 24.9887 5.70701C24.9969 5.93655 25.001 6.23347 25.001 6.36985L24.999 18.6801V18.6801Z" fill="url(#paint0_linear_896_18)"/>
<path d="M19.1244 5.93696C17.4318 4.24294 15.1808 3.30955 12.7825 3.30859C7.84109 3.30859 3.81934 7.32881 3.81736 12.2703C3.81672 13.8499 4.22954 15.3917 5.01406 16.7508L3.74219 21.3951L8.49475 20.1488C9.80422 20.8628 11.2785 21.2391 12.779 21.2397H12.7827C17.7236 21.2397 21.7458 17.219 21.7478 12.2774C21.7487 9.88274 20.8171 7.63098 19.1244 5.93696ZM12.7827 19.7261H12.7796C11.4425 19.7255 10.1311 19.3665 8.98704 18.6877L8.71492 18.5263L5.89468 19.2659L6.64746 16.5171L6.47024 16.2352C5.72434 15.0492 5.3304 13.6784 5.33098 12.2709C5.33259 8.16375 8.67534 4.82227 12.7855 4.82227C14.7758 4.82302 16.6467 5.5989 18.0536 7.00689C19.4604 8.41487 20.2348 10.2865 20.2341 12.2769C20.2324 16.3844 16.8897 19.7261 12.7827 19.7261ZM16.8699 14.1471C16.6459 14.035 15.5446 13.4932 15.3393 13.4185C15.1339 13.3437 14.9846 13.3064 14.8352 13.5306C14.6859 13.7548 14.2566 14.2592 14.1259 14.4086C13.9953 14.5581 13.8646 14.5768 13.6406 14.4647C13.4166 14.3526 12.6948 14.1161 11.8392 13.3532C11.1733 12.7595 10.7237 12.0261 10.593 11.8019C10.4624 11.5777 10.5791 11.4565 10.6913 11.3448C10.792 11.2445 10.9153 11.0833 11.0273 10.9525C11.1393 10.8218 11.1766 10.7283 11.2513 10.5789C11.326 10.4294 11.2886 10.2986 11.2326 10.1865C11.1766 10.0745 10.7286 8.97222 10.5419 8.52385C10.3601 8.08718 10.1754 8.14627 10.0379 8.1394C9.90737 8.13291 9.75789 8.13154 9.60857 8.13154C9.45925 8.13154 9.21655 8.18757 9.01123 8.41177C8.80591 8.63596 8.22722 9.17773 8.22722 10.28C8.22722 11.3822 9.02988 12.447 9.14189 12.5965C9.25391 12.7459 10.7215 15.0079 12.9686 15.9779C13.5031 16.2086 13.9203 16.3464 14.2456 16.4496C14.7823 16.62 15.2706 16.596 15.6566 16.5383C16.087 16.474 16.9819 15.9966 17.1686 15.4735C17.3553 14.9504 17.3553 14.5021 17.2993 14.4086C17.2433 14.3152 17.0939 14.2592 16.8699 14.1471Z" fill="white"/>
<defs>
<linearGradient id="paint0_linear_896_18" x1="12.5005" y1="0.0234375" x2="12.5005" y2="25.0245" gradientUnits="userSpaceOnUse">
<stop stop-color="#61FD7D"/>
<stop offset="1" stop-color="#2BB826"/>
</linearGradient>
</defs>
</svg>
