<svg width="23" height="23" viewBox="0 0 23 23" fill="none" xmlns="http://www.w3.org/2000/svg">
<path d="M3.6875 0.5625H19.3125C21.0313 0.5625 22.4375 1.96875 22.4375 3.6875V19.3125C22.4375 21.0313 21.0313 22.4375 19.3125 22.4375H3.6875C1.96875 22.4375 0.5625 21.0313 0.5625 19.3125V3.6875C0.5625 1.96875 1.96875 0.5625 3.6875 0.5625Z" fill="black"/>
<path d="M4.78125 13.5313C4.78125 10.7188 6.1875 7.90625 7.82813 7.90625C8.6875 7.90625 9.46875 8.45313 10.6406 10.0938C9.54687 11.7344 8.92187 12.8281 8.92187 12.8281C7.4375 15.0938 6.96875 15.6406 6.10938 15.6406C5.25 15.5625 4.78125 14.8594 4.78125 13.5313ZM14.3906 12.5156L13.375 10.875C13.1406 10.4063 12.8281 10.0156 12.5937 9.625C13.5312 8.21875 14.2344 7.51562 15.1719 7.51562C17.0469 7.51562 18.5312 10.25 18.5312 13.6094C18.5312 14.8594 18.1406 15.6406 17.2812 15.6406C16.3437 15.5625 15.9531 15.0156 14.3906 12.5156ZM11.7344 8.45313C10.3281 6.73438 9.23438 6.03125 7.82813 6.03125C5.01563 6.03125 2.90625 9.70313 2.90625 13.5313C2.90625 15.9531 4.07812 17.4375 6.03125 17.4375C7.4375 17.4375 8.45312 16.8125 10.25 13.6094C10.25 13.6094 11.0312 12.2813 11.5 11.3438C11.6563 11.6563 11.8906 11.9688 12.0469 12.2813L12.9062 13.6875C14.5469 16.4219 15.4844 17.3594 17.125 17.3594C19 17.3594 20.0938 15.7969 20.0938 13.375C20.0938 9.3125 17.9062 5.95312 15.25 5.95312C13.8437 6.03125 12.75 7.125 11.7344 8.45313Z" fill="white"/>
</svg>
