<svg width="120" height="85" viewBox="0 0 120 85" fill="none" xmlns="http://www.w3.org/2000/svg">
<path d="M42.687 42.9352C42.6869 42.9352 42.6868 42.9351 42.6868 42.935V41.8019C42.6868 41.208 42.2053 40.7266 41.6115 40.7266H2.14892C0.970568 40.7266 0.015625 41.7158 0.015625 42.9352V43.974C0.015625 49.4968 4.49278 53.974 10.0156 53.974H70.3485C71.568 53.974 72.5566 52.9854 72.5566 51.7659C72.5566 50.5464 71.568 49.5578 70.3485 49.5578H49.0871C47.39 49.5578 45.7616 48.8599 44.5612 47.6186C43.3617 46.3763 42.6873 44.6913 42.6873 42.9354C42.6873 42.9353 42.6871 42.9352 42.687 42.9352ZM8.55064 47.424C8.55064 48.6025 7.5953 49.5578 6.41682 49.5578C5.23835 49.5578 4.28301 48.6025 4.28301 47.424V47.2766C4.28301 46.0981 5.23835 45.1427 6.41682 45.1427C7.5953 45.1427 8.55064 46.0981 8.55064 47.2766V47.424ZM17.0843 47.4237C17.0846 48.6023 16.1293 49.5578 14.9507 49.5578C13.7724 49.5578 12.8172 48.6026 12.8172 47.4242V47.2763C12.8172 46.098 13.7724 45.1427 14.9507 45.1427C16.1288 45.1427 17.084 46.0976 17.0842 47.2758L17.0843 47.4237Z" fill="#0C213C"/>
<path d="M0.015625 82.681C0.015625 83.266 0.240071 83.828 0.640267 84.2422C1.04047 84.6563 1.58358 84.8886 2.14892 84.8886H70.4239C70.9893 84.8886 71.5324 84.6563 71.9326 84.2422C72.3328 83.828 72.5572 83.266 72.5572 82.681V68.3945C72.5572 62.8717 68.0801 58.3945 62.5572 58.3945H10.016C4.49323 58.3945 0.0161107 62.8715 0.0159753 68.3943L0.015625 82.681ZM21.3508 78.1906C21.3508 77.0124 22.3059 76.0573 23.4841 76.0573C24.6622 76.0573 25.6173 77.0124 25.6173 78.1906V78.3396C25.6173 79.5176 24.6626 80.4726 23.4846 80.4729C22.3062 80.4732 21.3508 79.518 21.3508 78.3396V78.1906ZM4.28217 73.776C4.28217 72.5976 5.23751 71.6422 6.41598 71.6422C7.59445 71.6422 8.54979 72.5976 8.54979 73.776V73.8498C8.54979 75.0689 9.53814 76.0573 10.7573 76.0573H14.8763C16.0956 76.0573 17.084 77.0457 17.084 78.2649C17.084 79.4841 16.0957 80.4724 14.8765 80.4725L8.69797 80.4731C6.25925 80.4733 4.28217 78.4964 4.28217 76.0577V73.776Z" fill="#0C213C"/>
<path d="M55.4844 12.0278C55.4844 10.8087 56.4727 9.82031 57.6919 9.82031H70.3455C71.5646 9.82031 72.553 10.8087 72.553 12.0278C72.553 13.247 71.5646 14.2354 70.3455 14.2354H57.6919C56.4727 14.2354 55.4844 13.247 55.4844 12.0278Z" fill="#0C213C"/>
<path d="M117.361 0.988281H49.0864C47.9081 0.988281 46.9531 1.97646 46.9531 3.19584V42.9375C46.9531 43.5225 47.1786 44.0846 47.5778 44.4987C47.978 44.9128 48.5211 45.1451 49.0864 45.1451H117.361C117.928 45.1451 118.47 44.9128 118.87 44.4987C119.27 44.0846 119.495 43.5225 119.495 42.9375V3.19584C119.495 2.61082 119.27 2.0488 118.87 1.63467C118.47 1.22053 117.928 0.988281 117.361 0.988281ZM83.2253 7.53773C83.2253 6.35956 84.1804 5.40446 85.3585 5.40446C86.5367 5.40446 87.4918 6.35956 87.4918 7.53773V7.68625C87.4918 8.86442 86.5367 9.81952 85.3585 9.81952C84.1804 9.81952 83.2253 8.86442 83.2253 7.68625V7.53773ZM51.2221 12.0276C51.2221 8.36975 54.1874 5.40446 57.8453 5.40446H70.2018C73.8596 5.40446 76.8249 8.36975 76.8249 12.0276C76.8249 15.6855 73.8596 18.6508 70.2018 18.6508H57.8453C54.1874 18.6508 51.2221 15.6855 51.2221 12.0276ZM55.4887 29.7646C55.4887 30.943 54.5332 31.8982 53.3549 31.8979C52.1769 31.8976 51.2221 30.9426 51.2221 29.7646V25.1994C51.2221 24.0212 52.1772 23.0661 53.3554 23.0661C54.5336 23.0661 55.4887 24.0212 55.4887 25.1994V29.7646ZM64.0228 29.7646C64.0228 30.943 63.0674 31.8982 61.889 31.8979C60.7111 31.8976 59.7563 30.9426 59.7563 29.7646V25.1994C59.7563 24.0212 60.7114 23.0661 61.8896 23.0661C63.0677 23.0661 64.0228 24.0212 64.0228 25.1994V29.7646ZM72.557 29.7646C72.557 30.943 71.6016 31.8982 70.4232 31.8979C69.2452 31.8976 68.2905 30.9426 68.2905 29.7646V25.1994C68.2905 24.0212 69.2456 23.0661 70.4237 23.0661C71.6019 23.0661 72.557 24.0212 72.557 25.1994V29.7646ZM81.0912 29.7646C81.0912 30.943 80.1358 31.8982 78.9574 31.8979C77.7794 31.8976 76.8246 30.9426 76.8246 29.7646V25.1994C76.8246 24.0212 77.7797 23.0661 78.9579 23.0661C80.1361 23.0661 81.0912 24.0212 81.0912 25.1994V29.7646ZM96.026 29.764C96.0261 30.9427 95.0705 31.8982 93.8918 31.8979C92.7136 31.8976 91.7586 30.9424 91.7586 29.7642V25.1995C91.7586 24.0213 92.7138 23.0661 93.892 23.0661C95.0702 23.0661 96.0253 24.0211 96.0254 25.1993L96.026 29.764ZM104.56 29.764C104.56 30.9427 103.605 31.8982 102.426 31.8979C101.248 31.8976 100.293 30.9424 100.293 29.7642V25.1995C100.293 24.0213 101.248 23.0661 102.426 23.0661C103.604 23.0661 104.559 24.0211 104.56 25.1993L104.56 29.764ZM113.094 29.764C113.094 30.9427 112.139 31.8982 110.96 31.8979C109.782 31.8976 108.827 30.9424 108.827 29.7642V25.1995C108.827 24.0213 109.782 23.0661 110.96 23.0661C112.139 23.0661 113.094 24.0211 113.094 25.1993L113.094 29.764ZM113.095 16.444C113.095 17.6635 112.106 18.6521 110.886 18.6521L85.432 18.6511C84.2128 18.6511 83.2245 17.6628 83.2245 16.4436C83.2245 15.2244 84.2128 14.236 85.432 14.236H110.887C112.106 14.236 113.095 15.2246 113.095 16.444ZM113.095 7.61279C113.095 8.83229 112.106 9.82087 110.886 9.82081L93.9658 9.81994C92.7467 9.81988 91.7584 8.83153 91.7584 7.61236C91.7584 6.39314 92.7467 5.40477 93.9659 5.40477H110.887C112.106 5.40477 113.095 6.39333 113.095 7.61279Z" fill="#0C213C"/>
</svg>
