<svg width="86" height="87" viewBox="0 0 86 87" fill="none" xmlns="http://www.w3.org/2000/svg">
<path d="M21.5455 0.0820312C16.7632 0.0820312 13.7847 3.57344 13.7847 7.8998V56.5331C13.7847 62.0559 9.30756 66.5331 3.78471 66.5331H2.14333C1.07176 66.5331 0.203125 67.4081 0.203125 68.4875V74.3508C0.203125 80.8136 5.42887 86.0777 11.8445 86.0777H63.2591C68.8797 86.0777 71.9896 80.9234 71.9896 77.283V13.7637V8.87795C71.9896 6.13715 74.1196 3.99222 76.8397 3.99222C79.5606 3.99222 81.6898 6.1379 81.6898 8.87795L81.6905 29.4281C81.6905 31.5711 79.9532 33.3085 77.8102 33.3085C76.7386 33.3085 75.87 34.1835 75.87 35.2629C75.87 36.3423 76.7386 37.2174 77.8102 37.2174H83.6308C84.7023 37.2174 85.571 36.3423 85.571 35.2629V8.87721C85.571 3.64308 81.3743 0.082591 76.8404 0.082591L21.5455 0.0820312ZM25.4259 15.7178H48.7079C49.7795 15.7178 50.6481 16.5928 50.6481 17.6722C50.6481 18.7516 49.7795 19.6266 48.7079 19.6266H25.4259C24.3543 19.6266 23.4857 18.7516 23.4857 17.6722C23.4857 16.5928 24.3544 15.7178 25.4259 15.7178ZM25.4259 27.4446H60.3499C61.4214 27.4446 62.2901 28.3196 62.2901 29.399C62.2901 30.4784 61.4214 31.3535 60.3499 31.3535H25.4259C24.3543 31.3535 23.4857 30.4784 23.4857 29.399C23.4857 28.3196 24.3544 27.4446 25.4259 27.4446ZM25.4259 39.1714H48.7079C49.7795 39.1714 50.6481 40.0465 50.6481 41.1259C50.6481 42.2053 49.7795 43.0803 48.7079 43.0803H25.4259C24.3543 43.0803 23.4857 42.2053 23.4857 41.1259C23.4857 40.0465 24.3544 39.1714 25.4259 39.1714ZM25.4259 50.8983H60.3499C61.4214 50.8983 62.2901 51.7733 62.2901 52.8527C62.2901 53.9321 61.4214 54.8071 60.3499 54.8071H25.4259C24.3543 54.8071 23.4857 53.9321 23.4857 52.8527C23.4857 51.7733 24.3544 50.8983 25.4259 50.8983ZM4.08319 74.3515C4.08307 72.1928 5.83306 70.4427 7.99183 70.4427H47.6887C51.4664 70.4427 54.5289 73.5051 54.5289 77.2829C54.5289 79.4961 53.0461 82.1686 50.8328 82.1687L11.844 82.1693C7.51089 82.1693 4.08319 78.7165 4.08319 74.3515Z" fill="#0C213C"/>
</svg>
