<svg width="84" height="79" viewBox="0 0 84 79" fill="none" xmlns="http://www.w3.org/2000/svg">
<path d="M28.9169 2.98047H29.3763L29.9889 3.09742L30.4101 3.29235L30.7164 3.56525L30.9078 3.83814L31.0227 4.34495L31.061 4.65683V5.59247L30.9844 6.21623V6.52812L31.0993 7.11289L31.1375 7.26883L31.2907 7.3468L31.9033 7.73666L32.4776 7.97057L33.1285 8.3994L33.4731 8.75027L33.8176 9.29606L33.9325 9.68591V9.95881L33.6645 10.3097L33.205 10.6605H33.1285L33.0519 10.8165L32.8605 11.0114H32.7839L32.7456 11.1284L32.5542 11.2063L31.9416 11.5182L31.6736 11.6742L31.597 11.7521H31.4821L31.597 11.947L31.6736 11.986L31.6353 12.142L31.7119 12.181L31.6353 12.3369H31.5204L31.4821 12.4539H31.3673V12.5318H31.2524L31.2907 12.6488L31.4821 12.8047V12.8827H31.5587V12.9607L31.7119 13.0386V13.1556L31.6736 13.2725H31.597V13.1946L31.4438 13.1556L31.597 13.3115L32.133 13.6234L32.5542 13.8963L32.8605 14.1302L33.2433 14.4421L33.4731 14.715L33.7028 14.9099L33.8559 15.1438L33.9325 15.3388L33.8942 15.7676L33.7793 16.0405L32.9753 16.8592L32.3627 17.1711L31.6736 17.444L31.329 17.6389L31.1375 17.8338L31.0993 18.0287H31.0227L31.061 18.1067L31.1758 18.0677L31.2524 18.3406L31.4056 18.5355L31.329 18.6915L31.0993 18.6135V18.6915L31.4438 18.9644L31.9799 19.2763L32.5925 19.5881L32.9753 19.822L33.2433 20.056L33.5113 20.3678L33.7028 20.6017L33.8176 20.8746V21.4204L33.5879 21.8883L33.2433 22.3171L32.937 22.59L32.5542 22.8629L31.9799 23.1748L31.6353 23.4477L31.2907 23.7595L31.061 24.1104L30.9844 24.4223L31.2907 24.5003L31.329 24.6952L31.0993 24.8121L30.9078 24.7342L30.793 24.9291V24.9681L31.329 25.0461L31.8267 25.085L34.7365 25.163H36.9572L39.4458 25.124L40.0967 25.085L40.135 25.0461L40.0967 24.6172L39.9053 23.9935L39.6373 23.5256L39.2544 23.1748L38.5652 22.7069L38.1441 22.3951L37.9526 22.2391L37.7995 22.0052L37.7229 21.8103L37.6846 21.5764L37.7229 20.9136L37.8761 19.978L37.9909 19.7831L38.2972 19.6271L39.2544 19.3542L39.7138 19.1983L39.9436 19.0423L40.0584 18.7305L40.0967 18.4966V18.0287L40.0201 17.8338L39.8287 17.5999L39.4458 17.405L38.9481 17.1711L38.5652 17.0151L38.2206 16.7812L37.8761 16.5863L37.7229 16.3914L37.5315 16.0015V15.0269L37.7229 14.598L37.9143 14.3251L38.2972 14.0912L39.2161 13.7014L39.7521 13.4675L39.867 13.3115L39.9818 12.8047L40.0201 12.3759L39.9436 12.142L40.0201 12.064H39.9436L39.9818 11.7521L39.9053 11.5962H39.7904V11.5182H39.6755V11.4402H39.4075L38.9481 11.2453L38.7949 11.2063L37.9143 10.7775L37.6463 10.5436L37.5315 10.1537V9.68591L37.6846 9.10113L37.9909 8.47737L38.2206 8.16549L38.5652 7.93158L39.2544 7.69767L40.0967 7.58071L40.1733 6.72304L40.2498 4.22799L40.3264 3.40931L40.403 3.21438L40.4796 3.17539H42.4705L43.2362 3.25336L43.4277 3.44829L43.5042 3.79916L43.5808 5.5145L43.6957 7.15188L43.8105 7.58071L43.9637 7.73666L44.27 7.8926L44.9591 8.08752L45.4952 8.20448L45.8015 8.36042L46.0312 8.63331L46.1078 8.90621L46.146 9.41302V9.91982L46.1078 10.4656L46.0312 10.6216L45.878 10.7775L45.4952 10.8945L45.1506 11.0504H45.0357L44.9974 11.1284L44.6146 11.2063L44.1551 11.4013L43.9254 11.5962V11.6742L43.8488 11.7131L43.7723 11.986L43.8105 12.4928V12.8437L43.7723 12.8827L43.8488 13.0386L43.8871 13.2336L43.8488 13.3505L44.0403 13.5065L44.8826 13.8573L45.4952 14.1692L45.9163 14.4031L46.0695 14.637L46.146 14.9879V16.0795L46.0695 16.5083L45.7632 16.7812L45.2272 17.0541L44.4231 17.288L44.0403 17.444L43.8488 17.5609V17.7168H43.7723L43.734 17.8728L43.8871 17.7948L43.8488 18.0677L43.6957 18.1847L43.6574 18.1457L43.6957 18.4576L43.734 18.8084L43.6957 18.8864L43.7723 19.0813L44.1551 19.2763L45.3803 19.7441L45.9546 19.939L46.1078 20.2119L46.146 20.3678V21.4984L46.0695 22.2391L45.9929 22.3951L45.61 22.629L44.806 22.9409L44.3466 23.0968L43.9637 23.4087L43.7723 23.7985L43.734 24.1104L43.6957 24.4613H43.6191L43.5808 24.7342L43.5425 24.8511V25.124L43.6957 25.163H50.8553L51.8125 25.124L52.0805 25.085V24.9681V24.8511L52.0422 24.5003L51.8508 23.8375L51.6594 23.3697L51.4296 23.0578L50.7405 22.8239L50.1279 22.551L49.8982 22.3171L49.7067 21.6933L49.6302 20.7187L49.8982 20.017L50.2045 19.7831L50.7788 19.5881L51.5445 19.4322L51.8891 19.3152L51.9657 19.1203L52.0422 18.8474V18.2626L51.8891 17.5609L51.8508 17.405L51.6977 17.366L51.1999 17.1711L50.6639 17.0151L50.013 16.7812L49.8599 16.5863L49.6302 16.2354L49.477 16.0405L49.5153 15.4947L49.5536 15.2998L49.477 15.2608L49.5153 15.0659L49.8216 14.5201L50.013 14.3251L50.3959 14.0522L50.9319 13.8183L51.7742 13.5454L51.8891 13.5065L51.9657 12.9996V11.5962H51.8891L51.8508 11.4792L51.4296 11.2843L51.3914 11.2063L50.9319 11.1284L50.0513 10.7775L49.6302 10.4656L49.5153 10.2707V9.49099L49.745 8.82824L49.9365 8.51636H50.013L50.0896 8.36042L50.549 8.16549L50.8553 8.00955L51.9274 7.65868L52.004 7.50274L52.0805 6.60609L52.1188 6.06029L52.1954 3.9551L52.272 3.60423L52.3868 3.40931L52.6548 3.25336L53.1526 3.13641L53.4589 3.09742H54.1097L55.2583 3.25336L55.4881 3.40931L55.6029 3.6822L55.6412 4.77378L55.6795 7.07391L55.7944 7.6197L56.5218 7.77564L56.5984 7.81463H56.9047L57.4024 8.00955L57.7853 8.20448L58.283 8.6723L58.5893 9.02316L58.819 9.41302L58.8573 9.52997V9.88084L58.6659 10.1537L58.1299 10.5826L57.479 11.0894L56.943 11.3623L55.9092 11.6352H55.8326V11.7131H55.7561V11.8691L55.8709 11.9081L55.9475 12.2589L55.9092 12.3759H55.7944L55.7561 12.4928L55.7178 12.6488L55.9092 13.1166L55.9475 13.1946L55.7944 13.1556L56.1389 13.3895L56.5601 13.5065L56.943 13.5454L57.4407 13.8963L57.8619 14.2862L58.1682 14.5201L58.551 14.8709L58.7425 15.0269L58.8956 15.2998V15.6896L58.7807 15.9235L58.6659 16.0795H58.5893L58.5127 16.2354L58.2064 16.5473L58.0533 16.7422L57.5556 17.0541L57.0195 17.327L56.1772 17.6389L55.6795 17.7558L55.5646 17.8728L55.4881 18.1457H55.5646L55.6029 17.9897L55.8326 18.1067L55.8709 18.4576L55.9092 18.7305L55.8709 18.8084L55.9092 18.9254H55.8326L55.6795 18.6915H55.5264L55.5646 18.8474L55.7561 18.9254L56.5601 19.2763L57.1344 19.4712L57.7853 19.822L58.1682 20.1339L58.6276 20.6017L58.7425 20.7967L58.7807 20.9526V21.3035L58.5127 21.8493L58.1299 22.3561L57.9384 22.551L57.5556 22.8629L56.8281 23.2527L56.5601 23.2917L56.1389 23.5256L55.8326 23.7595L55.6795 23.9545L55.5646 24.2664V24.5392L55.4115 24.8511V25.0461L56.3304 25.124L57.9001 25.163L62.5329 25.202H68.4674L71.224 25.241L72.6406 25.319L72.8704 25.3969L72.9086 25.4749L72.9469 25.9817L72.9852 26.1376L73.0235 27.6191V30.504L72.9469 30.7379L72.6023 30.8938L72.3726 30.9328L68.9651 30.9718H67.9696L68.0079 31.0498L67.9696 68.3585H69.5011L72.028 68.4365L72.8704 68.4755L73.0235 68.5145L73.0618 69.2942L73.0235 73.8944L72.8321 74.0114L72.7172 74.0504L72.2961 74.0894L63.6432 74.1283H15.057L10.922 74.0894L10.386 74.0114L10.2329 73.9334L10.1946 73.8554L10.118 72.6079V68.5924L10.386 68.4755L11.2666 68.3975L13.6787 68.3195L15.3633 68.2416V41.03L15.4016 38.223L15.4399 31.0498L14.9422 31.0108L11.8409 30.9328L11.1517 30.8938L10.8072 30.8159L10.5774 30.7379L10.0031 30.6989V29.9972L9.96484 29.6463V28.4767L10.0797 26.5665L10.1946 25.5918L10.2711 25.3969L10.5391 25.319L10.8454 25.28L12.1472 25.241L15.2867 25.202L25.3945 25.124L26.7728 25.085L27.2323 25.0461L27.3854 25.0071L27.4237 24.8121L27.6151 24.8511L27.4237 24.3833L27.1557 23.8765L26.7345 23.3307L26.1602 22.7849L25.6625 22.3561L25.2031 21.8493L24.9733 21.4984L24.8968 21.0306V20.7187L25.0499 20.4068L25.2414 20.1729L25.2796 20.0949H25.3562L25.4328 19.939L25.6625 19.7441L26.39 19.3542L26.9643 19.1203L27.3471 18.8864L27.5386 18.6915L27.5769 18.6135L27.6151 18.3406L27.6534 18.1847L27.5386 17.9897L27.194 17.6779L26.5048 17.249L26.0071 16.8982L25.6242 16.6253L25.1265 16.2744L24.8585 16.0795L24.6288 15.7286V15.4557L24.8585 15.0269L25.2796 14.5591L25.7391 14.0912L26.122 13.8183L26.5048 13.6234L26.926 13.4675L27.2706 13.1946L27.5003 12.8827L27.5386 12.5318L27.462 12.2589L27.3471 12.103L27.3088 11.947L27.194 11.9081V11.8301L27.0026 11.7521L26.9643 11.5962L26.8111 11.5182L25.9688 10.9724L25.5094 10.6995L25.0882 10.4266L24.8202 10.1927L24.4756 9.99779L24.4373 9.84185L24.5522 9.52997L24.8968 9.14012L24.9733 9.02316H25.0499V8.94519H25.1265V8.86722L25.4711 8.59433L25.5476 8.51636L25.5859 8.32143L25.8539 8.08752L26.122 7.93158L26.5431 7.6197L26.8494 7.54173L27.3088 7.26883L27.4237 7.03492L27.462 6.87898V5.12465L27.5386 4.30596L27.6534 3.83814L27.8449 3.52626L28.1512 3.25336L28.5723 3.05844L28.9169 2.98047ZM31.1758 12.9996L31.2907 13.0776V12.9996H31.1758ZM43.734 17.9118L43.7723 18.0287L43.8105 17.9118H43.734ZM10.118 30.1531V30.1921H10.3477V30.1531H10.118ZM42.6236 33.2329L42.5854 33.3109L42.6236 33.3889H42.7002V33.2329H42.6236ZM42.7768 33.2329L42.7385 33.3499L42.8151 33.4279V33.2329H42.7768ZM42.8151 33.5448L42.7385 33.7008L42.7768 33.9347L42.8534 33.8957V33.5448H42.8151ZM46.5289 34.1296L46.4141 34.1686L46.3375 34.5584L46.3758 35.0652L46.4523 35.1432L46.5289 35.4941L46.6821 35.9619L46.7203 36.0399L46.8735 36.0009L47.0266 36.1568L47.1415 36.1958L47.2181 36.1568L47.1798 36.2738H47.2947L47.3329 36.4297L47.1415 36.3517L47.2181 36.5077L47.1415 36.4687L47.0649 36.3128H46.7203V36.2348L46.5289 36.1958L46.4141 36.1178H46.2992L46.3758 36.2738L46.6821 36.4687L47.7541 36.9755L48.5198 37.4043L49.0941 37.7552L49.5919 38.0281L50.4342 38.6519L51.0468 39.2366L51.2382 39.4316H51.3148L51.3914 39.5875H51.4679L51.5445 39.7435L52.0805 40.2892L52.3485 40.6011L52.6548 40.952L53.1143 41.5758L53.4589 42.1215L53.9566 42.9402L54.2246 43.4081L54.3012 43.642L54.6458 44.4217L54.8755 45.1234H54.952L55.0669 45.5912L55.1435 45.5132V45.2793L55.1818 45.2014H55.1052V45.1234L55.4115 45.2014L55.4881 45.1234V44.9675L55.6412 45.0454L55.7561 44.8895L55.7944 44.6946H55.7178V44.5386L55.7944 44.3047L55.7561 44.1488L55.7178 43.9149L55.6795 43.642L55.5646 43.447L55.5264 43.2521L55.2966 42.6673L55.2201 42.3555H55.1435L55.0669 41.8876L54.9138 41.4978L54.8372 41.3418H54.7606V41.03H54.684V40.7571L54.6458 40.6401H54.5692V40.4062L54.4926 40.2503H54.416L54.3777 40.0553L54.3012 39.8214L54.3777 39.7824L54.3395 39.6265L54.416 39.6655V39.7435L54.5692 39.7824V39.7045H54.4926L54.5309 39.5485L54.2246 39.1587L54.1097 38.9248H53.9949L53.9566 38.7688L53.7652 38.6519L53.6503 38.5349L53.612 38.418L53.4589 38.379V38.1451L53.3057 38.1061L53.2674 37.9501H53.1908V38.0671L53.1143 37.9501V37.8332L52.9994 37.7552L52.8463 37.5993L52.6931 37.5213L52.5783 37.4823L52.54 37.3264H52.3868L52.4251 37.2094L52.2337 37.1314L52.1954 37.0145H52.0805L52.004 36.8586L51.5828 36.5857L50.6639 36.0009L49.8982 35.5331L49.6302 35.4161L49.4004 35.2602L49.0559 35.1432L48.9027 35.0652L48.8261 34.9873L48.5964 34.9483L48.5198 34.8703L48.2518 34.7923V34.7144L47.5627 34.4415L47.3329 34.4025L47.2947 34.3635L47.0649 34.2855L46.6438 34.1296H46.5289ZM41.9345 34.6364L41.8962 34.7923H41.7813L41.743 34.8703V35.1042L41.5899 35.1432L41.5516 35.2602L41.3985 35.2991L41.3219 35.5331L41.1687 35.689L41.1304 35.767H41.0539L40.8624 36.1178L40.4796 36.7416L40.3264 37.0145L39.4075 38.4959L39.2161 38.7688L39.063 39.0417L38.9098 39.2756V39.3536H38.8332L38.6035 39.7045L38.5269 39.8994L38.2206 40.3672L37.6846 41.2249L37.3783 41.7317L37.3018 41.9266L37.1103 42.1995L36.8806 42.6673L36.7274 42.9402L36.1149 44.1098L35.8086 44.6166L35.4257 45.3183L35.0045 46.059L34.7748 46.4879L34.2771 47.3456L33.7411 48.2422L33.1285 49.0999L33.0902 49.2168L33.205 49.4897L33.2433 49.8796L33.1668 50.0745L33.3965 50.1135H34.2388L36.4212 50.1525L40.5561 50.1915L40.6327 50.2304L40.5944 50.5813L40.2498 52.6085L39.8287 54.6358L39.4841 56.0782L39.0247 57.8715L38.7184 59.1191L38.6801 59.6259L38.6035 59.6649L38.5652 59.7428L38.5269 60.1327L38.4504 60.2106L38.1441 61.6921L38.1058 62.0819V62.5108H38.0292L37.9909 63.0176L37.9143 63.5244L37.9526 63.6413L38.0292 63.5634V63.6413L38.2972 63.6803V63.7583H38.4121V63.8363H38.5269L38.4886 63.9142V64.2651H38.6418H38.7184L38.8332 63.9142L39.0247 63.5634L39.2927 63.2125L39.6755 62.7447L39.9053 62.3158L40.2881 61.6531L40.671 61.0683L41.0539 60.3666L41.3602 59.9377L41.5516 59.6649L41.7813 59.197L42.0493 58.7682L42.2791 58.3783L42.7385 57.7546L43.1597 57.1308L44.0785 55.8833L44.538 55.2205L44.8826 54.7137L45.2654 54.09L45.6483 53.4272L45.9546 52.8035L46.2992 52.2187L46.6055 51.6729L46.9884 51.0102L47.4861 50.1135L48.0221 49.2948L48.2518 48.9829L48.4433 48.6321L48.7113 48.2422L49.0176 47.8524L49.3622 47.4235L49.7833 46.8387L50.0513 46.4099L50.3959 45.8641L50.7788 45.2404L51.0851 44.7725L51.3914 44.3827V44.3047H51.4679L51.7359 43.9149L51.8508 43.642L51.8891 43.447L51.8508 43.3691H51.7359V43.2521L51.4679 43.1741L48.9027 43.1352H42.9682L42.7385 43.0572L42.5854 43.1352H42.2791L42.1642 43.0572L42.0493 43.1741H41.9345V38.0281L42.0876 36.1178L42.1642 35.65L42.4322 35.0652V34.8313L42.3556 34.7923L42.2791 35.0262L42.1642 34.9483L41.8962 35.0262V34.9483H41.8196L42.0111 34.7144L41.9345 34.6364ZM42.3939 34.7144L42.4705 34.7923V34.7144H42.3939ZM37.072 34.8313L37.2252 34.9093L37.1869 34.8313H37.072ZM36.7657 34.8703L36.8806 34.9483L36.9189 34.8703H36.7657ZM41.8962 34.8703V34.9483L42.0111 34.9093L41.8962 34.8703ZM36.536 34.9483L36.4594 35.0262L36.6126 34.9873L36.536 34.9483ZM36.804 34.9483L36.6892 34.9873V35.0652L36.5743 35.0262L36.1914 35.1822V35.2602H36.1149L36.0766 35.3381L35.9234 35.2991L35.7703 35.4551V35.5331L35.5788 35.611L35.464 35.65V35.728L35.5405 35.767L35.4257 35.9229L35.3874 35.8839H35.2725L35.2343 36.1178L34.9662 36.1958L34.928 36.1178V36.2348H34.6217L34.5068 36.1958L34.4302 36.1178L34.3537 36.2348H34.2388L34.0856 36.2738V36.4687L33.9325 36.4297L33.9708 36.5467L33.8176 36.5077L33.7411 36.6246L33.6262 36.5857V36.6636H33.5496L33.5113 36.5857L33.4348 36.7416H33.3199L33.0519 36.8975L33.0136 36.8196L32.8222 37.0145L32.8987 37.1704L32.7839 37.2484V37.1704H32.7073L32.6307 37.2874L32.5159 37.4043L32.4776 37.5213L32.401 37.4823L32.3244 37.7162L32.2479 37.8722H32.1713L31.9799 38.0671L31.9416 38.184L31.7884 38.262L31.4438 38.6129L31.2141 38.8078L30.9461 39.1197L30.8695 39.2756L30.7547 39.3146L30.525 39.6265L30.4101 39.7045V39.8214L30.2569 39.8604L30.1038 40.0163L30.0272 40.2113L29.9124 40.3282V40.5232L29.7975 40.6401L29.7592 40.913H29.6826V41.0689L29.5295 41.1079L29.4912 41.3418L29.3763 41.4198V41.5368L29.2615 41.5758V41.4978H29.1849V41.6537L29.2998 41.6927L29.2232 41.7317L29.2615 41.8486L29.1849 41.8876L29.1083 42.2385L28.9169 42.5894V42.7453L28.8403 42.7843V42.8623L28.7638 42.9012V43.1352H28.6872L28.6489 43.3691H28.534L28.5723 43.486L28.534 43.642L28.4575 43.603L28.4192 43.7979L28.3426 43.9538V44.0708L28.2277 44.1098L28.266 44.1488L28.1894 44.2267H28.266L28.1894 44.3437L27.998 44.4217L27.8832 44.6946L27.8066 45.2014L27.73 45.2404V45.4743L27.6917 45.5522L27.6534 45.9031L27.5769 46.254L27.5386 46.4099L27.5003 47.1116L27.462 47.4625L27.4237 47.6964L27.3854 48.827L27.4237 50.1135H27.462L27.5386 50.8542V51.2831H27.6151L27.5769 51.6339L27.6534 51.7899L27.6917 52.1797L27.7683 52.6475L27.8066 52.8425L27.9597 53.3882L28.0363 53.5052L28.0746 53.8171L28.1512 53.934V54.012L28.3043 54.5188L28.5723 55.1816L28.9169 55.8443L29.1083 56.1952L29.6444 57.0528L30.0655 57.7156L30.5632 58.3783L30.9844 58.8852L31.4438 59.392L31.9416 59.8988L32.2479 60.1717L32.8605 60.6785L33.2433 60.9514L33.8559 61.3802L34.3919 61.6921L34.8131 61.887L35.0811 61.965L35.2343 62.004L35.2725 61.887L35.3491 61.848L35.1194 61.6921H34.8897L34.8131 61.6141L35.0428 61.5361L35.1194 61.4972L35.1577 61.5361L35.2725 61.6141L35.3491 61.5751V61.4972L35.5405 61.5361L35.732 61.4582L35.8086 61.3412L35.9234 60.9903L36 60.6395L35.8851 60.3276L35.7703 60.1327L35.6937 60.0937L35.6171 59.6649L35.4257 59.4699L35.3108 59.4309L35.2725 59.314L35.0811 59.236L34.928 59.1191L34.8514 59.158L34.8131 59.0021L34.5068 58.7292L34.3154 58.6512V58.5733L34.1622 58.5343L34.0856 58.3783L33.8176 58.1834L33.7411 58.2224L33.7028 58.0665L33.5113 57.8715H33.4348L33.3582 57.7156L33.0519 57.4427L32.8987 57.2478H32.8222L32.7456 57.0918L32.4393 56.78L32.2862 56.546L32.0181 56.1952L31.9416 56.2342L31.9033 56.0003L31.6736 55.6494L31.4056 55.2595L31.329 55.1036L31.0227 54.5578L30.793 54.1679L30.6015 53.7391L30.1804 52.6475L29.8358 51.4L29.7592 51.1661L29.6061 50.3864L29.5295 49.5287V47.1506L29.6061 46.5269L29.7209 45.9421L29.8358 45.6302L29.8741 45.5522L29.9124 45.2404L30.0655 44.9285L30.1804 44.5776L30.2569 44.3047L30.4101 43.9149L30.4484 43.7199L30.525 43.6809L30.6015 43.525L30.7164 43.2521L30.793 43.0962L30.9078 42.9012L31.0227 42.5894L31.1758 42.3165L31.2907 42.1605V42.0826L31.3673 42.0436L31.5204 41.7707V41.6537H31.597L31.7501 41.4588V41.3808H31.8267L31.9416 41.1859L32.0947 40.913L32.133 40.835L32.0564 40.796L32.2096 40.6791L32.2479 40.5621L32.3244 40.5232L32.5159 40.3672L32.5542 40.2892L32.669 40.2113L32.8987 39.8994L32.937 39.8604L33.205 39.7435L33.2816 39.5485H33.3965L33.4731 39.4706L33.5879 39.3926L33.6645 39.3146L34.1239 39.0027L34.2388 38.8858V38.7688L34.3537 38.8078L34.928 38.418L35.5788 37.9501L36.0383 37.6383L36.4212 37.3654L37.1486 36.8586L37.608 36.5467L37.8378 36.3517L37.6846 36.3128L37.7229 36.1958L37.5698 36.1568L37.5315 36.0788L37.4549 36.1178V36.0399L37.3783 36.0009V35.9229H37.3018L37.34 35.767L37.2635 35.65V35.572L37.1486 35.5331L37.0337 35.4161H37.1486L37.1103 35.3381L36.9189 35.4161L36.8806 35.3381L36.8423 35.2991H37.1486L37.1869 35.0652H37.3018L37.2635 34.9873L36.804 34.9483ZM36.1531 35.1042L36.1149 35.1822L36.2297 35.1432L36.1531 35.1042ZM46.3375 35.1042L46.3758 35.2212L46.4141 35.1042H46.3375ZM46.3375 35.2602L46.3758 35.4161L46.4141 35.3381L46.3375 35.2602ZM35.3491 35.728L35.3108 35.806H35.3874L35.3491 35.728ZM34.5451 36.0788L34.5068 36.1958H34.6217L34.5834 36.0788H34.5451ZM53.6886 38.4569L53.7652 38.5349V38.4569H53.6886ZM29.6826 40.7181L29.6444 40.874L29.7209 40.835L29.6826 40.7181ZM29.3763 41.2249L29.2998 41.3029L29.4146 41.3418L29.3763 41.2249ZM28.1894 43.7589L28.1512 43.8369H28.2277L28.1894 43.7589ZM28.0746 44.1098L28.0363 44.2657H28.1512L28.1129 44.1098H28.0746ZM55.7944 44.3827L55.8326 44.4996L55.8709 44.3827H55.7944ZM55.6795 45.0454L55.7178 45.1234H55.7944V45.0454H55.6795ZM55.6412 45.1234V45.2014L55.7561 45.1624L55.6412 45.1234ZM55.7561 45.2793L55.7178 45.3573H55.7944L55.7561 45.2793ZM55.4115 45.5912L55.4498 45.6692L55.5264 45.5912H55.4115ZM55.1818 45.7861V46.059L55.2583 46.176V45.7861H55.1818ZM57.3258 46.215L57.2876 46.3709L57.3641 46.4489V46.215H57.3258ZM57.3258 46.5658L57.211 46.6438L57.2876 46.8387H57.211L57.2493 46.9947L57.1727 47.1896L57.2876 47.3066L57.2493 47.5015H57.3258V47.5795L57.1727 47.6184L57.2876 47.7354L57.211 47.8913L57.2493 48.1642L57.0578 48.2032V48.2812H57.1344V48.3981H57.211V48.5151L56.9813 48.4761L56.943 48.3981H56.8664V48.3202L56.943 48.2812H56.8664V48.0473H56.7898L56.7515 47.8913H56.5601L56.4835 47.6184L56.5984 47.5405L56.4452 47.4235L56.3687 47.6574L56.3304 48.0083L56.5218 48.1253H56.3304L56.2921 48.2422L56.3304 48.3202H56.2538V48.3981L55.9858 48.3592L55.9092 48.5151L55.9475 48.5931L56.0624 48.5541L56.0241 48.6321V48.866L55.9092 48.827L55.8326 48.671L55.7561 48.827H55.8326L55.7561 49.1389V49.1779L55.7178 49.5677L55.6412 49.7236L55.5264 49.7626L55.6412 49.6067H55.5646L55.6412 49.4118L55.5646 49.0609L55.5264 48.905L55.5646 48.827L55.5264 48.5541L55.6029 48.4371L55.4115 48.4761V49.1389L55.3349 49.1779V49.3338L55.2583 50.1135L55.0669 51.361L54.8755 52.2577L54.6458 53.0374L54.3395 53.7781L53.6503 55.1816L53.344 55.7274L53.076 56.1562L52.7314 56.624L52.3868 57.0139L51.9657 57.4817L51.6977 57.7936L51.6211 57.9885L51.4296 58.1834L51.3531 58.3394L51.1999 58.4173L51.0851 58.5343V58.6123H50.9702L50.7788 58.8072L50.5873 58.8462L50.549 58.9631L50.4342 59.0411V59.1191L50.3193 59.158L50.281 59.236L50.0513 59.314L50.013 59.4309L49.7833 59.4699L49.477 59.6649L49.5153 59.7818L49.3622 59.7428L49.0559 59.9377L48.941 60.0547L48.8261 60.0937V60.1717L48.7113 60.1327L48.0987 60.4446L47.2947 60.7954L46.1843 61.1853L45.1889 61.4582L44.4231 61.6531L43.2362 61.848L42.0493 62.1209L41.7048 62.2769L41.6665 62.3158V62.5887H41.7813V62.7837L41.6282 62.8226L41.5899 63.0955L41.5516 63.2125L41.5899 63.2905H41.6665L41.7048 63.4074L41.8196 63.4854L41.9345 63.7583L42.1642 63.9142L42.5471 63.9532L44.4231 63.7973L45.4952 63.6413L46.3758 63.4464L47.4478 63.1345L48.7496 62.6277L49.6302 62.1989L50.5108 61.7311L51.0851 61.3412L51.6211 60.9124L52.0805 60.5225L52.5017 60.1717L53.076 59.6259L53.8417 58.8462L54.1097 58.5343L54.5692 57.9885L54.9903 57.4817L55.3349 56.9749L55.6795 56.3901L55.9858 55.7663L56.2921 55.1036L56.4452 54.7917V54.6748L56.5218 54.5578L56.5601 54.2849H56.6367L56.7133 53.973L56.7515 53.8951L56.8281 53.7781L56.8664 53.5442L56.943 53.5052L57.2876 52.3746L57.479 51.4L57.5939 50.1135V48.0473L57.5556 47.4625L57.479 47.4235L57.4407 46.7998H57.3641L57.4024 46.6048L57.3258 46.5658ZM56.2538 47.3066L56.2921 47.4235V47.3066H56.2538ZM55.6795 47.3456L55.7178 47.5405L55.7944 47.3845L55.6795 47.3456ZM55.6795 47.8913L55.7178 48.0473L55.7944 48.0083V47.8913H55.6795ZM56.8664 47.8913L56.8281 47.9693H56.9047L56.8664 47.8913ZM56.1389 48.0083L56.0624 48.0473L56.1007 48.1642L56.1772 48.1253L56.1389 48.0083ZM55.7561 48.2032L55.7944 48.3202L55.8709 48.3592V48.2422L55.7561 48.2032ZM56.1389 48.2032L56.1772 48.2812L56.2155 48.2032H56.1389ZM55.4881 48.2812L55.4498 48.4371L55.5264 48.2812H55.4881ZM57.0195 48.3202L56.943 48.3981L57.0961 48.4371L57.0195 48.3202ZM55.6795 48.671L55.6412 48.827L55.7178 48.788L55.6795 48.671ZM55.6029 49.0999L55.6412 49.2168H55.7178V49.1389L55.6029 49.0999ZM55.6795 49.4118L55.6412 49.4897H55.7178L55.6795 49.4118ZM35.8851 59.8988L35.9234 60.0547L36 60.0157L35.9617 59.8988H35.8851ZM34.928 61.5751L34.8514 61.6531L34.9662 61.6921L35.0428 61.6141L34.928 61.5751ZM35.0428 61.5751L35.1194 61.6531V61.5751H35.0428ZM38.4504 64.3821L38.4886 64.499V64.3821H38.4504Z" fill="#0C213C"/>
<path d="M33.4352 60.4453L33.4735 60.5623L33.6266 60.6013L33.5883 60.6792L33.7032 60.7572V60.6792L33.7798 60.7182L33.8181 60.9131L34.0478 60.9521L34.0861 60.8741V61.0691L34.2392 61.0301L34.3158 61.303L34.0861 61.225L33.9712 61.1081L33.7032 61.0691L33.7798 61.0301L33.7415 60.9521L33.5883 60.9131L33.5501 61.0691L33.4735 61.0301V60.9521L33.1289 60.8352V60.7572L33.3203 60.7182V60.6402L33.2438 60.6013H33.3586L33.4352 60.4453ZM33.4352 60.7962V60.8741H33.6266L33.5501 60.7962H33.4352ZM33.7032 60.7962L33.6649 60.8741H33.7415L33.7032 60.7962Z" fill="#0C213C"/>
<path d="M55.6031 49.8789H55.6797L55.6414 50.1908L55.718 50.2688L55.6797 50.6976V50.8145H55.6031L55.6414 51.0095L55.4883 50.9315V50.8145V50.3467L55.5649 50.2298L55.5266 49.9959H55.6031V49.8789Z" fill="#0C213C"/>
<path d="M31.8242 59.5859L31.9774 59.6639H32.1305L32.2837 59.8588L32.2071 59.9368H32.0922L31.9391 59.7809V59.7029L31.8242 59.6639V59.5859Z" fill="#0C213C"/>
<path d="M33.0492 60.2891L33.0875 60.406L33.3172 60.445L33.2407 60.6009L33.0875 60.562L33.1258 60.523L32.9727 60.367L33.0492 60.2891Z" fill="#0C213C"/>
<path d="M50.4719 38.4961H50.5485V38.5741L50.6633 38.613L50.7399 38.769L50.5867 38.691L50.4336 38.5351L50.4719 38.4961Z" fill="#0C213C"/>
<path d="M34.6586 61.3398H34.7352L34.7735 61.5738H34.582L34.6586 61.5348L34.582 61.3788L34.6586 61.3398Z" fill="#0C213C"/>
<path d="M32.7461 60.3672L32.9375 60.4452L32.9758 60.6011L32.861 60.5621V60.4841H32.7844L32.7461 60.3672Z" fill="#0C213C"/>
<path d="M31.1758 58.9258L31.4438 59.1597L31.4821 59.2377L31.3289 59.1597L31.1758 59.0038V58.9258Z" fill="#0C213C"/>
<path d="M30.8672 58.457L31.0203 58.535L31.0586 58.652L31.1735 58.6909L31.1352 58.7689L30.9438 58.574L30.8672 58.457Z" fill="#0C213C"/>
<path d="M32.9755 36.8984H33.014V37.1323H32.937L32.8984 36.9764L32.9755 36.8984Z" fill="#0C213C"/>
<path d="M50.2812 38.418L50.4727 38.457L50.4344 38.5349L50.2812 38.4959V38.418Z" fill="#0C213C"/>
<path d="M56.1781 48.4375L56.293 48.4765L56.2164 48.5155L56.1781 48.5934V48.5155L56.1016 48.4765L56.1781 48.4375Z" fill="#0C213C"/>
<path d="M41.6641 62.8633H41.7787V62.9793L41.6641 62.9406V62.8633Z" fill="#0C213C"/>
<path d="M32.2461 59.8984L32.4375 59.9374L32.3992 60.0154H32.3227V59.9374L32.2461 59.8984Z" fill="#0C213C"/>
<path d="M55.0273 44.9688H55.1429L55.1814 45.0857H55.0659L55.0273 44.9688Z" fill="#0C213C"/>
<path d="M55.7188 12.5312H55.7958L55.8343 12.7262H55.7573L55.7188 12.5312Z" fill="#0C213C"/>
<path d="M56.6375 48.1641L56.6758 48.242L56.4844 48.281L56.5227 48.203L56.6375 48.1641Z" fill="#0C213C"/>
<path d="M28.1122 44.4219L28.1893 44.4998L28.0352 44.5778L28.1122 44.4219Z" fill="#0C213C"/>
<path d="M50.8945 38.9258L51.0486 39.0038L51.0101 39.0817L50.8945 39.0038V38.9258Z" fill="#0C213C"/>
<path d="M34.8125 61.3008L34.8896 61.4567H34.8125V61.3008Z" fill="#0C213C"/>
<path d="M32.207 59.9766H32.2835L32.3217 60.0926L32.207 60.0539V59.9766Z" fill="#0C213C"/>
<path d="M31.0234 58.7695L31.139 58.8475L31.1005 58.9255L31.0234 58.7695Z" fill="#0C213C"/>
<path d="M55.0656 44.8125L55.142 44.9285H55.0273L55.0656 44.8125Z" fill="#0C213C"/>
<path d="M50.1641 10.8555L50.3182 10.9334H50.2026L50.1641 10.8555Z" fill="#0C213C"/>
<path d="M34.1602 61.3398L34.3143 61.4178L34.1602 61.3788V61.3398Z" fill="#0C213C"/>
<path d="M32.4766 60.0938L32.6307 60.1327L32.5536 60.1717L32.4766 60.0938Z" fill="#0C213C"/>
<path d="M55.8711 49.0234H55.9475V49.1395L55.8711 49.1008V49.0234Z" fill="#0C213C"/>
<path d="M51.5039 39.5469L51.6186 39.6629L51.5039 39.6242V39.5469Z" fill="#0C213C"/>
<path d="M51.1992 39.2383L51.3139 39.3543L51.1992 39.3156V39.2383Z" fill="#0C213C"/>
<path d="M51.0469 39.082L51.1615 39.1981L51.0469 39.1594V39.082Z" fill="#0C213C"/>
<path d="M53.5742 38.6523L53.6889 38.691L53.6507 38.7684L53.5742 38.6523Z" fill="#0C213C"/>
<path d="M34.1602 61.2227L34.2748 61.2613L34.1602 61.3V61.2227Z" fill="#0C213C"/>
<path d="M33.0117 60.6406H33.0888V60.7186H33.0117V60.6406Z" fill="#0C213C"/>
<path d="M32.6289 60.25H32.7436L32.7053 60.3273L32.6289 60.25Z" fill="#0C213C"/>
<path d="M31.8633 59.4688L31.9779 59.5074H31.8633V59.4688Z" fill="#0C213C"/>
<path d="M31.4062 59.0039H31.4833V59.0819H31.4062V59.0039Z" fill="#0C213C"/>
<path d="M31.25 58.8477H31.3271V58.9256H31.25V58.8477Z" fill="#0C213C"/>
<path d="M56.1007 48.7109L56.1772 48.7496H56.0625L56.1007 48.7109Z" fill="#0C213C"/>
<path d="M55.9844 48.3984L56.099 48.4371H55.9844V48.3984Z" fill="#0C213C"/>
<path d="M55.3359 45.0469H55.4124L55.3742 45.1629L55.3359 45.0469Z" fill="#0C213C"/>
<path d="M55.2969 44.8516L55.4115 44.8902H55.2969V44.8516Z" fill="#0C213C"/>
<path d="M51.6602 39.7031L51.7366 39.7418L51.6984 39.8191L51.6602 39.7031Z" fill="#0C213C"/>
<path d="M35.2734 36.0391L35.3881 36.0777H35.2734V36.0391Z" fill="#0C213C"/>
<path d="M55.8711 13H55.9481V13.078H55.8711V13Z" fill="#0C213C"/>
<path d="M32.5547 60.2891H32.6317L32.5932 60.367L32.5547 60.2891Z" fill="#0C213C"/>
<path d="M32.3633 60.1328L32.4403 60.2108H32.3633V60.1328Z" fill="#0C213C"/>
<path d="M49.3242 59.8203L49.4013 59.8593L49.3242 59.8983V59.8203Z" fill="#0C213C"/>
<path d="M31.5195 59.2734L31.5966 59.3514H31.5195V59.2734Z" fill="#0C213C"/>
<path d="M31.1758 58.7695L31.2528 58.8475H31.1758V58.7695Z" fill="#0C213C"/>
<path d="M56.3672 47.9297H56.4442L56.4057 48.0077L56.3672 47.9297Z" fill="#0C213C"/>
<path d="M27.9219 45.2422L27.9989 45.2812L27.9219 45.3202V45.2422Z" fill="#0C213C"/>
<path d="M55.2188 44.9688L55.2958 45.0467H55.2188V44.9688Z" fill="#0C213C"/>
<path d="M54.1484 39.7031L54.2255 39.7421L54.1484 39.7811V39.7031Z" fill="#0C213C"/>
<path d="M51.3516 39.3945L51.4286 39.4725H51.3516V39.3945Z" fill="#0C213C"/>
<path d="M53.3047 38.1445L53.3817 38.2225H53.3047V38.1445Z" fill="#0C213C"/>
<path d="M33.2031 36.8594H33.2802L33.2417 36.9373L33.2031 36.8594Z" fill="#0C213C"/>
<path d="M35.5 35.9219L35.5771 35.9998H35.5V35.9219Z" fill="#0C213C"/>
<path d="M32.3633 13.6641L32.4403 13.742H32.3633V13.6641Z" fill="#0C213C"/>
</svg>
