<svg width="105" height="107" viewBox="0 0 105 107" fill="none" xmlns="http://www.w3.org/2000/svg">
<g clip-path="url(#clip0_780_1908)">
<path d="M26.4532 31L26.86 31.2058L27.3177 31.5658L28.2332 32.0802L29.0469 32.4917L29.6571 32.7489L31.132 33.1604L34.1834 33.7777L36.1159 34.1378L36.5736 34.2921L36.5228 34.6521L34.9971 36.9669L33.7765 38.7158L33.268 39.4874L32.5051 40.6705L32.0474 41.4935L31.6406 42.1622L31.0811 43.2424L30.7251 44.3226L30.5726 45.0942L30.5217 45.66V46.4831L30.6743 47.2032L31.0303 47.9233L31.4371 48.4377L31.844 48.7978L32.4034 49.1064L32.9628 49.3122L33.5222 49.4151L34.6411 49.4665L35.8617 49.3636L37.3365 49.055L38.0993 48.8492L39.5742 48.1805L40.3879 47.769L41.5576 47.1003L42.3713 46.4831L43.185 45.8144L43.6936 45.4028L44.3038 44.837L45.677 43.4482L46.033 43.0367L46.4907 42.5223L47.101 41.6993L47.5078 41.3392L48.2198 41.0306L49.6946 40.5676L50.6609 40.259L51.1186 40.2075L51.9323 40.4133L55.1872 42.0593L55.8991 42.4708L56.8146 42.9852L58.1368 43.7054L58.7471 44.0654L59.866 44.6827L60.7814 45.1971L61.3408 45.5572L62.4088 46.2259L63.1208 46.6888L63.9345 47.1518L65.2568 47.9748L66.0196 48.5406L66.9859 49.1579L67.7487 49.6723L69.1727 50.6496L70.3424 51.4726L71.563 52.2956L72.1224 52.7071L73.1395 53.4273L74.2075 54.2503L74.9195 54.7647L75.6824 55.3305L76.5469 55.9478L77.564 56.6679L79.8017 58.3654L81.3274 59.5485L81.9886 60.1143L82.3954 60.4744L82.904 60.9373L83.4634 61.4003L84.2263 62.1204L84.7348 62.7377L85.04 63.355L85.2434 64.0751V64.8467L85.1417 65.4639L84.8365 66.287L84.4805 66.9042L84.0737 67.4186L83.6668 67.6758L83.0057 67.8816L81.7851 68.0873L81.0223 68.1388L80.7172 68.0873L80.3103 68.0359L79.5475 67.7272L78.6829 67.2643L77.7166 66.647L76.7503 66.0812L75.5298 65.4125L74.3092 64.6409L73.1395 63.9208L72.1733 63.355L69.9356 62.0175L68.6133 61.1945L67.5453 60.5258L66.6299 60.0114L65.6636 59.4971L64.7482 58.9827L63.9345 58.5197L63.1716 58.2111L62.8156 58.1082H62.5105L62.3579 58.4168L62.2562 58.9312V59.3942L62.5105 59.9086L63.3242 60.4229L63.9345 60.8345L64.799 61.4003L65.9688 62.1719L67.291 62.9434L68.1047 63.4064L69.071 64.0237L69.783 64.4352L70.7493 65.0524L72.7835 66.287L73.4447 66.6985L74.8687 67.5215L75.7332 68.0359L76.6995 68.6017L77.4115 69.0647L77.7675 69.4247L78.0218 69.8362L78.1235 70.2477V71.0708L77.9709 71.8423L77.5132 72.7168L77.0555 73.3341L76.5978 73.7456L75.8349 74.1056L74.5635 74.4143H73.2921L72.3767 74.2085L71.4613 73.797L70.2916 73.1797L69.1219 72.4596L68.003 71.7909L66.8333 71.1222L65.511 70.3506L64.6465 69.8362L63.4768 69.1161L62.6122 68.6017L61.3917 67.933L60.5271 67.4701L59.7134 66.9557L59.0014 66.5956L58.3911 66.3898L57.8826 67.4701V67.9844L58.2385 68.4988L58.9505 69.0132L59.9168 69.6305L61.2899 70.4535L62.1036 70.9679L63.2733 71.6366L64.1379 72.151L65.2059 72.7682L66.4773 73.4884L66.9859 73.797L67.9013 74.3114L68.9693 74.9801L69.9864 75.6488L70.7493 76.2146L71.0544 76.5233L71.1053 76.6776V77.192L70.9527 77.8092L70.6984 78.4265L70.3424 79.0438L69.7321 79.7125L69.2744 80.0725L68.6641 80.2783L68.003 80.3812H66.7316L65.6128 80.2269L64.2905 79.8153L62.8156 79.1981L61.0865 78.3751L57.6283 76.6261L56.306 76.0603L55.4923 75.7002L55.0854 75.4945L54.4243 75.2887L54.17 75.2373H53.7123L53.5597 75.7517L53.3055 76.2661V76.6776L53.5597 76.9862L54.2209 77.3977L55.0346 77.8607L57.5774 79.0952L58.5437 79.5582L59.3065 79.9182L60.6797 80.5869L61.4934 80.9984L62.5105 81.4614L63.2225 81.77L63.4259 81.9758L63.3751 82.233L62.9174 83.1074L62.7648 83.6732H48.9827L49.1352 83.2103L49.4912 82.2844L49.9489 81.3071L50.2032 80.5355L50.3558 79.7639V78.6323L50.2032 77.8607L49.9489 77.0891L49.5929 76.4204L49.1352 75.7002L48.7284 75.1859L48.2707 74.6715L47.5078 74.1571L46.4907 73.6941L45.1175 73.2312L44.1513 73.0769L43.9478 72.974L43.897 72.8711V72.0995L43.9478 71.5337L43.8461 70.6078L43.5919 69.7334L43.185 68.9618L42.7273 68.3445L42.2696 67.8301V67.7272H42.1679L41.9644 67.4701L41.405 67.0071L40.5913 66.4927L39.7776 66.0812L38.9639 65.824L38.2011 65.6183L38.0485 65.4639L37.9468 65.1039V64.538L37.8451 63.4578L37.5399 62.3776L37.1331 61.606L36.4719 60.6801L36.0142 60.1658L35.5057 59.7028L34.6919 59.2399L33.4205 58.7255L32.7085 58.5712L31.5897 58.5197L30.7251 58.674L29.9114 59.0341L29.1486 59.4971L28.4874 60.0629L27.9789 60.6287L27.6229 61.0402L27.1143 61.606L26.86 61.9661H26.7583L25.8938 60.2172L25.4869 59.6514L24.9275 59.0855L24.2663 58.5712L23.4526 58.1082L22.6389 57.7996L21.9269 57.6453L21.0115 57.5938L20.0961 57.7481L19.3333 58.0053L18.5196 58.4168L17.8076 58.9312L17.1973 59.4456L16.9939 59.3942L16.6379 58.8283L16.1802 58.1596L15.4682 57.2337L14.807 56.4107L14.3493 55.8449L13.7899 55.2276L13.5865 55.0219V54.919L13.383 54.8161L13.2305 54.6618L13.2813 54.3017L13.9933 52.9129L14.4002 52.1928L15.0613 50.9582L15.519 50.1866L16.7396 48.0262L17.299 47.1003L17.9601 45.9172L18.6213 44.6827L18.8755 44.2198L19.6893 42.8309L20.2995 41.6993L20.8081 40.7734L21.4184 39.6417L22.1812 38.2529L22.6389 37.4813L23.0966 36.6583L23.7069 35.6295L24.4698 34.1892L25.0801 33.109L25.6395 32.1831L26.148 31.3086L26.4532 31Z" fill="#0C213C"/>
<path d="M54.7277 29.1484H58.9997L61.8985 29.3028L63.3733 29.5085L65.4584 29.8686L68.0013 30.383L69.8321 30.743L71.307 31.0517L72.9344 31.3089L74.4601 31.4117H75.884L76.8503 31.3089L78.1726 31.0002L78.3252 30.9488H79.0372L79.2914 31.1545L79.6983 31.8747L80.156 32.6977L80.868 33.9837L81.4783 35.0639L82.0377 36.0927L82.4445 36.8128L83.1565 38.0988L83.8685 39.3333L84.5805 40.6707L85.1908 41.8024L85.9028 43.0369L86.6148 44.3229L87.2759 45.5059L87.9879 46.7919L88.8016 48.2322L89.4628 49.3639L89.9205 50.1354L90.5307 51.2671L91.141 52.4502L91.6496 53.2732L91.8022 53.6847V53.9419L91.0902 54.662L90.7342 55.0735L89.4628 56.3595L89.0559 56.7196L88.4456 57.2854L87.1742 58.3142L86.3096 58.9315L85.5977 59.4973L85.2925 59.703L85.0891 59.6516L84.428 59.2401L83.7668 58.6743L83.1057 58.1599L82.3428 57.5426L81.3766 56.8225L80.5629 56.1538L79.1389 55.0221L77.308 53.6847L76.4943 53.1189L75.8332 52.6559L74.9178 51.9872L74.3075 51.5757L73.4429 50.9585L72.4258 50.1869L71.5104 49.5182L69.3235 48.0264L68.3573 47.3577L66.8316 46.329L66.1196 45.866L64.0853 44.5801L62.6105 43.7056L61.7968 43.2426L60.4745 42.4711L59.2539 41.7509L58.3894 41.288L57.2197 40.6193L55.8466 39.8991L55.0328 39.4362L54.2191 39.0247L52.9477 38.356L51.9815 37.8416L51.6255 37.6358L50.9643 37.5844L49.998 37.9445L47.3026 38.8704L46.3364 39.2304L45.8787 39.4876L45.421 40.0534L45.0141 40.5678L44.709 41.0822L44.1495 41.7509L43.5901 42.3682L43.0815 42.934L42.5221 43.397L41.9627 43.9628L41.5559 44.3229L40.6913 44.9916L40.2336 45.3002L39.0639 45.866L38.1993 46.2775L37.0805 46.689L35.9108 46.9462L34.6394 47.152H33.6731L33.4188 46.9977L33.1645 46.7919L32.9102 46.2261L32.8594 46.0203V45.5574L32.9611 44.9401L33.2662 44.0657L33.7748 43.0883L34.2834 42.2139L34.9954 41.0822L35.7073 40.002L36.3685 38.9218L37.1822 37.7387L37.6399 37.07L38.3519 36.0412L39.013 35.0639L39.725 34.0866L40.2336 33.4179L40.6913 32.7491L41.0473 32.2862L41.6067 31.6689L41.9627 31.3089L42.4713 31.0002L43.0815 30.743L44.709 30.3315L47.2518 29.8171L49.1335 29.5599L51.422 29.3028L53.3037 29.1999L54.7277 29.1484Z" fill="#0C213C"/>
<path d="M16.3307 23.4922H22.7895V23.9037L23.1963 24.1609L24.722 24.9325L25.6374 25.5497L26.146 25.8584L26.1968 26.167L25.7391 26.99L25.4849 27.5044L25.078 28.2245L24.5694 29.2019L23.3489 31.4652L22.8912 32.2368L22.1792 33.5742L21.6198 34.6544L21.1112 35.5803L20.5009 36.6605L19.9923 37.535L19.3821 38.718L19.0769 39.2324L18.5684 40.2098L17.9072 41.3929L17.3987 42.2673L16.7375 43.3475L16.229 44.2734L15.8221 44.9421L15.3135 45.868L14.6015 47.1026L13.8896 48.3885L13.1776 49.6231L12.7198 50.3946L12.0079 51.6806L11.4993 52.5551L10.7873 53.7382L10.4822 54.2525L9.87188 55.4356L9.41417 56.0015L9.10903 56.1558L7.83762 55.4871L6.61706 54.7669L5.3965 54.0982L4.68451 53.6867L3.81995 53.1209L2.90453 52.5036L1.93825 51.8349L1.5314 51.6292L1.42969 51.4748L1.5314 51.0119L1.78568 50.2918L2.90453 48.0285L3.41309 47.1026L4.12509 45.7652L4.83708 44.5306L5.44736 43.4504L5.95592 42.4731L6.5662 41.3414L7.07477 40.4155L7.83762 38.9752L8.34618 38.0493L9.05818 36.7119L9.71931 35.5288L10.2787 34.5001L11.0924 33.1112L11.7536 31.8767L12.3639 30.745L12.8724 29.8706L13.4827 28.8418L14.1947 27.5558L14.7541 26.5271L15.4661 25.2925L16.0764 24.1095L16.3307 23.4922Z" fill="#0C213C"/>
<path d="M82.5477 23.4922H88.8031L88.9048 23.9037L89.3625 24.6238L89.8711 25.3954L91.0916 27.6587L91.8545 28.8933L92.4139 29.8191L93.0242 30.9508L93.431 31.7224L94.0922 32.8026L94.6007 33.6771L95.3127 35.0659L95.9739 36.249L96.6858 37.535L97.2961 38.718L98.1607 40.1583L98.6693 41.0842L99.5338 42.8331L100.144 43.8619L100.754 44.8393L101.466 46.1767L102.128 47.4626L102.636 48.44L103.145 49.3659L103.755 50.4975L104.009 51.0633V51.3205L103.704 51.5777L102.89 52.1436L102.229 52.6579L101.314 53.2238L100.602 53.6867L99.1778 54.4583L98.3641 54.9727L97.3978 55.4871L96.5333 56.0015L96.279 56.1558L96.0756 56.0529L95.7196 55.7443L95.2619 54.9212L94.4482 53.4295L93.9396 52.6579L93.1259 51.3205L92.4647 50.086L92.007 49.3144L91.3459 48.1828L90.8373 47.2569L90.1253 45.9195L89.7185 45.2508L89.0065 44.0162L88.3454 42.7817L87.8368 41.9587L87.1757 40.7756L86.718 39.9526L86.2094 38.8724L85.4974 37.6378L84.938 36.6605L84.3277 35.5803L83.9208 34.8087L83.4123 33.8828L82.9037 32.9055L82.4969 32.0825L82.1917 31.5681L81.5814 30.5907L80.8694 29.2019L80.0557 27.453L79.3438 26.167L79.3946 25.8584L80.31 25.2411L81.022 24.6753L81.5814 24.4181L82.09 24.2123L82.4969 23.8523L82.5477 23.4922Z" fill="#0C213C"/>
<path d="M31.435 60.9375H32.2487L33.2658 61.1947L34.0795 61.6062L34.5881 62.0177L35.0967 62.635L35.4527 63.2522L35.6561 63.9209L35.7069 64.1267V65.104L35.5544 65.6184L35.1475 66.4414L34.6389 67.1616L34.0795 67.9846L33.6218 68.6019L33.0115 69.4763L32.5538 70.0936L32.1978 70.6594L31.791 71.1738L31.3841 71.7396L30.7738 72.5627L30.2144 73.3857L29.5024 74.3116L28.943 75.0317L28.587 75.3918L28.231 75.8033L28.0784 76.009H27.9767L27.9259 76.1634L27.3665 76.5234L27.1122 76.6263L26.5019 76.7292L26.2476 76.6777L25.739 76.6263L25.0271 76.4206L24.2642 76.009L23.6031 75.3403L23.0945 74.6202L22.7385 73.7972L22.5859 73.1285V72.6655L22.8911 71.7396L23.1962 71.1738L23.9082 70.1965L24.4168 69.3735L24.9253 68.6019L25.4339 67.9332L26.1459 67.0073L26.7562 66.1328L27.2139 65.5155L27.7225 64.8468L28.3327 63.9724L28.943 63.2008L29.4516 62.4807L29.9093 61.9148L30.3161 61.5033L31.0281 61.0404L31.435 60.9375Z" fill="#0C213C"/>
<path d="M37.589 67.9844L38.2502 68.0873L39.0639 68.293L39.725 68.5502L40.3862 69.0646L40.7422 69.4247L41.149 69.939L41.4541 70.402L41.6576 70.9164L41.7084 71.2765V72.6653L41.5559 73.2826L41.2507 73.797L40.8439 74.3628L40.5387 74.8257L40.081 75.443L39.6742 76.0088L39.0639 76.8318L38.5553 77.6034L37.8433 78.5293L37.5382 78.9923L36.9788 79.6095L36.4702 80.2268L36.1142 80.6897L35.6056 81.307L34.9954 81.77L34.3851 82.0271L33.9274 81.9757L33.8257 82.0271L32.9102 81.77L32.1474 81.3584L31.6388 80.9469L30.9268 80.2268L30.4183 79.4038L30.2657 78.9408L30.2148 78.4264V77.7063L30.52 76.8833L30.876 76.266L31.3845 75.5459L32.0457 74.5685L32.4017 74.1056L32.9102 73.3854L33.368 72.7682L34.0799 71.8937L34.4868 71.3279L34.9445 70.7106L35.6056 69.8876L36.1651 69.2189L36.6228 68.6531L37.0296 68.2416L37.3856 68.0358L37.589 67.9844Z" fill="#0C213C"/>
<path d="M43.7424 75.4961H44.5561L45.5223 75.7018L46.336 76.1134L46.7938 76.4734L47.2515 76.9364L47.76 77.708L48.0143 78.3252L48.116 78.6853V79.5083L47.9635 80.1256L47.5566 80.9486L47.1498 81.5144L46.8446 82.0288L46.3869 82.5432L46.0818 82.9033L45.8783 83.4691L45.8275 83.6748H38.4024V82.749L38.3516 82.3889L38.4533 81.9774L38.8601 81.1544L39.267 80.5371L39.5721 80.1256L40.5893 78.6853L40.9961 78.1195L41.7081 77.1421L42.2675 76.422L42.8269 75.9076L43.4372 75.5475L43.7424 75.4961Z" fill="#0C213C"/>
<path d="M20.7055 59.9609H21.4684L22.2312 60.1153L22.8415 60.3724L23.3501 60.6811L23.8587 61.144L24.1638 61.5041L24.5706 62.2242L24.8249 62.9444L24.8758 63.1501L24.9266 64.1275L24.6724 65.0019L24.1638 65.825L23.7569 66.4422L23.3501 66.9566L22.7907 67.6253L22.0278 68.4483L21.5193 68.9627L20.8073 69.4257L20.6038 69.5285L20.4004 69.4771L20.2987 69.4257L20.2478 69.58L20.0444 69.5285L19.129 69.2199L18.417 68.8084L17.7559 68.294L17.349 67.8825L16.8913 67.2652L16.5862 66.648L16.4845 66.2879L16.4336 65.6192L16.5353 64.9505L16.7896 64.2818L17.1456 63.6645L17.7559 62.7386L18.3661 61.8642L18.9256 61.1955L19.485 60.6296L20.1461 60.1667L20.7055 59.9609Z" fill="#0C213C"/>
<path d="M1.17578 51.2188L1.32828 51.2702H1.17578V51.2188Z" fill="#3F3F3F"/>
</g>
<defs>
<clipPath id="clip0_780_1908">
<rect x="0.71875" y="0.910156" width="104.154" height="105.346" rx="10" fill="white"/>
</clipPath>
</defs>
</svg>
