<svg width="104" height="111" viewBox="0 0 104 111" fill="#0C213C" xmlns="http://www.w3.org/2000/svg">
<path d="M27.0498 23.8242H54.9922L56.4952 23.8789L57.52 24.0428L58.4765 24.3707L59.6379 24.9172L60.8676 25.6823L61.3459 26.0649L61.8924 26.4474L62.5073 26.9393L62.9855 27.3765L63.4637 27.759L63.942 28.1962L65.9915 29.945L71.2521 34.153L71.7303 34.5902L73.4383 35.9565L74.0532 36.5576L74.8047 37.3227L75.4195 38.1425L75.7611 38.9622L75.8294 39.3994L75.8978 40.7657V50.1108L75.8294 52.0782L75.5562 52.1328L73.9848 51.8049L72.4818 51.641L71.5937 51.5863H68.1777L65.7183 51.8049L64.0103 52.0782L62.439 52.4061L60.9359 52.8433L59.5013 53.3351L57.5883 54.1002L56.8368 54.4828L56.0853 54.92L55.1288 55.5211L54.0357 56.2316L53.3526 56.7234L52.2595 57.5432L51.0297 58.5268L50.1416 59.4559L49.3901 60.2756L48.5702 61.5326L48.092 62.2977L47.3405 63.6639L46.7256 64.9755L46.1791 66.4511L45.8375 67.708L45.5642 69.4022L45.4959 70.1673V72.2986L45.7009 74.1567L45.9741 75.4683L46.4524 76.9438L46.9989 78.3647L48.0237 80.3321L48.8435 81.5891L49.8683 82.846L50.5515 83.6111L51.303 84.3762L52.1228 85.0867L52.3278 85.2506V85.3599H52.4644L53.4209 86.125L54.1724 86.6168L55.0605 87.218L56.3586 87.9831L58.0666 88.8028L59.4329 89.404L60.0478 89.7865V89.8412H53.9674L43.8562 89.8958H36.6828L27.5281 89.8412L26.0934 89.7319L24.8636 89.5133L23.4972 88.9668L22.5408 88.3656L21.6526 87.7098L20.9011 86.9994L20.2863 86.2343L19.6031 85.196L19.1932 84.2669L19.0565 83.6111L18.9882 83.01L18.9199 80.824L18.8516 76.7252V58.2536L18.9199 46.1213L18.9882 30.3822L19.1932 29.1799L19.6714 28.0869L20.3546 27.0486L21.0378 26.2835L21.721 25.6823L22.6774 25.0812L23.7705 24.5893L25.0686 24.0975L26.2983 23.8789L27.0498 23.8242ZM54.9922 26.8846L54.4457 27.0486L54.1041 27.3218L53.8308 27.8683L53.7625 28.1962L53.6942 29.6717L53.6258 32.2949V37.3227L53.7625 38.7436L53.9674 39.5087L54.309 40.2192L54.7873 40.875L55.5388 41.6401L56.222 42.1319L57.0418 42.5145L57.6566 42.6784L58.7497 42.7877L60.2528 42.8424H70.159L72.1402 42.7877L72.6868 42.5691L72.9601 42.2412L73.2333 41.5308L73.3017 41.2575V40.3831L73.0284 40.0552L72.8234 39.9459L72.4135 39.8913H61.0726L59.7745 39.8366L58.9547 39.6727L58.3398 39.3448L57.725 38.7983L57.1784 37.9239L57.0418 37.3774L56.9735 36.1204V27.923L56.7002 27.3765L56.3586 27.1032L55.7437 26.8846H54.9922ZM30.4658 30.4368L29.9192 30.4915L29.7826 30.6008L29.7143 30.9833V32.3496L29.8509 32.6775L30.1925 32.7868L30.8074 32.8414H39.7571L40.8502 32.7321L41.1235 32.5682L41.2601 31.8577L41.3284 30.7647L41.1918 30.4915L40.372 30.4368H30.4658ZM29.9192 36.7216L28.5528 36.7762L28.2112 36.9402L28.0063 37.3227L27.8696 37.9785V38.9622L28.0746 39.2355L28.2796 39.2901L29.1677 39.3448L36.8194 39.3994H43.1047L48.2286 39.3448L49.2534 39.1808L49.4584 38.9622V37.6506L49.1851 37.1041L48.9118 36.8855L48.7069 36.8309L47.2722 36.7762L29.9192 36.7216ZM47.6821 45.1376L34.4966 45.1923L28.8944 45.2469L27.8696 45.3016L27.8013 45.3562V46.4492L27.8696 47.2143L28.0746 47.6515L28.4162 47.8155L28.7578 47.8701H54.309L64.3519 47.8155L65.24 47.6515L65.5133 47.4329V45.5202L65.3083 45.2469L63.6687 45.1923L56.4269 45.1376H47.6821ZM36.6828 51.8596L30.4658 51.9142L29.8509 51.9689L29.5776 52.1328V52.8433L29.7826 53.9363L29.9875 54.2095L30.6707 54.3188H35.5214L48.9118 54.2095L50.6198 54.1549L51.3713 53.9363L51.8495 53.4991L51.9179 53.2805V52.6247L51.6446 52.2968L51.303 52.0782L50.7564 51.9689L49.1168 51.9142L43.378 51.8596H36.6828ZM28.3479 58.1989L27.8696 58.3082L27.8013 58.4722L27.733 59.2919V59.9477L27.938 60.4942L28.1429 60.6582L28.4845 60.7128L29.8509 60.7675H31.7638L37.0927 60.7128L44.8127 60.6582L45.4276 60.5489L45.7692 60.3303L46.3157 59.5652L46.8623 58.8547L47.2722 58.3629V58.1989H28.3479ZM31.2856 64.8116L30.3291 64.8662L29.9875 64.9755L29.7143 65.2488L29.5776 65.7406V66.5057L29.8509 66.9429L30.2608 67.1615L31.2173 67.2708H39.4838L42.2849 67.2162L42.4899 67.0522L42.9681 65.4127L43.1731 64.9755L43.1047 64.9209L42.2166 64.8662L34.6332 64.8116H31.2856ZM32.9936 72.4625L31.5589 72.5172L30.6024 72.6811L29.9192 72.9544L29.236 73.4462L28.7578 73.9927L28.6212 74.4299L28.5528 76.0148V79.567L28.6212 80.9333L28.7578 81.8623L29.0311 82.5728L29.5093 83.1739L30.1925 83.7204L30.739 83.939L31.6955 84.0483H39.6205L40.5769 83.9937L41.3284 83.8297L41.875 83.6111L42.3532 83.2832L42.7631 82.7367L42.8998 82.4635L43.0364 81.6437V76.0694L42.9681 74.102L42.4899 73.4462L42.1483 73.1183L41.4651 72.7358L40.9185 72.5718L40.3037 72.5172L38.3907 72.4625H32.9936Z" />
<path d="M69.066 54.1016H70.9106L72.8918 54.2109L74.1899 54.3748L75.8978 54.7574L77.6058 55.3039L79.1088 55.8504L80.9534 56.7248L82.0465 57.3259L83.1396 57.9817L83.8911 58.4735L84.9842 59.2933L85.6674 59.8944L86.4189 60.6595L87.1021 61.4246L87.922 62.5176L88.5368 63.4467L89.2883 64.9222L90.0398 66.7803L90.4497 68.1466L90.723 69.7861L90.7913 70.4419V72.4093L90.5864 73.8848L90.2448 75.1964L89.1517 77.7649L88.3319 79.3498L87.717 80.2242L86.8972 81.2079L86.2823 81.8637L85.5308 82.5741L85.0526 83.0113L84.0961 83.8311L83.1396 84.5962L82.3881 85.088L81.4317 85.6892L79.997 86.345L78.1524 87.0554L76.3761 87.6019L74.9414 87.9298L73.0284 88.2577L71.7304 88.4216L70.9789 88.4763H68.1778L66.8114 88.367L65.5817 88.203L64.0104 87.8751L62.2341 87.3833L59.9112 86.5089L58.4082 85.8531L57.5884 85.4159L56.7003 84.8694L55.6755 84.1043L54.8556 83.4485L54.3774 83.0113L53.5576 82.2462L52.6694 81.3172L51.8496 80.3881L51.1664 79.5684L50.6199 78.694L50.1416 77.8742L49.5951 76.7266L48.9802 75.0324L48.707 73.7755L48.5703 72.6278V69.7861L48.7753 68.3652L49.1169 67.2175L49.6634 65.8513L50.2783 64.5397L50.8932 63.4467L51.7813 62.1897L52.3962 61.4246L53.3526 60.3863L54.1041 59.7305L54.2408 59.5665H54.3774L54.514 59.3479L55.8121 58.3096L56.7686 57.7085L57.7934 57.1073L59.0914 56.4515L60.6627 55.7411L62.7123 55.0306L64.6252 54.5388L66.3332 54.2655L67.7679 54.1562L69.066 54.1016ZM62.644 61.206L61.5509 61.3153L61.141 61.4793L60.936 62.0258V62.7909L61.141 63.5013L61.5509 63.8839L61.7558 63.9385L62.644 63.9932L66.8798 64.0478L68.3828 64.1571L69.2709 64.3757L70.0224 64.7036L70.6373 65.0862L71.2522 65.578L71.5938 66.0152L71.6621 66.1792H68.7927L62.5074 66.2885L61.4826 66.3431L61.141 66.5071L60.936 66.8896L60.8677 67.3268V67.8187L61.0727 68.4745L61.4826 68.7477L62.0291 68.857L69.4759 68.9663L71.7304 69.021L71.4571 69.4035L70.9789 69.7861L70.569 70.1686L69.8175 70.6605L69.1343 71.043L68.3144 71.2616L67.358 71.3709L65.3767 71.4802L63.3955 71.5349L62.3707 71.5895L61.6875 71.7535L61.141 72.0814L60.7311 72.5186L60.5944 72.7372L60.6627 73.229L61.141 73.9394L61.7558 74.5406L62.2341 74.9778L64.6936 76.9452L65.1718 77.3824L65.9233 78.0382L66.5382 78.6393L67.0847 79.0765L67.5629 79.5137L68.656 80.4428L69.2709 80.9893L70.0224 81.5358L70.5007 81.973L71.2522 82.5741L71.867 82.902L72.6869 83.0113H73.2334L74.3948 82.7381L74.9414 82.4102L75.078 82.0823L74.8047 81.6451L73.575 80.5521L72.8235 79.8963L72.3453 79.4591L71.5254 78.694L70.8422 78.0928L70.364 77.6556L69.5442 76.9452L66.3332 74.3766L66.0599 74.0487H68.0412L68.9293 73.9394L70.1591 73.6115L71.2522 73.1743L72.2769 72.6278L72.9601 72.136L73.9849 71.3709L74.8047 70.6605L75.2146 70.114L75.4879 69.7314L75.6929 69.021H76.786L77.8108 68.9117L78.6989 68.6384L79.2455 68.2559L79.4504 67.764V67.2175L79.1088 66.671L78.8355 66.5071L78.084 66.3431L76.2394 66.1792L75.7612 65.9606L75.4196 65.6327L75.0097 65.0315L74.1899 63.9932V63.8839L75.0097 63.9932H77.1276L78.084 63.9385L78.8355 63.7199L79.1771 63.392L79.3821 62.6269V61.9711L79.2455 61.5339L79.0405 61.37L78.289 61.2607L77.2642 61.206H62.644Z" />
<path d="M31.6991 75.0312H40.034L40.1024 75.1405L40.1707 81.2613L40.034 81.4799L39.4192 81.5346H31.9724L31.6308 81.2613L31.5625 81.0974V77.7637L31.6308 75.0859L31.6991 75.0312Z" />
<path d="M84.5719 38.7422L85.0501 39.0701L85.5283 39.5619L86.2115 40.0538L87.5096 40.6549L88.1244 41.1468L88.3294 41.3654L88.2611 41.7479L87.8512 42.2398L87.0997 42.8409L86.4848 43.0595L85.665 43.2781L85.46 43.606L85.0501 44.0979L84.7085 44.2618L84.3669 44.2072L83.752 43.77L83.4788 43.4421L82.3857 43.0049L81.5658 42.6223L81.1559 42.3491L80.6777 41.8572L80.6094 41.584L80.951 41.1468L81.4975 40.7096L82.454 40.2177L83.2055 39.7259L83.5471 39.5073L84.0253 39.0701L84.3669 38.7968L84.5719 38.7422Z" />
<path d="M88.539 46.6133H88.9489L89.2905 46.8865L89.7688 48.0342L90.042 48.3621L90.7252 48.6353L91.955 48.9632L92.2966 49.2365L92.3649 49.5097L92.1599 49.8376L90.8619 50.3841L90.1787 50.6574L89.9054 50.9306L89.2222 52.2969L88.9489 52.5701L88.6757 52.4608L88.3341 52.1329L87.5142 50.9853L86.8994 50.5481L85.8746 50.0016L85.3964 49.7283L85.1914 49.4004L85.533 49.1272L86.8311 48.69L87.241 48.4714H87.3776L87.8558 47.7063L88.1291 47.0505L88.4024 46.7226L88.539 46.6133Z" />
<path d="M82.5955 20.9805L82.9371 21.0351L83.2103 21.3084L83.347 21.6363L83.5519 22.5107L83.8252 22.9479L84.5084 23.2211L85.2599 23.4944L85.9431 23.713L86.2847 23.9316L86.353 24.3141L86.0114 24.5874L85.3965 24.7513L84.7817 24.8606L84.1668 25.1885L83.8935 25.4618L83.4153 26.2815L83.0737 26.9919L82.8004 27.2652L82.5271 27.2105L82.1856 26.6094L81.7756 25.6804L81.434 25.2978L80.5459 24.9153L79.3162 24.5874L78.9062 24.3688V24.0955L79.3845 23.7676L80.2043 23.3851L81.0925 23.1118L81.5024 22.8386L82.0489 21.9642L82.1856 21.2537L82.4588 21.0351L82.5955 20.9805Z" />
<path d="M9.83598 56.3945L10.1776 56.5038L10.5875 56.8864L11.339 58.1433L11.9539 58.4712L13.047 58.8538L13.7302 59.0724L13.9351 59.2363L13.7985 59.4549L12.6371 60.0014L11.8172 60.4933L11.544 60.6026L11.4073 60.8212L10.9291 61.313L10.3825 62.1874L10.1093 62.57L9.9043 62.5153L9.56271 62.0235L9.22111 61.1491L8.94784 60.7119L8.40129 60.3293L7.7181 60.0561L6.82996 59.6189L6.625 59.4003L6.76164 59.1817L7.10323 58.9631L8.60625 58.5805L8.87952 58.3073L9.28943 57.5422L9.56271 56.6678L9.83598 56.3945Z" />
<path d="M75.3506 26.9922H76.1021L76.9219 27.2654L77.4002 27.5933L77.7417 28.0305L77.8784 28.577V29.1235L77.5368 29.67L76.9902 30.1619L76.3071 30.4898L75.5555 30.5991L75.1456 30.4351L74.3941 29.9433L73.9842 29.5061L73.7109 29.0142V28.4131L73.9842 27.8119L74.5991 27.2654L75.1456 27.0468L75.3506 26.9922Z" />
<path d="M81.0266 30.8203L81.4365 30.875L81.9831 31.1482L82.4613 31.5854L82.5979 31.804V32.2959L82.188 32.897L81.8464 33.2249L81.4365 33.4435H81.0949L80.2751 32.9517L79.8652 32.5145L79.7969 32.2412L79.9335 31.7494L80.4801 31.2029L80.8217 30.875L81.0266 30.8203Z" />
<path d="M71.3901 23.6055H72.0049L72.6881 23.8241L73.0297 24.2613L73.098 24.4252V25.2996L72.8248 25.6275L72.4148 25.7368H71.2534L70.7069 25.5182L70.4336 25.245V24.8078L70.5702 24.2066L71.1168 23.7148L71.3901 23.6055Z" />
<path d="M13.1829 73.4453H13.9344L14.3443 73.6093L14.5492 73.8825L14.6176 74.1558V74.6476L14.4809 75.0848L14.2076 75.2488L13.5928 75.3581H12.773L12.363 75.1941L12.0898 74.9209L11.9531 74.7023V74.0465L12.2264 73.8279L13.1829 73.4453Z" />
<path d="M13.0481 51.7539L13.5947 51.8086L14.0729 51.9725L14.2779 52.1365L14.3462 52.3004V53.0655L14.0729 53.3934L13.7996 53.5573L13.5947 53.612H12.7065L12.2283 53.3934L11.955 53.0109L11.8867 52.9016V52.519L12.16 52.1911L12.7065 51.8632L13.0481 51.7539Z" />
<path d="M11.4781 67.9297H12.3662L12.7078 68.0936L12.9128 68.3122L12.9811 68.5308V69.1866L12.7761 69.5145L12.4345 69.7331L11.9563 69.7878L11.3414 69.6238L10.9998 69.3506L10.7266 68.9134V68.4762L10.9998 68.0936L11.4781 67.9297Z" />
</svg>
