<svg width="90" height="76" viewBox="0 0 90 76" fill="none" xmlns="http://www.w3.org/2000/svg">
<path d="M66.8613 1.03125H22.9115L0.957031 38.0153L22.9115 75.0202H66.8613L88.8157 38.0153L66.8613 1.03125ZM39.4508 8.90166H50.3011V48.6765H39.4508V8.90166ZM44.8862 62.7179C41.884 62.7179 39.4713 60.3487 39.4713 57.4454C39.4713 54.5416 41.9045 52.173 44.8862 52.173C47.8685 52.173 50.3011 54.5422 50.3011 57.4454C50.3011 60.3487 47.8876 62.7179 44.8862 62.7179Z" fill="#0D213D"/>
<path d="M44.8859 61.7618C42.4527 61.7047 40.4516 59.851 40.4516 57.4441C40.4516 55.0941 42.4726 53.1265 44.8859 53.1265C47.2993 53.1265 49.3202 55.0943 49.3202 57.4441C49.3195 59.8326 47.2985 61.7049 44.8859 61.7618C43.6301 61.8003 43.6301 63.7102 44.8859 63.6725C47.574 63.6155 49.9478 62.0484 50.8895 59.5845C51.8311 57.1391 51.0074 54.2929 48.9271 52.6309C46.8865 51.0068 43.9238 50.7587 41.648 52.0577C39.3129 53.3952 38.1362 56.031 38.5872 58.5913C39.1166 61.5522 41.8639 63.5962 44.8653 63.654C46.1416 63.6911 46.1417 61.781 44.8859 61.7618Z" fill="#0D213D"/>
<path d="M39.4499 9.85608H50.3002C49.9663 9.53096 49.6529 9.22583 49.319 8.90069V22.3114V43.726V48.674L50.3002 47.7187H39.4499C39.7838 48.0438 40.0972 48.3489 40.4311 48.674V35.2633V13.8487V8.90069C40.4311 7.67797 38.4688 7.67797 38.4688 8.90069V22.3114V43.726V48.674C38.4688 49.1895 38.9198 49.6294 39.45 49.6294H50.3002C50.8296 49.6294 51.2814 49.1903 51.2814 48.674V35.2633V13.8487V8.90069C51.2814 8.38523 50.8304 7.94531 50.3002 7.94531H39.45C38.1752 7.94531 38.1751 9.85608 39.4499 9.85608Z" fill="#0D213D"/>
<path d="M66.8602 0.0763642H51.8509H28.1109C26.4238 0.0763642 24.6379 -0.0954552 22.9707 0.0763642C22.2839 0.152645 22.0876 0.554047 21.7933 1.05099C21.3422 1.79604 20.9102 2.54109 20.4592 3.28611C16.6918 9.62859 12.9253 15.9904 9.15792 22.3327C6.19529 27.3192 3.11485 32.2479 0.270016 37.2913C0.230463 37.3675 0.171898 37.4631 0.132347 37.5394C-0.0441158 37.8452 -0.0441158 38.2081 0.132347 38.4947C4.80168 46.3466 9.45213 54.1984 14.1217 62.0499C16.5153 66.1002 18.9289 70.1306 21.3223 74.1808C21.7346 74.8689 22.0875 75.8813 23.0094 75.9575C24.0887 76.0531 25.2266 75.9575 26.3249 75.9575H60.4628H65.8388C66.6625 75.9575 67.3494 76.0723 67.8598 75.2888C69.8412 72.1745 71.6461 68.9078 73.5301 65.7365C78.808 56.8345 84.1057 47.9317 89.3829 39.0114C89.481 38.8395 89.5989 38.6485 89.6971 38.4766C89.8735 38.1708 89.8735 37.8079 89.6971 37.5213C87.2251 33.3568 84.753 29.1917 82.2802 25.0274C78.3364 18.3791 74.3926 11.75 70.4496 5.10301C69.5467 3.57441 68.6249 2.04657 67.722 0.517872C67.0944 -0.55229 65.3869 0.422335 66.0349 1.47326C68.5068 5.63768 70.979 9.80286 73.4517 13.9671C77.3955 20.6154 81.3394 27.2445 85.2824 33.8915C86.1852 35.4201 87.1071 36.948 88.01 38.4766V37.5213C85.5381 41.6857 83.0659 45.8509 80.5932 50.0151C76.6494 56.6634 72.7056 63.2926 68.7625 69.9395C67.8597 71.4681 66.9378 72.996 66.0349 74.5247C66.3095 74.3721 66.6039 74.1995 66.8784 74.047H52.0456H28.4029H22.9485C23.2231 74.1995 23.5174 74.3721 23.792 74.5247C21.3201 70.3602 18.8479 66.195 16.3752 62.0308C12.4131 55.4202 8.46925 48.7718 4.52563 42.1443C3.62278 40.6157 2.70091 39.0879 1.79802 37.5592V38.5146C4.26997 34.3501 6.74211 30.185 9.21483 26.0207C13.1586 19.3724 17.1025 12.7433 21.0455 6.09631C21.9484 4.56771 22.8702 3.03987 23.7731 1.51117C23.4985 1.66374 23.2042 1.83629 22.9296 1.98886H37.7624H61.4051H66.8595C68.1153 1.98811 68.1153 0.0781289 66.8595 0.0781289L66.8602 0.0763642Z" fill="#0D213D"/>
</svg>
