<svg width="85" height="70" viewBox="0 0 85 70" fill="none" xmlns="http://www.w3.org/2000/svg">
<path fill-rule="evenodd" clip-rule="evenodd" d="M21.6153 59.0396C21.3273 58.9345 21.0178 58.8798 20.7049 58.881C20.5324 58.8804 20.3605 58.8969 20.1926 58.9298L7.9022 61.3019L12.1353 56.5035C12.8973 55.6405 12.7644 54.4092 11.8312 53.6867C5.23891 48.5811 1.0816 41.4939 0.183209 33.8306C-0.715113 26.1678 1.71195 18.4893 6.98293 12.3188C12.2533 6.14929 19.9823 1.9388 28.6357 0.523025C37.2893 -0.892768 46.234 0.589996 53.6968 4.67696C61.1593 8.76398 66.5921 15.1562 68.9191 22.5855C71.2454 30.0151 70.2948 37.9374 66.2557 44.7816C62.2167 51.6259 55.3846 56.8915 47.1157 59.534C38.8463 62.1758 29.7443 62.0008 21.6146 59.0435L21.6153 59.0396ZM83.315 46.8093C84.5315 42.3434 84.2966 37.669 82.6376 33.3135C80.9779 28.9581 77.9607 25.0954 73.9256 22.1611C76.4164 30.9655 74.9011 40.2727 69.6998 48.1186C64.4986 55.9647 56.0177 61.736 46.0464 64.2149C47.1461 64.5744 48.2713 64.8728 49.4134 65.1102C53.0214 65.8633 56.7639 65.9826 60.4241 65.4603C60.9055 65.3922 61.399 65.4544 61.8387 65.6389L69.9418 69.0627L68.1216 65.5572C67.6053 64.5609 68.0619 63.3848 69.1656 62.8708C72.6897 61.2242 75.774 58.94 78.2133 56.1713C80.653 53.4021 82.3919 50.2109 83.3145 46.8095L83.315 46.8093Z" fill="#0D213D"/>
</svg>
