<svg width="74" height="74" viewBox="0 0 74 74" fill="none" xmlns="http://www.w3.org/2000/svg">
<path fill-rule="evenodd" clip-rule="evenodd" d="M20.4375 71.5472C27.5077 74.8061 52.6246 74.3361 62.4699 64.9998C79.4164 48.9546 75.6643 22.1635 55.2601 10.6836C51.6162 15.9831 47.8024 22.1046 43.9419 27.1547C49.8026 27.1104 56.4543 27.6536 62.3919 27.889C48.4065 42.4369 34.4215 56.9995 20.452 71.5468L20.4375 71.5472Z" fill="#0D213D"/>
<path fill-rule="evenodd" clip-rule="evenodd" d="M10.3417 16.3644C3.93851 22.6033 0 31.1174 0 40.4979C0 51.1264 6.68219 64.7049 16.8842 69.6959C21.9847 60.2425 27.458 48.7771 33.0248 39.8215C28.1408 39.5869 22.5281 39.8215 17.567 39.8215C22.2335 31.3657 35.5214 5.85128 35.5214 5.86719C25.9856 6.13139 16.9932 9.87452 10.3411 16.3636L10.3417 16.3644Z" fill="#0D213D"/>
<path fill-rule="evenodd" clip-rule="evenodd" d="M36.7624 7.93832L19.9241 38.4731H33.0101H33.0257C33.1028 38.4731 33.1808 38.4731 33.2735 38.4879H33.2891C33.4286 38.5174 33.5681 38.561 33.6765 38.62C33.7233 38.6495 33.7848 38.6791 33.8316 38.7078C34.0023 38.8104 34.1262 38.9425 34.2346 39.1041V39.1189C34.3429 39.2953 34.4209 39.4857 34.4365 39.6916V39.7063V39.8384C34.4365 39.941 34.4209 40.0436 34.4053 40.1469C34.3741 40.2495 34.3429 40.352 34.2813 40.4554C34.2657 40.4997 34.2346 40.5284 34.219 40.558L18.7923 69.1115C18.7767 69.1558 18.7455 69.1846 18.7299 69.2141L16.1406 74L20.2802 69.6991C20.3114 69.6548 20.3573 69.6113 20.4041 69.5817L59.2745 29.1246L43.9873 28.5084H43.879C43.755 28.5084 43.6467 28.4788 43.522 28.4493H43.5064C43.3824 28.405 43.2741 28.3615 43.165 28.2877C43.1338 28.2582 43.0878 28.2434 43.0566 28.2146C42.8859 28.0973 42.762 27.9357 42.6692 27.7593V27.7445C42.5765 27.5829 42.5297 27.4065 42.5141 27.2161V27.084C42.5141 26.9519 42.5453 26.8346 42.5913 26.7025V26.6877C42.6225 26.5852 42.684 26.4966 42.7464 26.4088C42.762 26.3793 42.7932 26.3497 42.8088 26.321L53.2742 11.0683C53.2898 11.0388 53.321 11.0092 53.3366 10.9805L60.5923 0.411058L41.1647 0L36.9012 7.73635C36.87 7.8094 36.824 7.88321 36.7773 7.95626L36.7624 7.93832Z" fill="#0D213D"/>
</svg>
