<svg width="84" height="85" viewBox="0 0 84 85" fill="none" xmlns="http://www.w3.org/2000/svg">
<g clip-path="url(#clip0_780_1918)">
<path d="M19.3326 1.60547H27.5339L29.405 1.63701L30.8394 1.70009L31.7438 1.79471L32.1803 1.88934L32.4922 2.04704L32.7105 2.26783L32.9287 2.58324L33.0847 2.80402L33.2406 2.96173L33.4277 3.21405L33.7083 3.43484L33.9266 3.68717L34.0202 3.84487L34.1137 4.22336L34.2385 5.42191L34.3632 7.1882L34.3944 7.78748L34.4879 7.97672L34.8933 8.22905L35.3923 8.54446L35.7977 8.89141L36.1095 9.14373L36.5461 9.49068L36.9515 9.83763L37.2945 10.1215L37.7622 10.5315L38.2612 10.9416L39.2591 11.6985L39.6645 12.014L40.0699 12.3609L40.4129 12.6448L40.8183 12.9917L41.1301 13.244L41.5667 13.591L41.9097 13.8749L42.5022 14.3164L42.8452 14.6003L43.2818 14.9473L43.8119 15.3888L44.9034 16.272L45.2464 16.5558L46.1195 17.2497L46.4626 17.5021L46.5873 17.6282L46.6497 21.6024L46.6808 23.211L46.7432 24.4726L46.8056 25.1665L46.6808 25.2611L46.2131 25.3242L45.7453 25.3557H43.9367L43.7184 25.2611L43.6872 25.198L43.656 24.7249L43.6248 20.6246L43.5001 20.5931H34.332V22.3909L34.3632 25.3873L34.3944 26.365L34.5503 26.5543L35.0492 26.9012L35.6417 27.3428L36.1407 27.7528L36.5773 28.0998L36.8891 28.3837L37.2321 28.6675L37.5751 28.9829L37.9182 29.2668L38.1988 29.5191L38.4795 29.7399L38.8537 30.0238L39.3214 30.3707L39.8204 30.7492L40.257 31.1277L40.5688 31.38L41.0054 31.7585L41.4108 32.1055L41.7538 32.3894L42.4086 32.894L42.7517 33.1463L43.2506 33.5564L43.5936 33.8402L44.0302 34.2187L44.5603 34.6603L45.3711 35.2911L45.7765 35.575L46.2443 35.8904L46.4626 36.1112L46.5561 36.3004L46.5873 36.6158L46.6808 39.5491L46.7432 40.9054V41.2523L46.5561 41.3154L45.9636 41.347H44.6227L43.8431 41.3154L43.7496 41.2208L43.6872 40.8108L43.6248 40.0222L43.5936 39.1706L43.5001 39.1391H36.5461L34.7998 39.1076L34.831 40.8108L34.8621 41.1893L34.831 41.2839L34.7686 41.3154L33.3029 41.347H28.2823L28.1576 41.2839L28.1888 40.6215L28.2512 40.1169L28.3447 39.8645L28.5942 39.5807L28.7813 39.486L28.906 39.2653L28.9684 39.0129L28.4071 39.076L27.9081 39.1076L25.2887 39.1706H23.48L21.3907 39.1391L20.1433 39.1076L19.239 39.076L19.6444 39.6122L19.9562 40.0222L20.2369 40.4007L20.5175 40.7161L20.9853 41.1893L21.2348 41.41L21.5778 41.757L21.7025 41.8516V41.9147L21.7961 41.9462L22.1703 42.3247L22.3886 42.577L22.7628 42.924L23.0746 43.2079L23.4176 43.4917L23.979 43.8387L24.322 43.9964V43.9018L24.7274 43.8387L25.1328 43.8071L25.4446 43.7125H25.8812L25.9124 43.5233L26.0059 43.4287L26.2554 43.3971L26.2866 43.5864L26.1306 43.9018L25.9124 43.9964L25.6941 44.438L25.5693 44.9742L25.4134 46.2043L25.2887 46.9928L25.1639 47.1189L24.2596 47.4343L23.7607 47.6867L23.4176 47.939L23.0123 48.2859L22.5445 48.7275L22.3886 48.8852H22.3262V48.9483H22.2638V49.0114H22.2015V49.0745L22.0456 49.2006L22.0144 49.2637H21.952L21.8896 49.3899H21.8273L21.7649 49.516L21.2036 50.0838L20.9853 50.3361L19.5197 51.8185L19.3326 51.9762L19.1766 52.1339L18.8024 52.544L18.3347 53.0171L17.9605 53.4271L17.9293 53.4902H17.8669L17.8045 53.6164L17.4927 53.9948L17.2432 54.3418L17.212 54.4049V54.6257L17.4303 54.878L17.9916 55.4457L18.2099 55.698L18.553 56.0765L18.896 56.5181L19.3326 57.1174L19.6444 57.5274L19.925 57.8428L20.1433 58.0952L20.4864 58.4736L20.7982 58.7891V58.8521H20.8606L21.0789 59.1045L21.3595 59.4199L21.7025 59.8614L22.0144 60.2399L22.3262 60.65L22.7316 61.1231L22.8563 61.2492V61.3123H22.9187L23.137 61.5647L23.3553 61.7854L23.5736 62.0378L24.3532 62.8263L24.6026 63.0155L24.9145 62.4478L25.1639 62.1324L25.5382 61.5647L25.7876 61.2177L26.0371 60.9338L26.4737 60.713L26.7543 60.65L27.1597 60.6184H27.5651L27.5963 60.65V61.1231L27.5339 61.5962L27.2845 62.1008L27.035 62.5109L26.7231 63.0155L26.0683 63.8987L25.7876 64.2141L25.8188 64.2772V64.498L25.7253 64.561L26.0059 64.9395L26.4113 65.4442L26.8167 66.0434L27.1285 66.5481L27.4092 67.0843L27.5339 67.4628L27.5963 67.8728L27.6275 69.166H27.6898L27.8146 69.4183H27.721L27.4716 69.1345L27.1285 68.8821L26.4425 68.1882L26.2242 67.9359L25.9124 67.589L25.2263 66.7058L24.9768 66.2958L24.7897 66.0434L24.5715 66.0119L24.3843 66.1381L23.6359 66.832L23.5736 66.9266H23.5112L23.4488 67.0528L22.7004 67.8097L22.6692 67.8728H22.6069L22.5445 67.999L22.2638 68.3144L21.9208 68.7244L21.8584 68.819H21.7961L21.7337 68.9452L21.4842 69.2291L21.2036 69.576L20.8606 69.9861L20.6111 70.3015L20.2057 70.8061L19.8315 71.2477L19.5197 71.6262L18.9583 72.3201L18.553 72.7932L18.054 73.424H17.9916L17.9293 73.5502L17.6486 73.8656L17.368 74.2125L17.0561 74.5595L16.8378 74.8434L16.5572 75.1903L16.2142 75.6319L15.8088 76.1681L15.4657 76.5781L15.2475 76.8304L14.8733 77.2405L14.655 77.4612L14.4367 77.7136L13.5947 78.5652L13.2829 79.0383L13.2205 79.1645L13.8754 79.196L15.2475 79.2275L29.0619 79.2906L29.0308 79.1645V77.8082L29.0931 69.8599L29.1243 61.0285L29.1867 60.6184L29.2179 60.5869L31.0577 60.6184L34.8933 60.65H73.1248V60.5553H73.4055L73.2807 60.5238H65.3912L63.2707 60.4923H61.1814L61.119 60.4607V60.5238L60.5889 60.4923L60.4953 60.4607V60.5238H57.4081L57.0027 60.5553L56.7844 60.5238H56.0672H55.9737H54.6639L54.4768 60.4607L54.4456 60.5238L54.2274 60.4923L54.1338 60.5238L53.8531 60.4923H53.3542L52.9176 60.4607L52.6682 60.4292L52.4811 60.4607L52.3875 60.4292H52.2316H52.138H51.7638L51.6079 60.3976L51.452 60.4292H51.1401L51.0154 60.3976H50.5477L50.7036 60.2399H51.3584L52.0757 60.2084H52.6682H52.7617L52.9488 60.1769L52.98 60.2084H53.1671L53.323 60.1769L53.4789 60.2084L53.5101 60.1138H53.5725V60.1769L53.666 60.1453L53.822 60.1769L53.9467 60.1453L54.0403 60.2084V60.1453L54.2585 60.1138L54.3521 60.1769L54.3833 60.1138L54.508 60.1453H54.6951L54.8199 60.1138H54.9134H54.9758H55.1317L55.1629 60.0507L55.1005 59.9876H55.2876V60.0507H55.2252L55.2876 60.1138L55.4747 60.0822L55.4123 60.0191H55.5371V60.0822L55.8489 60.1138L55.9737 60.0822H56.0984L55.9737 59.9876L56.0984 59.9561L56.2855 60.0191V60.1138L56.4102 60.0507L56.4726 59.9245L56.5973 59.9561H56.7221V60.0191H56.6597V60.1138L56.7533 60.0822L56.8156 59.9561L56.9404 60.0191V60.1138L57.0339 60.0822L57.0651 60.0191H56.9715V59.9561L57.1586 59.9876V59.9245L57.3146 59.9876L57.221 60.1138L57.3457 60.1453H57.4393L57.5329 60.1769L57.5952 60.0507V60.1769L57.72 60.1453V60.0822L57.7823 60.1138L57.7511 60.1769L57.9382 60.1138L58.1253 60.1769L58.3125 60.1138L58.4996 60.1769H58.6867L58.749 60.2084V60.1453L58.8426 60.1769L58.8738 60.2084L59.0609 60.1453L59.248 60.2084V60.1769H59.4039L59.4351 60.2715H59.4974V60.2084L59.6534 60.1769V60.2084L59.9652 60.2399H60.4018L60.4641 60.2084L60.6824 60.2399L60.8695 60.2084L61.0255 60.2399H61.8986L62.1169 60.2084L62.3352 60.2399L62.7406 60.2084H63.146L63.2707 60.1769V60.2399L63.4578 60.2084H63.6449L63.8008 60.1769H63.9567L64.0815 60.2084L64.2686 60.1453L64.4245 60.1769L64.5492 60.1453L64.7052 60.1769L64.8923 60.1453H65.1417L65.2976 60.1769L65.5159 60.1453H65.859V60.2084L66.0149 60.1453H66.202L65.9837 60.0507L65.9525 59.9561L66.0772 59.9245V59.9876L66.3267 59.9561L66.3579 60.0507L66.2643 60.0822L66.2955 60.1138H66.4826L66.7009 60.1769V60.1138L66.888 60.1453L66.9192 60.1138L66.7945 60.0822V59.9876L66.9192 60.0191L66.9816 60.0822L67.1063 60.1138L67.1375 60.0507L67.1999 60.1769H67.3558V60.1138L67.6364 60.1769L67.7924 60.1453H67.9171L68.0418 60.1769L68.1354 60.1453L68.2913 60.1769H68.4472L68.5096 60.1453L68.6655 60.1769L68.8526 60.2084L69.0085 60.1769H69.4139L69.5698 60.2084L69.757 60.1769H70.0064L70.0376 60.2084L70.1935 60.1769L70.3806 60.2084L70.6613 60.1769L70.8172 60.2084L71.0043 60.1769L71.4097 60.2084L71.5344 60.1769L71.8463 60.2084L71.971 60.1769H72.0646L72.1893 60.2084H73.2495L73.3119 60.1769L73.6237 60.2084L73.7485 60.1769H73.8732L74.3722 60.2084L74.4969 60.1769L74.6528 60.2084H76.0561L76.1185 60.2399L76.212 60.2084L76.3056 60.2399L76.6174 60.2084L76.6798 60.2399L76.8357 60.2084H77.4282L77.6465 60.2399H77.8648H77.9583H78.3325L78.4884 60.3976L78.5196 60.6815L78.5508 73.5502L78.582 77.7767V79.1329L79.5487 79.2275L79.6734 79.2591V83.7063H77.5529L74.2162 83.6433L71.7215 83.6117L66.6386 83.5802L64.3309 83.5486L62.8029 83.5171L62.2104 83.4855L62.0233 83.454V83.4225L34.2385 83.3909H15.5593L8.63647 83.3594L5.92347 83.3278L4.95677 83.2963L4.83203 83.2648V79.2906L4.86322 79.2591L5.42453 79.2906H5.92347L6.57833 79.2591L6.95254 79.1329L7.04609 79.0383L7.13964 78.7544L7.38911 77.5243L7.7945 75.2534L8.16871 73.2032L8.41818 71.8154L8.73002 69.923L9.04186 68.1567L9.41607 65.9804L9.75909 63.8987L9.97738 62.3847L10.2268 60.8392L10.4763 59.3568L10.7882 57.6536L11.0376 56.1396L11.2871 54.6887L11.5678 53.0802L11.7549 52.1655L11.942 51.0931L12.2538 49.4845L12.5345 47.7813L12.7839 46.1727L13.0958 44.1541L13.2829 42.9555L13.6259 40.8423L13.813 39.7068L13.8754 39.2968V39.1076L13.2829 39.1391L11.8796 39.1706H5.45571L4.83203 39.1391V33.9979L4.8944 34.061L4.95677 34.2503L5.11269 34.0926L5.20624 33.8718L5.33097 33.7141H5.39334V33.651H5.45571L5.51808 33.5248L5.8611 33.2094L7.17083 32.1686L7.51385 31.8847L8.387 31.1277L8.91712 30.6861L9.41607 30.3077L9.72791 30.0553L10.0709 29.7715L10.9441 29.0145L11.3183 28.6675L11.6613 28.3837L12.1291 28.0052L12.8463 27.5005L13.4388 27.0589L13.9377 26.6489L14.2808 26.3966L14.3431 26.2389V25.135L14.3119 23.9995V20.53L13.2205 20.5615H6.26649L5.0815 20.53L4.83203 20.4984V15.2627H4.8944L4.95677 15.5465H5.01913L5.0815 15.3888L5.36216 15.0734L5.98584 14.4426L6.23531 14.2218L6.76543 13.7802L7.10846 13.4964L7.54503 13.1494L7.95042 12.8025L8.29345 12.5186L8.7612 12.1086L9.1666 11.7932L9.82146 11.2885L10.6322 10.6577L11.0688 10.2792L11.4118 9.99534L11.8172 9.64839L12.1603 9.36452L12.4721 9.11219L13.0646 8.67062L13.47 8.32367L13.7818 8.0398L14.0313 7.81902L14.156 7.56669L14.1872 7.37745L14.2184 6.62047L14.2496 6.24198V5.51654L14.4055 4.69647L14.655 4.03412L14.9668 3.4033L15.2786 2.99327L15.4346 2.80402H15.4969L15.5593 2.67786L15.9023 2.33091L16.3389 1.98396L16.7443 1.79471L17.1497 1.70009L17.9605 1.63701L19.3326 1.60547ZM27.1597 6.27352L25.1639 6.30506H20.2993L20.424 6.4943L20.7046 6.84125L21.0477 7.21974L21.8273 8.00826L22.0767 8.22905L22.5445 8.67062L22.8252 8.95449L23.0746 9.17528L23.48 9.58531L23.7295 9.80609L24.1037 10.153L24.4779 10.4685L24.6026 10.4369L24.8209 10.1846L25.0392 9.90072L25.351 9.61685L25.7253 9.17528L26.0059 8.85987L26.3489 8.4183L26.6608 8.07135L26.9102 7.75594L27.2533 7.34591L27.4716 7.09358L27.6275 6.87279L27.8769 6.65201L28.22 6.30506V6.27352H27.1597ZM19.1766 8.19751V9.45914L19.2078 13.0233L19.2702 15.6727L19.3949 15.6096L19.6756 15.2942L19.9562 14.9473L20.3304 14.5372L21.3595 13.4964L21.4219 13.4648V13.4018L21.5466 13.3387L22.0144 12.8656L22.5445 12.3609L22.9187 11.9824L22.9811 11.8878V11.6985L23.0434 11.667L22.5757 11.1624L22.0144 10.5946L21.6713 10.3107L21.3283 9.99534L21.0789 9.77455L20.767 9.49068L20.5175 9.2699L20.1122 8.89141L19.8627 8.67062L19.3637 8.26059L19.1766 8.19751ZM28.8436 8.35521L28.6565 8.51292L28.4383 8.76524L28.1888 9.11219L27.8458 9.52223L27.4716 9.9638L27.1597 10.2792L26.9414 10.5315L25.9124 11.5724L25.6941 11.7301L25.6629 11.8562L25.8188 12.077L26.0683 12.2978L27.1285 13.3702L27.2221 13.4964H27.2845L27.3468 13.6225H27.4092L27.4716 13.7487H27.5339L27.5963 13.8749L27.7522 14.001L27.8458 14.1272H27.9081L27.9705 14.2534L28.2512 14.5372L28.5318 14.8842L28.7501 15.105L28.9684 15.3573L29.1243 15.5465H29.1867L29.2802 13.2756V9.55377L29.2179 8.54446L29.0931 8.4183L28.9372 8.35521H28.8436ZM34.4256 11.3201L34.3944 11.6039L34.3632 12.3924L34.332 15.6096V17.5336L34.3632 17.6598H40.8495L41.5355 17.6282L41.8473 17.5651L41.785 17.4074L41.6602 17.2182L41.5667 17.092H41.5043L41.4731 16.9974L41.2237 16.7766L40.8806 16.4612L40.5688 16.2089L40.1634 15.8619L39.6333 15.4519L39.2591 15.1365L38.7601 14.758L37.7622 13.9379L37.4192 13.6541L37.0138 13.3071L36.6708 13.0233L36.2031 12.6132L35.7665 12.2347L35.3299 11.8878L35.0181 11.667L34.5191 11.3201H34.4256ZM14.3431 11.3516L13.8442 11.667L13.4388 11.9824L13.0958 12.2347L12.5656 12.6132L11.5678 13.3702L11.0688 13.7802L10.8193 13.9695L10.2892 14.3795L9.79027 14.7895L9.47844 15.0419L9.04186 15.3888L8.48055 15.8304L7.85687 16.3351L7.45148 16.682L7.13964 16.9343L6.8278 17.4074V17.4705L6.89017 17.5021L7.45148 17.5336L11.3495 17.6282H14.2808L14.3119 17.5967V15.1365L14.3743 11.8562L14.4055 11.3516H14.3431ZM24.4779 13.2125L24.1349 13.4648L23.6983 13.8433L23.2929 14.2218L23.0434 14.4426L22.7628 14.7265L22.7004 14.758V14.8211L22.5757 14.8842L22.2638 15.1996L22.0144 15.4204L21.6402 15.7673L21.3907 15.9881L21.0165 16.3351L20.9229 16.3981V16.4612L20.7982 16.5243L20.424 16.9028L20.2057 17.2182L20.1122 17.4074V17.5021L20.3304 17.5651L20.8294 17.5967L23.7607 17.6598H27.4404L28.3135 17.6282L28.5006 17.5651L28.4071 17.2182L28.2823 17.029L27.6898 16.4297L27.6275 16.3351H27.5651L27.5027 16.2089L27.2533 15.9881L26.2866 15.0103L26.0683 14.758L25.7253 14.3795L25.4446 14.0326L25.2263 13.8118L25.008 13.5595L24.7586 13.3071L24.6338 13.2125H24.4779ZM20.2681 20.5615L20.2993 20.7508L20.4864 21.1923L20.8294 21.697L21.1412 22.1386L21.4219 22.5486L22.2327 23.6841L22.8875 24.5357L23.2305 24.9772L23.5424 25.3557L23.979 25.955L24.2284 26.302L24.5403 26.7751L24.665 26.712L24.9768 26.1758L25.3199 25.6081L25.7876 24.788L26.0371 24.4095L26.193 24.1256L26.6296 23.4948L27.035 22.8956L27.3156 22.4855L27.6275 22.0124L27.9393 21.6024L28.2823 21.1293L28.4383 20.8139L28.4694 20.6246L28.2512 20.5931L26.8791 20.5615H20.2681ZM19.1766 22.7378V23.8733L19.2078 31.9478L19.239 33.8087H19.3637L19.6756 33.3987L20.0186 32.8309L20.3928 32.3263L20.8294 31.7585L21.0789 31.4116L21.4842 30.9069L21.7337 30.5915L22.0144 30.213L22.3262 29.803L22.6692 29.2983L23.0434 28.7306L23.1682 28.5098L23.1058 28.1944L22.8563 27.6582L22.5133 27.0905L21.9832 26.302L21.0477 25.0719L20.6735 24.5672L20.2369 23.9679L19.8939 23.5264L19.6444 23.1794L19.3637 22.864L19.2078 22.7378H19.1766ZM29.0308 23.0848L28.8125 23.1794L28.5318 23.5895L28.22 24.0941L27.8458 24.6934L27.5963 25.1034L27.2533 25.6711L26.8479 26.2704L26.5984 26.6174L26.2554 27.122L25.9435 27.5951L25.6005 28.0998L25.4758 28.3521L25.6005 28.636L25.9747 29.1091L26.4425 29.7399L26.8479 30.2761L27.1285 30.6546L27.5027 31.1908L27.6898 31.4747L28.0952 32.1055L28.3759 32.5786L28.6877 33.0833L28.9684 33.4933L29.1243 33.8087H29.1555L29.1867 33.6194L29.249 32.0424L29.2802 30.1815V28.4152L29.2179 23.6841L29.1555 23.1794L29.0308 23.0848ZM34.3944 30.0238L34.3632 30.6546V35.1019L34.3944 36.332L34.4256 36.3635H34.9245L35.5794 36.332L37.2945 36.3004H40.9742L41.8785 36.332L41.7538 36.0796L41.4731 35.7327L40.8806 35.1334L40.6312 34.9126L40.3193 34.6288L40.0075 34.3764L39.5085 33.9664L39.1032 33.651L38.5418 33.2094L38.23 32.9571L37.6687 32.5155L37.1698 32.1055L36.7332 31.7585L36.2031 31.317L35.7977 30.97L35.2675 30.56L34.7686 30.213L34.4568 30.0238H34.3944ZM14.3743 30.0553L13.9377 30.3077L13.3141 30.7492L12.8775 31.0646L12.4097 31.38L11.786 31.8216L11.3807 32.137L10.5075 32.7994L9.82146 33.3671L9.41607 33.7141L9.10423 33.9664L8.73002 34.2818L8.387 34.5657L7.85687 35.0072L7.45148 35.3857L7.07727 35.7642V35.8273H7.01491L6.76543 36.1427L6.85899 36.2058L13.1581 36.2689L14.3119 36.2373V34.3449L14.4055 30.4654L14.4367 30.0869L14.3743 30.0553ZM24.5091 30.1184L24.1972 30.4023L23.979 30.6546L23.5736 31.0962L23.3865 31.38L23.2305 31.5377L22.8875 31.9793L22.6692 32.2632L22.4198 32.6101L22.0767 33.0517L21.6713 33.5564L21.3595 33.9664L20.9541 34.5341L20.6111 35.0388L20.3304 35.4488L20.2057 35.7011L20.0186 36.2058L19.9874 36.3004L26.0371 36.2689L27.5027 36.3004L28.2512 36.332L28.6254 36.3635L28.5942 36.2058H28.5318L28.4383 35.9219L28.0952 35.2911L27.721 34.6603L27.2221 33.9349L26.7231 33.1779L26.4113 32.6732L26.0995 32.2001L25.7564 31.6324L25.4446 31.1593L25.0392 30.5915L24.8209 30.2446L24.6962 30.1815H24.6026V30.1184H24.5091ZM18.7401 41.3785L18.6777 41.4416L18.4594 42.6401L18.1787 44.2172L17.8357 46.1727L17.4927 48.0336L17.1809 49.4845L16.9314 50.8092L16.7755 51.6608V51.7554L16.9002 51.7239L17.212 51.44L17.4615 51.2192L17.9916 50.7146L18.2411 50.4938L18.8648 49.863V49.7999H18.9272L19.1454 49.5476L19.5197 49.1376L19.7691 48.8852L20.0186 48.6644L20.3304 48.349L20.5799 48.1282L20.8917 47.8444L22.9499 45.7627L22.9187 45.5419L22.3574 44.9742H22.295V44.9111L22.0456 44.6903L20.9541 43.5864L20.7358 43.334L20.2993 42.8609L19.925 42.4193L19.3326 41.8201L18.896 41.4731L18.7401 41.3785ZM16.2765 56.2027L16.183 56.4866L15.9335 57.559L15.684 58.8837L15.4969 60.0507L14.998 62.7632L14.6861 64.4033L14.4679 65.6965L14.156 67.3366L13.8754 68.7875L13.6571 69.9545L13.3452 71.9416L13.0646 73.7394L12.8463 75.5688L12.7527 76.4519V77.0828L12.8775 77.0197L13.3452 76.3258L13.6571 75.8842L13.9689 75.4742L14.4055 74.9064L14.6861 74.5595L15.2475 73.8971V73.834H15.3098L15.5905 73.4871L15.8711 73.1717L16.1518 72.8247L16.4324 72.5093L16.7755 72.0678L17.0873 71.6577L17.4303 71.2477L17.711 70.9007L17.8669 70.743V70.68H17.9293L18.1476 70.4276L18.5218 69.9861L18.8024 69.6707L19.1143 69.2922L19.4261 68.8821L19.7691 68.4406L20.0498 68.1252L20.2993 67.8097L20.767 67.3051L21.0477 66.9897L21.3907 66.6112L21.6713 66.2642L21.7337 66.1381H21.7961L22.0767 65.7911L22.4821 65.318L23.0434 64.6241L23.1058 64.498H23.0434L23.0123 64.3087L22.5757 63.7094L22.1703 63.2363L21.952 62.984L21.6402 62.637L21.4219 62.3847L21.0477 61.9431L20.7046 61.5647L20.424 61.2177L20.1122 60.8077L19.7068 60.303L19.0519 59.4514L18.7089 59.0414L18.3659 58.5998L18.0852 58.2529L17.7422 57.8428L17.3991 57.4013L17.0249 56.9597L16.7443 56.6127L16.3389 56.2027H16.2765ZM56.5662 60.0191L56.4726 60.0822L56.5038 60.1453L56.6285 60.0822V60.0191H56.5662ZM73.7797 60.5238V60.5869L73.842 60.5553L73.7797 60.5238ZM40.101 64.3402L37.7934 64.3718L37.8558 68.4721L37.9182 71.2162L38.0429 74.3072V78.8806L38.0117 78.849L37.9805 75.0641L37.9494 74.0864L37.887 73.3294L37.8246 72.9824L37.7622 73.014L37.7311 73.1401L37.6687 73.2032V74.3702L37.6999 77.272L37.7311 79.2906H41.0054L45.9636 79.2591L45.9948 79.2275L46.026 64.908L46.0572 64.3718L45.8077 64.3402H40.101ZM60.4953 64.3402L57.9071 64.3718L57.8759 64.4664V72.0047L57.9071 74.3072L58.063 74.3387L58.2501 74.2441L58.4684 74.2125L58.4372 74.1495H58.2813L58.3125 74.0548L58.5931 74.0233L60.4018 73.9918H64.4557L65.5783 74.0233L65.6095 74.0864L62.7406 74.1179V74.1495L64.2062 74.181H64.5804L64.8299 74.2125V74.2441L65.2665 74.2756L65.6719 74.2441H65.859L65.8901 74.181L65.859 73.9602V69.4814L65.8901 68.409V64.8449L65.9525 64.4033L65.859 64.3718L64.8299 64.3402H60.4953ZM37.4504 64.3718L37.5128 64.4664H37.5751V64.5295H37.6687L37.6999 64.3718H37.4504ZM37.544 66.5481V67.9044H37.5751V66.5481H37.544ZM63.8008 74.2125V74.2441H64.7052V74.2125H63.8008ZM5.23742 79.7322L5.20624 79.7953V80.2684H5.23742L5.26861 79.7322H5.23742Z" fill="#0C213C"/>
<path d="M67.6025 36.6133H70.5337L70.5649 36.6448L70.5337 37.1495L70.4402 38.2534L70.3466 38.9158L70.2219 40.5874L70.1284 41.9752L70.0036 43.1738L70.5026 43.2053L71.7187 43.2369L76.9576 43.2684L78.6416 43.2999L79.4523 43.3315L79.4835 43.4261L79.5771 43.5207L79.6083 43.3315H79.6706V59.2912L79.6083 59.3227L78.6104 59.4173L78.4233 59.4489L76.8017 59.512L75.5544 59.5435L66.8852 59.6066H44.121L41.2832 59.575L37.9777 59.512L36.6056 59.4804L29.2774 59.4489L29.1839 59.3858V59.3227L32.2399 59.2912L32.4894 59.2281L32.5206 59.3227L32.6141 59.2596L33.2378 59.2281L33.5496 59.2596L33.6432 59.2281H33.7679H33.8615V59.2912L34.0486 59.2596L35.2336 59.2912H38.196L38.2584 59.2596V59.3227L38.3831 59.2596H38.7885L38.8197 59.1965L38.7262 59.165H35.0776L35.0153 59.1335V59.1965L34.6099 59.165H34.2045L33.2378 59.1019V59.0704L33.8615 59.0388L41.1897 58.9442L41.6886 58.9127H41.9693L42.3747 58.8811H43.4661L45.0253 58.8496H45.5242L45.8049 58.7865V58.8496L45.992 58.7865V58.8496L46.1479 58.8181H46.0856L46.1167 58.755L46.2415 58.8181L46.2727 58.8496V58.755L46.4598 58.8181H46.6469L46.7716 58.7234L46.8028 58.6919H46.3974L46.3038 58.6603L46.1167 58.6919L45.9296 58.6603L45.8049 58.6288L45.7737 58.6919L45.7113 58.6603L45.7425 58.5342L45.8049 58.4711L45.9296 58.4396V58.5026L46.2103 58.4396H46.3038L46.6157 58.5026V58.4396L46.8652 58.4711L46.9899 58.408L47.2082 58.4396L47.3953 58.408H47.6759V58.4711L47.8319 58.408L47.9878 58.4396L48.2061 58.408H48.6115L48.7986 58.3765H49.89L53.1331 58.3449L64.4841 58.3134H66.5422L66.7293 58.2819L66.854 58.3134H67.1971L67.8831 58.2819L68.039 58.2503L68.1326 58.2188V58.2819H68.2885L68.3197 58.2188L68.4756 58.1872L68.5068 58.2819L68.6627 58.1872L68.7563 58.2188V58.2819H68.881V58.1872L69.0369 58.2188L69.1928 58.1872L69.224 58.2188L69.5982 58.1872L53.1643 58.1557H42.593L39.4434 58.1872L35.5766 58.2503L32.3958 58.2819L27.2817 58.3134H25.6913L25.6289 58.1872L25.6601 57.2725L25.7848 55.8848L25.9407 54.6547L26.159 53.0776L26.2526 52.5099L26.5956 50.2074L26.8139 48.6934L27.0946 47.0218L27.4064 45.0347L27.6247 43.7415L27.687 43.363L27.843 43.2053H29.028L30.6807 43.2369H38.9444L44.807 43.2684H59.557L61.7087 43.2999L62.8625 43.3315L63.0808 43.3946L63.1743 44.7193L63.2367 45.287L63.3303 45.8232L63.3926 45.8548L63.8604 45.8232L63.8916 45.6655L64.0163 45.6024L64.0787 45.4447L64.1099 45.4132L64.141 45.1293V44.4354L64.0163 41.5021L63.8916 39.4835L63.798 38.6634L63.6733 38.0326L63.5485 37.0549L63.5174 36.8971V36.6764L64.2658 36.6448L67.6025 36.6133ZM79.4212 43.8992V44.0885H79.4523V43.8992H79.4212ZM79.39 44.2462V44.467H79.4212V44.2462H79.39ZM77.6749 58.0611V58.0926H78.8287V58.0611H77.6749ZM75.6479 58.0926V58.1242H76.2092V58.0926H75.6479ZM76.2404 58.0926V58.1242H76.3963V58.0926H76.2404ZM76.4275 58.0926V58.1242H76.6458V58.0926H76.4275ZM72.7166 58.1242L72.7478 58.1872H73.5274L75.149 58.1557V58.1242H72.7166ZM70.908 58.1557L71.0327 58.2188H71.4693L71.5005 58.1557H70.908ZM71.5316 58.1557V58.1872H71.7499V58.1557H71.5316ZM71.7811 58.1557V58.1872H72.7166V58.1557H71.7811ZM47.4888 58.4396L47.52 58.5026L47.5824 58.4711L47.4888 58.4396ZM46.9587 58.6603L46.834 58.7865L46.8652 58.8496L46.9275 58.8181H47.0211L47.0834 58.8496L47.1458 58.6919L46.9587 58.6603ZM47.2394 58.6919L47.3641 58.755L47.4576 58.7865L47.4888 58.6919H47.2394ZM47.52 58.7234L47.4888 58.8181H47.5512L47.52 58.7234ZM47.2394 58.755L47.2705 58.8181L47.3329 58.755H47.2394ZM47.6759 58.755L47.7071 58.8181L47.8319 58.7865L47.6759 58.755ZM47.9566 58.755L48.019 58.8181L48.0813 58.755H47.9566ZM48.5803 58.755L48.6426 58.8181L48.6738 58.755H48.5803ZM47.1146 58.7865V58.8496L47.177 58.8181L47.1146 58.7865ZM47.5824 58.7865L47.5512 58.8496L47.6448 58.8181L47.5824 58.7865ZM38.8821 59.165L38.8509 59.2596H39.038L39.1004 59.165H38.8821ZM39.5993 59.1335L39.1315 59.165L39.1627 59.2596L39.2875 59.2281H39.6617L39.6929 59.165L39.5993 59.1335ZM39.7864 59.165L39.88 59.2281L39.9423 59.165H39.7864ZM40.0359 59.165V59.1965H40.1918V59.165H40.0359Z" fill="#0C213C"/>
<path d="M35.9516 42.418H37.9474L39.3819 42.4495H50.6081L55.3168 42.5441L62.9881 42.5757L63.0505 42.6388L63.0193 42.7649L62.9881 42.7965H60.6493L55.005 42.7649L51.7619 42.7018L50.8887 42.6703L49.0801 42.6388H47.209L37.2614 42.7018L36.0764 42.7334L36.0452 42.828L35.7957 42.7965L35.7645 42.828L35.5462 42.7965L35.2656 42.828L34.3613 42.8595H34.143L33.8311 42.8911L32.6773 42.9542L31.0246 42.9857H29.5589L28.1557 42.9542L27.875 42.8595L27.9062 42.5757H27.9686L28.0309 42.4495L28.3116 42.5126H28.717L29.06 42.5441L29.7149 42.5757L29.8708 42.6072L30.4321 42.6388H31.1181L32.1472 42.5757L32.4279 42.5441L34.7043 42.4495L35.9516 42.418Z" fill="#0C213C"/>
<path d="M17.8357 0.4375H30.6835L30.8082 0.658286L30.7771 0.78445L29.7792 0.721368L29.5921 0.689827L28.6877 0.721368L26.2866 0.78445L24.6026 0.81599H23.6671L21.7337 0.847531L20.5176 0.879072L19.5509 0.910613L18.2099 0.973695L17.7734 1.00524L17.7422 0.879072L17.8046 0.469041L17.8357 0.4375Z" fill="#0C213C"/>
<path d="M5.45543 21.1289H5.54894L5.58011 25.04L5.4866 25.1031L5.20607 25.1346H4.92554L4.89437 25.0084L4.8632 24.9138L4.83203 24.7876L4.95671 24.7561L5.05022 23.116L5.11256 21.602L5.1749 21.1604H5.23724L5.29958 21.2235L5.45543 21.1289Z" fill="#0C213C"/>
<path d="M5.42434 39.9258H5.51785L5.54902 40.1466V43.7107L5.39317 43.7422L4.92562 43.7107L4.86328 43.553L4.89445 43.4268L4.92562 43.3953L4.98796 42.796L5.11264 40.1781L5.17498 39.9889L5.33083 39.9573L5.42434 39.9258Z" fill="#0C213C"/>
<path d="M70.2848 42.4805H72.8731L74.5258 42.512L75.9603 42.5751L77.1765 42.6066L79.6712 42.6382V42.7643H78.3303L77.3636 42.7328H76.1786L75.2119 42.7013L71.2515 42.6382H70.1289L70.1913 42.512L70.2848 42.4805Z" fill="#0C213C"/>
<path d="M65.703 64.875H65.7342L65.7654 65.0642L65.7966 66.7675L65.7342 68.0291H65.703L65.6719 67.8398V65.285L65.703 64.875Z" fill="#0C213C"/>
<path d="M70.2537 42.6406H70.503L70.4719 42.7983L70.4095 42.893L70.503 42.9245L70.4407 42.9876L70.3472 42.956V43.0191L70.1602 42.956V42.7037L70.2537 42.6406Z" fill="#0C213C"/>
<path d="M4.83203 21.2852H5.01905L4.92554 21.8529L4.8632 22.0421H4.83203V21.2852Z" fill="#0C213C"/>
<path d="M49.8905 60.2383H50.6385L50.5762 60.3329L50.2957 60.3644L50.2333 60.3014L50.2022 60.396L50.1087 60.3644V60.3014H50.0463L50.0151 60.396L49.8593 60.3644L49.8281 60.2698L49.8905 60.2383Z" fill="#0C213C"/>
<path d="M65.4216 59.9219L65.4528 59.985L65.6087 59.9534L65.7022 60.0165L65.7333 59.9534L65.9204 59.985L65.9515 60.0796L65.7645 60.1111L65.5775 60.048H65.3905L65.3281 60.0165L65.3593 59.9534L65.4216 59.985V59.9219Z" fill="#0C213C"/>
<path d="M4.83203 39.9883L4.98788 40.0198L4.95671 40.3668L4.83203 40.3352V39.9883Z" fill="#0C213C"/>
<path d="M45.1522 58.5352H45.308H45.4015L45.5262 58.6613L45.4015 58.6929L45.2457 58.5982H45.1834V58.6613H45.0898V58.5982H45.1522V58.5352Z" fill="#0C213C"/>
<path d="M45.4648 58.4727H45.7454L45.7142 58.5673L45.6207 58.6619L45.496 58.5988L45.4648 58.4727ZM45.5584 58.5042L45.6207 58.5988V58.5042H45.5584Z" fill="#0C213C"/>
<path d="M66.4491 59.9219H66.5114V60.0165H66.5737L66.6049 59.9534L66.6672 59.985L66.6049 60.1111H66.5114V60.048L66.4179 60.0796L66.3867 59.985H66.4491V59.9219Z" fill="#0C213C"/>
<path d="M40.6914 36.0469H41.159L41.1278 36.11H40.8473L40.6914 36.0784V36.0469Z" fill="#0C213C"/>
<path d="M57.9684 59.957L58.1554 59.9886L58.1243 60.1147V60.0517H57.8749L57.8438 59.9886L57.9684 59.957Z" fill="#0C213C"/>
<path d="M65.078 59.9883H65.2962V60.0514L65.0469 60.0829L65.078 59.9883Z" fill="#0C213C"/>
<path d="M4.83203 40.3672L4.8632 40.4303H4.92554L4.89437 40.588L4.83203 40.6195V40.3672Z" fill="#0C213C"/>
<path d="M64.7026 59.957H64.765L64.7338 60.0517H64.5156V59.9886L64.7026 59.957Z" fill="#0C213C"/>
<path d="M57.4061 59.957L57.5308 59.9886V60.0517H57.3438V59.9886L57.4061 59.957Z" fill="#0C213C"/>
<path d="M67.4492 60.0195L67.4804 60.0826H67.5427V60.0195L67.6674 60.0511L67.5739 60.1142H67.4492V60.0195Z" fill="#0C213C"/>
<path d="M64.7969 59.9883H64.9839L65.0462 60.0514L64.9527 60.0829L64.7969 60.0198V59.9883Z" fill="#0C213C"/>
<path d="M72.9372 60.5547H73.0307V60.6178L72.8748 60.6493L72.8125 60.5862L72.9372 60.5547Z" fill="#0C213C"/>
<path d="M49.207 60.2695H49.5187L49.4252 60.3326L49.207 60.3011V60.2695Z" fill="#0C213C"/>
<path d="M67.1992 59.9883L67.3239 60.0514V60.146L67.1992 60.0829V59.9883Z" fill="#0C213C"/>
<path d="M55.7539 59.9883H55.9409L55.8786 60.0829L55.7539 60.0198V59.9883Z" fill="#0C213C"/>
<path d="M57.6249 59.957L57.7808 60.0201L57.6873 60.0832L57.5938 59.9886L57.6249 59.957Z" fill="#0C213C"/>
<path d="M46.4921 58.7266H46.648L46.6168 58.8212L46.4609 58.7896L46.4921 58.7266Z" fill="#0C213C"/>
<path d="M65.7656 67.5898H65.7968V67.9053H65.7656V67.5898Z" fill="#0C213C"/>
<path d="M49.7342 60.2695L49.8277 60.3011L49.7654 60.3957L49.6719 60.3642L49.7342 60.2695Z" fill="#0C213C"/>
<path d="M66.918 59.9883L67.105 60.0198L67.0738 60.0829L66.918 60.0198V59.9883Z" fill="#0C213C"/>
<path d="M58.2188 59.957L58.3746 59.9886L58.3123 60.0517L58.2188 60.0201V59.957Z" fill="#0C213C"/>
<path d="M44.8711 58.5352H44.9639L44.9948 58.629H44.902L44.8711 58.5352Z" fill="#0C213C"/>
<path d="M24.57 30.1797L24.6318 30.211V30.2736H24.5391L24.57 30.1797Z" fill="#0C213C"/>
<path d="M55.7223 60.0195L55.7532 60.0821L55.8151 60.1134L55.6914 60.0821L55.7223 60.0195Z" fill="#0C213C"/>
<path d="M56.2852 59.957L56.3779 59.9883L56.347 60.0509L56.2852 60.0196V59.957Z" fill="#0C213C"/>
<path d="M54.4453 60.6172H54.6012V60.6487H54.4453V60.6172Z" fill="#0C213C"/>
<path d="M49.5465 60.2695L49.5775 60.3634H49.5156L49.5465 60.2695Z" fill="#0C213C"/>
<path d="M57.9993 60.0508L58.0612 60.1134L57.9375 60.0821L57.9993 60.0508Z" fill="#0C213C"/>
<path d="M68.1637 59.9883L68.2256 60.0821L68.1328 60.0509L68.1637 59.9883Z" fill="#0C213C"/>
<path d="M58.6836 59.9883H58.7764V60.0509L58.6836 60.0196V59.9883Z" fill="#0C213C"/>
<path d="M58.4684 59.9883H58.5303V60.0509L58.4375 60.0196L58.4684 59.9883Z" fill="#0C213C"/>
<path d="M55.5352 59.9883H55.6588L55.6279 60.0509L55.5352 59.9883Z" fill="#0C213C"/>
<path d="M44.7458 58.5977L44.8076 58.6289L44.7767 58.6915L44.7148 58.6289L44.7458 58.5977Z" fill="#0C213C"/>
<path d="M25.8164 64.4961H25.8782L25.8473 64.59L25.8164 64.4961Z" fill="#0C213C"/>
<path d="M53.7575 60.1133L53.8194 60.1759L53.7266 60.1446L53.7575 60.1133Z" fill="#0C213C"/>
<path d="M65.5469 60.082L65.6397 60.1447H65.5469V60.082Z" fill="#0C213C"/>
<path d="M67.8864 60.0508L67.9483 60.1134L67.8555 60.0821L67.8864 60.0508Z" fill="#0C213C"/>
<path d="M67.9453 59.9883L68.0382 60.0196H67.9453V59.9883Z" fill="#0C213C"/>
<path d="M63.9877 59.9883L64.0186 60.0509L63.9258 60.0196L63.9877 59.9883Z" fill="#0C213C"/>
<path d="M59.0586 59.9883H59.1209V60.0514H59.0586V59.9883Z" fill="#0C213C"/>
<path d="M28.4688 36.2383L28.5616 36.2696H28.4688V36.2383Z" fill="#0C213C"/>
<path d="M48.9257 60.3008L48.9569 60.3639L48.8945 60.3323L48.9257 60.3008Z" fill="#0C213C"/>
<path d="M63.3008 59.9883L63.3631 60.0514H63.3008V59.9883Z" fill="#0C213C"/>
<path d="M66.7304 59.9883L66.7616 60.0514L66.6992 60.0198L66.7304 59.9883Z" fill="#0C213C"/>
<path d="M64.2969 59.9883L64.3592 60.0198L64.2969 60.0514V59.9883Z" fill="#0C213C"/>
<path d="M45.8359 58.7578L45.8983 58.7894L45.8359 58.8209V58.7578Z" fill="#0C213C"/>
<path d="M44.4961 58.5039L44.5584 58.567H44.4961V58.5039Z" fill="#0C213C"/>
<path d="M44.1523 58.5039L44.1834 58.567L44.1211 58.5354L44.1523 58.5039Z" fill="#0C213C"/>
<path d="M28.4999 39.3594L28.5311 39.4225L28.4688 39.3909L28.4999 39.3594Z" fill="#0C213C"/>
</g>
<defs>
<clipPath id="clip0_780_1918">
<rect x="0.589844" y="0.4375" width="83.3234" height="84.2772" rx="10" fill="white"/>
</clipPath>
</defs>
</svg>
