<svg width="80" height="80" viewBox="0 0 80 80" fill="none" xmlns="http://www.w3.org/2000/svg">
<path d="M71.394 61.2876L60.2276 50.1231C59.7472 49.6427 58.969 49.6427 58.4887 50.1231L55.1738 53.4366L52.7654 51.0282C57.4365 45.903 59.917 39.1532 59.6759 32.2235C59.4348 25.2931 56.4916 18.7316 51.4759 13.9438C46.4599 9.15508 39.7699 6.51883 32.8352 6.59945C25.9005 6.68008 19.2738 9.46992 14.3696 14.3735C9.46539 19.2771 6.67617 25.9043 6.59555 32.8391C6.51492 39.774 9.15102 46.4634 13.9399 51.4798C18.7282 56.4957 25.2895 59.4388 32.2196 59.6798C39.1496 59.9209 45.8995 57.4404 51.0243 52.7693L53.4327 55.1777L50.1179 58.4987C49.6376 58.979 49.6376 59.7572 50.1179 60.2376L61.2837 71.4021V71.4027C62.4372 72.5557 64.0017 73.2038 65.6324 73.2038C67.2638 73.2038 68.8276 72.5556 69.9812 71.4027L71.3923 69.9916C72.5453 68.8374 73.1928 67.2725 73.1928 65.6404C73.1928 64.0089 72.5452 62.4439 71.3923 61.2891L71.394 61.2876ZM51.0674 44.9204H16.6268C15.9475 44.9204 15.3969 44.3693 15.3969 43.6899C15.3969 43.0106 15.9475 42.4601 16.6268 42.4601H17.8829V28.9298C17.8829 28.2504 18.4334 27.6999 19.1128 27.6999H26.4668C26.7928 27.6999 27.1059 27.8299 27.3366 28.06C27.5673 28.2907 27.6967 28.6038 27.6967 28.9298V42.4601H28.9528V19.0898C28.9528 18.4104 29.5033 17.8593 30.1827 17.8593H37.5367C37.8633 17.8593 38.1758 17.9893 38.4065 18.22C38.6372 18.4507 38.7666 18.7632 38.7666 19.0898V42.4601H39.9964L39.997 24.0101C39.997 23.3307 40.5476 22.7796 41.2269 22.7796H48.6328C48.9588 22.7796 49.2719 22.9096 49.5026 23.1403C49.7333 23.3704 49.8627 23.6835 49.8627 24.0101V42.4601H51.0669C51.7463 42.4601 52.2968 43.0106 52.2968 43.6899C52.2968 44.3693 51.7463 44.9204 51.0669 44.9204H51.0674Z" fill="#0D213D"/>
<path d="M42.457 25.2422H47.4027V42.4625H42.457V25.2422Z" fill="#0D213D"/>
<path d="M20.3438 30.1602H25.2381V42.46H20.3438V30.1602Z" fill="#0D213D"/>
<path d="M31.4141 20.3203H36.3084V42.4609H31.4141V20.3203Z" fill="#0D213D"/>
</svg>
