<svg width="94" height="96" viewBox="0 0 94 96" fill="none" xmlns="http://www.w3.org/2000/svg">
<g clip-path="url(#clip0_780_2004)">
<path d="M46.6506 22.0039H48.8187L50.0739 22.1201L51.215 22.3525L52.8696 22.9334L54.0107 23.4563L55.323 24.2115L56.2359 24.9087L56.8635 25.4315L58.3469 26.942L59.1457 28.0458L59.6592 28.9754L60.1156 29.8468L60.5721 31.0087L60.9144 31.9382L61.2567 33.2163L61.4279 34.3782L61.485 35.1335V36.0049L61.3138 37.8059L61.0285 39.2002L60.458 40.8849L60.0015 41.8145L59.6592 42.4535L59.2028 43.2088L58.5752 44.1964L57.8334 45.184L57.4341 45.6488L57.3199 45.7069V45.8812L57.0917 45.9973L56.9206 46.1135L56.4641 46.4621H56.35V46.5783L55.7224 46.985L54.6384 47.6821L53.6684 48.205L52.6414 48.6697L51.215 49.1926L50.4163 49.425H50.3022L50.4163 49.5412H50.9298L51.9568 49.4831H52.4132L52.5273 49.425H53.0979L53.4402 49.4831H54.0107L54.5242 49.6574L54.5813 49.8897L55.7795 50.1802L57.3199 50.4126L58.2328 50.5869V50.7031L58.8604 50.8193L59.0316 51.0517H59.2028L59.7163 51.1098L59.8304 51.284H60.1156V51.4583H60.2868V51.3421H60.4009L60.458 51.4583H60.8003L60.8574 51.6326H61.2567L61.3138 51.9231L61.0285 51.865L61.1997 52.0393V52.1555L61.3138 52.2136L61.3709 52.1555L61.6561 52.2717V52.5621L61.8273 52.504L61.8844 52.3878L62.1126 52.504L62.2267 52.7364L62.1696 52.8526L62.4549 52.9688L62.6261 53.0269L62.7972 52.9107V53.2012L63.6531 53.7821L63.9383 53.9564V54.0726L64.1666 54.1888L64.9083 54.7698L65.0794 54.886V55.0021L65.3077 55.1183L65.8782 55.6412L66.677 56.4545V56.5707L66.8481 56.6288L67.3616 57.2679L67.8751 57.965L68.2745 58.546L68.6169 59.1269L69.1304 60.1146L69.5868 61.1603L70.0432 62.3803L70.4426 63.8327L70.6708 65.227L70.785 66.5632L70.842 67.7251V82.0166L70.7279 82.4232L70.2715 82.7718L68.5598 83.527L67.4758 83.9337L65.1936 84.6309L61.7702 85.5023L59.3739 85.967L56.5782 86.3737L54.4101 86.6061L51.215 86.8385H46.5936L44.0261 86.6642L41.4016 86.3737L37.9212 85.909L35.5819 85.5023L32.7292 84.8632L30.2188 84.2823L27.366 83.527L25.1979 82.888L24.8556 82.7137L24.6844 82.4232L24.6274 81.3194L24.5703 74.2899V67.6089L24.6844 66.2727L25.0838 64.2974L25.4261 63.0193L25.9396 61.5088L26.8525 59.5336L27.366 58.6041L27.8795 57.7907L28.6783 56.8031L28.7353 56.6869H28.8494L28.9636 56.4545L30.1047 55.2926L30.5611 54.886L31.3599 54.1888L32.2157 53.4917L32.7862 53.085L33.4139 52.6202H33.528L33.585 52.4459L33.8703 52.1555L34.1556 51.9812H34.3838L34.3267 51.8069H34.555V51.6907H34.7261V51.5745L35.0685 51.5164V51.4002L35.639 51.2259L35.7531 51.1098L36.3807 50.9355L36.666 50.8193L37.1795 50.645L37.6359 50.5288L38.777 50.4126L39.2905 50.2383H39.9181V50.1221L40.6028 49.8897L41.4586 49.7155L42.0292 49.6574L42.2574 49.5993L42.7709 49.5412L43.1132 49.425L43.6267 49.3088L43.6838 49.425H44.8249L44.7678 49.2507L44.2543 49.1926L44.1402 49.0764L43.2273 48.7859L42.3145 48.3793L41.2304 47.7983L40.0322 47.0431L39.2905 46.4621L38.72 45.9393L38.1494 45.4745L37.5218 44.8354L37.4077 44.7773V44.6611H37.2936L37.1224 44.3707L36.9513 44.1964L36.3237 43.2669L35.6961 42.2211L35.1255 41.0011L34.612 39.4326L34.3267 38.1545L34.1556 36.7602V34.9592L34.3838 33.1582L34.6691 31.9963L35.1826 30.4858L35.9243 28.9173L36.3237 28.3363L37.0083 27.3487L37.5789 26.7096L37.8071 26.3611L38.0924 26.0706L38.4918 25.6058L38.72 25.4896L39.2905 24.9668L40.0322 24.3858L41.0022 23.7468L42.0292 23.1658L43.4556 22.5849L44.1973 22.3525L45.4525 22.1201L46.6506 22.0039ZM60.8003 51.9812V52.0974L60.9715 52.0393L60.8003 51.9812ZM60.9715 52.0974L61.0856 52.2136V52.0974H60.9715ZM61.4279 52.3298L61.542 52.4459V52.3298H61.4279ZM61.9985 52.6783L62.1126 52.7945V52.6783H61.9985Z" fill="#0C213C"/>
<path d="M18.4658 36.1797H21.0904L22.1744 36.2378H26.3395L27.5376 36.1797H30.1621L30.9609 36.2378L31.075 36.2959L31.3032 37.4578L31.6456 39.3168L31.9879 40.7111L32.3302 41.7569L32.9578 43.2673L33.4143 44.1969L34.0989 45.5331L34.6695 46.3464L35.2971 47.1016L35.8677 47.6826L35.9818 47.8569L35.9247 48.0893L35.6965 48.3797L35.2401 48.6121L34.5554 48.7864L34.3272 49.0188H34.0989V49.135L33.9278 49.1931L33.8707 49.3674L33.6996 49.3093L33.6425 49.4255L33.4713 49.4836L33.072 50.0645L32.8437 50.2969H32.6726L32.5585 50.4712H32.3873L32.2732 50.7036H31.8738L31.8167 50.8778L31.7026 50.8198L31.4744 50.9359L31.4174 51.1102L31.075 51.2264L30.9609 51.1683V51.2845H30.8468V51.4007L30.5615 51.4588L30.4474 51.4007L30.3904 51.575L30.2192 51.6331L30.1621 51.7493L29.7628 51.9236L29.4775 52.1559L29.1352 52.2721V52.3883L28.5646 52.8531L28.3934 52.9693H28.1652L28.1082 53.2017L27.5947 53.5502L26.91 54.2474L26.6818 54.3055V54.4217H26.5677L26.4536 54.6541L25.883 55.3512L25.1984 56.2807L24.4566 57.5007L23.4867 59.476L23.0303 60.5798L22.4027 62.4969L22.0603 64.0074L21.8321 65.4598L21.718 66.9122L21.6609 68.9455L21.6039 72.1989L21.4327 72.4894L21.0333 72.5475L20.1204 72.3732L18.3517 72.257L18.1235 72.3151L15.8984 71.9665L12.3039 71.3275L7.68243 70.3398L4.08796 69.4103L2.49042 68.8875L1.91987 68.6551L1.86281 68.4808L1.80576 68.597L1.52048 68.7132L1.17815 68.6551L1.12109 68.597V47.6826L1.40637 47.7407V47.8569L1.57753 47.915L1.63459 48.0893L1.91987 48.0312L2.03398 47.6826L2.20514 47.4502L3.11802 45.5912L3.85974 44.3131L4.71557 43.035L5.51434 42.0473L6.199 41.2921L7.11188 40.3626L7.73949 39.7816L8.59531 39.1426L9.62231 38.5035L10.7064 37.9226L11.7904 37.4578L13.3309 36.9349L15.3849 36.4702L16.7542 36.2959L18.4658 36.1797ZM32.7867 50.0064V50.1226H32.9008V50.0064H32.7867ZM1.69164 68.2484L1.63459 68.3646L1.7487 68.4808L1.69164 68.2484Z" fill="#0C213C"/>
<path d="M64.7375 36.0664H65.308L65.9356 36.1245L69.5301 36.2988H70.6141L74.2086 36.1826L77.0614 36.2407L78.2595 36.3569L79.743 36.6474L81.4546 37.1121L82.5957 37.5188L83.7939 38.0417L84.935 38.6807L85.6196 39.1455L86.4184 39.7264L87.1601 40.3655L88.3583 41.5855L88.7577 42.0502L89.3282 42.6893L89.8988 43.4445L90.4123 44.1998L90.9258 45.0712L91.4963 46.1169L92.0669 47.3369L92.3521 48.2665L92.5233 49.0217L92.5804 50.8808V65.1142L92.6374 65.2884H92.7515L92.8086 65.9275L92.9227 65.637L92.8656 65.4046H92.9798L92.9227 65.1723L92.8656 65.0561H92.9798V52.5655L93.0368 52.1589L92.9798 52.0427L93.0368 51.4617L93.0939 51.2293L93.1509 50.8227L93.3221 50.7065V68.0189L92.9227 68.1932L92.5233 68.1351L92.4663 68.5418L92.238 68.7742L91.0399 69.297L89.1571 69.9361L86.3043 70.7494L82.9381 71.5047L80.5988 71.9113L78.3736 72.2018L75.1215 72.5504H74.2086L74.0375 72.1437V68.5999L73.9804 67.0313L73.8092 65.4046L73.6951 64.9399L73.581 64.0103V63.6037H73.4669V63.0808L73.3528 63.0227L73.2957 62.7322L73.2387 62.558L73.1246 62.3256L73.0675 61.977L73.0105 61.8608V61.5703L72.8964 61.5122V61.2218L72.7822 61.1637L72.6111 60.5827L72.0976 59.4208L71.2988 57.7941L70.5 56.4579L69.7013 55.296L69.5872 55.1798L69.416 54.9474V54.8313H69.2448V54.657L69.0166 54.5989L68.9595 54.3665L68.7313 54.2503L68.389 53.8436L68.4461 53.7274L68.2178 53.6693V53.4951L67.9326 53.3789V53.4951L67.8755 53.6112L67.5332 53.3208V53.2046L67.2479 53.0884V52.9722L66.9626 52.856V52.7398L66.5632 52.6817L66.3921 52.5074L65.9927 52.275L65.8215 52.3912L65.7074 52.1008L65.4221 52.0427L65.3651 51.8684H65.1939L65.1369 51.636L64.7945 51.5779L64.6804 51.4036L64.5093 51.3455V51.4617L64.3381 51.4036L64.3951 51.1712L64.281 51.1131V51.3455H64.1669L64.224 51.1131H64.0528L63.9958 50.8808L63.7105 50.8227L63.4823 50.8808V50.7065L63.3681 50.6484V50.7646L63.0258 50.6484L62.9117 50.4741H62.7976V50.3579L62.5694 50.416V50.2417L62.2841 50.1836L62.17 50.0093L61.9988 49.835V49.7188L61.6565 49.6027L61.3142 49.3703L61.2571 49.196L60.9718 49.2541L60.6866 49.196V49.0217L60.1731 48.9636L60.0019 48.7312L59.4884 48.6731L59.4313 48.4407L59.2031 48.3827V48.1503L59.4884 48.0922V47.976L59.6596 47.9179L59.8307 47.6274L59.9448 47.395L60.1731 47.2788L60.4013 46.9303L60.5724 46.6979H60.6866L60.8007 46.4655L61.0289 46.1169L61.7706 45.0712L62.227 44.316L62.7405 43.3283L63.1399 42.4569L63.6534 41.0626L63.9387 40.0169L64.281 38.3902L64.3951 37.6931L64.4522 36.7055L64.6234 36.1826L64.7375 36.0664ZM63.254 50.4741L63.3111 50.5903L63.3681 50.4741H63.254Z" fill="#0C213C"/>
<path d="M23.1999 7.71484H24.8545L26.2808 7.88913L27.7643 8.17961L28.7913 8.52818L29.9324 9.05104L31.1305 9.69009L32.1575 10.3872L32.7851 10.9101L33.3557 11.433L33.755 11.8977L34.2115 12.4206L34.9532 13.4082L35.6379 14.4539L36.2084 15.4996L36.6649 16.4292L37.1784 17.7654L37.4066 18.5206L37.5777 19.392L37.7489 21.0187L37.6919 22.2968L37.5207 22.5873L37.2925 22.7035V23.0521L36.6649 23.4587L36.3225 23.5749L35.9802 23.8654L35.5238 24.3302H35.4096L35.3526 24.5044L35.0673 24.7949L34.725 25.2016L34.1544 26.073L33.5839 27.0606L32.8992 28.3968L32.3857 29.6168L31.8722 31.1854L31.644 32.115L31.4158 33.1026L31.1305 33.6254L31.0735 33.974L30.617 34.2645L29.2477 34.7292L28.4489 34.7873V34.9035H28.2207L28.0495 35.0778L27.479 35.2521L27.3649 35.3102L27.0796 35.2521V35.3683L26.8514 35.4264H26.6802L26.6232 35.3683H26.3379L26.2808 35.4845H25.6532L24.9686 35.5426H23.0857L22.0017 35.4264L20.6894 35.1359L19.5483 34.6712L18.2931 34.0902L17.0379 33.3931L16.1821 32.8702L15.5545 32.2892L15.098 31.8826L14.4704 31.2435L14.071 30.7788L13.5005 30.0816L12.7588 29.0359L12.0741 27.874L11.6747 27.0025L11.3894 26.3054V26.1892L11.2753 26.1311L10.933 25.0854L10.7048 24.0978L10.4766 22.5873V21.0768L10.7048 19.392L10.9901 17.9977L11.5036 16.3711L11.9029 15.4996L12.4164 14.512L13.1582 13.4663L13.7858 12.653L14.2993 12.072L14.8128 11.433H14.9269V11.3168H15.041V11.2006H15.1551L15.2692 10.9682H15.3833V10.852L16.1821 10.2129L17.095 9.5739L17.8937 9.10914L19.2631 8.52818L20.9176 8.06342L22.6293 7.77294L23.1999 7.71484Z" fill="#0C213C"/>
<path d="M69.1874 7.71484H71.0702L72.839 7.94723L74.3224 8.2958L75.2353 8.64437L76.034 8.99294L77.004 9.5158L78.2021 10.3291L78.9438 10.9682L79.7426 11.7234V11.8396H79.8567L80.2561 12.3044L80.9978 13.2339L81.9678 14.7444L82.5954 15.9644L83.1089 17.3587L83.4512 18.4044L83.6224 19.2758L83.7365 20.6701V22.2387L83.6224 23.6911L83.3371 25.2016L82.9377 26.3054L82.4242 27.5254L81.8537 28.513L81.169 29.5588L80.5984 30.314L79.8567 31.1854L79.1721 31.9407L78.6015 32.4635L77.6886 33.1607L76.8328 33.6835L75.2353 34.3807L73.923 34.8454L73.6948 34.9035H73.5807L73.5236 35.0778L73.0101 35.1359L72.3825 35.3102L71.6408 35.4264L70.785 35.4845H69.3586L67.9893 35.3102L66.7341 35.0197L65.8212 34.7292L65.2506 34.555L65.0795 34.4388L64.7942 34.3226L64.7371 34.0902H64.623L64.3948 33.5673L63.6531 30.6045L63.1396 29.1521L62.7402 28.2806L62.1126 27.0606L61.542 26.1311L60.7433 25.0273L60.4009 24.6206L60.2298 24.5044L60.0586 24.214L59.5451 23.6911L59.3739 23.5749L59.3169 23.4587L59.0316 23.4006L58.7463 23.1682L58.6322 23.0521L58.6893 22.994L58.404 22.8778V22.7616L58.1187 22.6454V22.5292L57.9476 22.4711L57.7764 22.2968H57.6623L57.7764 22.4711L57.5482 22.3549L57.2629 22.1806L56.6353 21.7159L56.5212 21.193L56.293 20.7863V20.3216L56.5782 19.1016L56.8635 18.2882L57.0347 18.0558L57.377 16.8939L57.6052 16.313V16.1387H57.7193L57.8335 15.7901L58.0046 15.5577H58.1187L58.2328 15.2092L58.7463 14.2796L59.3739 13.3501L59.8304 12.7111L60.458 12.0139L61.1427 11.2587L61.6561 10.7358L62.2838 10.2129L63.1396 9.632L64.4518 8.93485L65.65 8.47009L67.1334 8.06342L68.731 7.77294L69.1874 7.71484ZM58.9746 23.1682L59.0316 23.3425V23.1682H58.9746Z" fill="#0C213C"/>
<path d="M56.3516 24.793L56.6939 25.0254L56.8651 25.1996L56.808 25.3158L56.3516 24.9092V24.793Z" fill="#0C213C"/>
<path d="M43.286 48.8438L43.5142 48.9599L43.4572 49.018H43.1719L43.286 48.9599V48.8438Z" fill="#0C213C"/>
<path d="M61.4297 51.8672L61.6009 51.9253V52.0415L61.4297 51.9834V51.8672Z" fill="#0C213C"/>
<path d="M43.1141 49.0781L43.2282 49.1362L43.1712 49.2524L43 49.1943L43.1141 49.0781Z" fill="#0C213C"/>
<path d="M73.8656 71.9688L73.9798 72.143H73.8086L73.8656 71.9688Z" fill="#0C213C"/>
<path d="M62.9102 53.1445L63.1384 53.2607H62.9672L62.9102 53.1445Z" fill="#0C213C"/>
<path d="M62.5703 52.5039L62.7415 52.562V52.6782L62.5703 52.6201V52.5039Z" fill="#0C213C"/>
<path d="M63.2539 53.3789L63.4251 53.437L63.368 53.5532L63.2539 53.4951V53.3789Z" fill="#0C213C"/>
<path d="M62.2836 52.3906L62.3977 52.5068H62.2266L62.2836 52.3906Z" fill="#0C213C"/>
<path d="M61.8281 49.832H61.9429L61.8855 50.0063L61.8281 49.832Z" fill="#0C213C"/>
<path d="M62.2852 52.6211L62.4 52.7954H62.2852V52.6211Z" fill="#0C213C"/>
<path d="M63.9375 53.8438L64.0514 53.959H63.9375V53.8438Z" fill="#0C213C"/>
<path d="M63.7109 53.668L63.8248 53.7832H63.7109V53.668Z" fill="#0C213C"/>
<path d="M62.3984 52.7969H62.5123L62.4554 52.9121L62.3984 52.7969Z" fill="#0C213C"/>
<path d="M43.2266 49.1367H43.3405L43.2835 49.252L43.2266 49.1367Z" fill="#0C213C"/>
<path d="M56.8633 25.3164L56.9772 25.4317H56.8633V25.3164Z" fill="#0C213C"/>
<path d="M55.7227 24.3867L55.8366 24.502H55.7227V24.3867Z" fill="#0C213C"/>
</g>
<defs>
<clipPath id="clip0_780_2004">
<rect x="0.664062" y="0.335938" width="93.1139" height="94.8118" rx="10" fill="white"/>
</clipPath>
</defs>
</svg>
