<svg width="81" height="81" viewBox="0 0 81 81" fill="none" xmlns="http://www.w3.org/2000/svg">
<path d="M54.3608 70.3039L48.3646 70.3117V65.3249H32.3647V70.335L26.3673 70.3428C25.2648 70.3444 24.371 71.4565 24.3698 72.83L24.3635 77.7655C24.3623 79.1421 25.2598 80.2589 26.366 80.2574L54.3608 80.2169C55.4633 80.2154 56.3571 79.1032 56.3583 77.7313L56.3633 72.7958C56.3646 71.4192 55.4671 70.3024 54.3608 70.3039ZM73.5132 4.77652C73.1857 2.37643 71.487 0.617188 69.4957 0.617188H11.2299C9.23864 0.617188 7.5399 2.37643 7.2124 4.77652C-0.0513012 58.039 0.368696 54.7601 0.367446 55.3698C0.363696 58.0639 2.15368 60.3473 4.44242 60.3473H76.2844C78.5632 60.3473 80.3482 58.0826 80.3582 55.4025C80.3607 54.7679 80.7769 58.039 73.5132 4.77652ZM32.8422 10.5722H47.8834L49.1046 25.5048H31.621L32.8422 10.5722ZM23.446 50.3923H9.24989L11.6261 32.971H24.8723L23.446 50.3923ZM25.4823 25.5048H12.6436L14.6799 10.5722H26.7035L25.4823 25.5048ZM29.5848 50.3923L31.0097 32.971H49.7159L51.1409 50.3923H29.5848ZM54.0221 10.5722H66.0458L68.082 25.5048H55.2433L54.0221 10.5722ZM57.2796 50.3923L55.8546 32.971H69.1007L71.477 50.3923H57.2796Z" fill="#0C213C"/>
</svg>
