<svg width="86" height="68" viewBox="0 0 86 68" fill="none" xmlns="http://www.w3.org/2000/svg">
<path d="M71.4881 7.71003V8.21003H71.9881H85.1953V11.8436L71.9882 11.8426L71.4881 11.8425V12.3426V22.8453V23.3453H71.9881H85.1953V26.9789H71.9881H71.4881V27.4789V34.2155H53.4985C43.5365 34.2155 35.2763 28.4139 33.4033 20.9123L33.3087 20.5334H32.9182H18.9687C13.2976 20.5334 8.50074 24.2974 8.50074 29.1297V33.0352C8.50074 37.8684 13.2987 41.6315 18.9687 41.6315H55.164C63.8761 41.6315 70.7785 47.372 70.7785 54.2203C70.7785 61.121 63.8735 66.8595 55.164 66.8595H16.4351V61.1127L55.164 61.1117C59.644 61.1117 63.4721 58.1354 63.4721 54.2696C63.4721 50.356 59.6467 47.3774 55.164 47.3774H18.9687C9.06621 47.3774 1.19531 40.8513 1.19531 33.0352V29.1298C1.19531 21.3136 9.06621 14.7875 18.9687 14.7875H32.9182H33.3088L33.4034 14.4086C35.2752 6.90812 43.5377 1.10547 53.4985 1.10547H71.4881V7.71003ZM52.2445 29.1009L52.5927 29.316L52.8723 29.0172L64.3655 16.7379L65.2707 15.7707L63.9522 15.8986L51.7303 17.0837L60.1624 9.30237L60.614 8.88561L60.1141 8.52819L58.866 7.6358L58.535 7.39917L58.2361 7.67511L45.8412 19.1152L44.7485 20.1238L46.2286 19.9803L59.036 18.7387L50.8194 27.5168L50.4019 27.9628L50.9217 28.2839L52.2445 29.1009Z" fill="#0C213C" stroke="black"/>
</svg>
