<svg width="569" height="295" viewBox="0 0 569 295" fill="none" xmlns="http://www.w3.org/2000/svg">
<path d="M368.5 0H0V295H368.5L568.5 147.5L368.5 0Z" fill="#86AABB"/>
<path d="M39.1364 194H18.0455L50.1818 100.909H75.5455L107.636 194H86.5455L63.2273 122.182H62.5L39.1364 194ZM37.8182 157.409H87.6364V172.773H37.8182V157.409ZM118.841 194V100.909H138.523V177.773H178.432V194H118.841ZM191.466 194V100.909H254.193V117.136H211.148V139.318H250.966V155.545H211.148V177.773H254.375V194H191.466ZM269.841 194V100.909H306.568C313.598 100.909 319.598 102.167 324.568 104.682C329.568 107.167 333.371 110.697 335.977 115.273C338.614 119.818 339.932 125.167 339.932 131.318C339.932 137.5 338.598 142.818 335.932 147.273C333.265 151.697 329.402 155.091 324.341 157.455C319.311 159.818 313.22 161 306.068 161H281.477V145.182H302.886C306.644 145.182 309.765 144.667 312.25 143.636C314.735 142.606 316.583 141.061 317.795 139C319.038 136.939 319.659 134.379 319.659 131.318C319.659 128.227 319.038 125.621 317.795 123.5C316.583 121.379 314.72 119.773 312.205 118.682C309.72 117.561 306.583 117 302.795 117H289.523V194H269.841ZM320.114 151.636L343.25 194H321.523L298.886 151.636H320.114ZM350.295 117.136V100.909H426.75V117.136H398.25V194H378.795V117.136H350.295Z" fill="black"/>
</svg>
