<svg width="569" height="295" viewBox="0 0 569 295" fill="none" xmlns="http://www.w3.org/2000/svg">
<path d="M200 295L568.5 295V0L200 0L0 147.5L200 295Z" fill="#86AABB"/>
<path d="M92.044 111.091L110.15 168.004H110.844L128.987 111.091H146.543L120.72 186H100.31L74.4506 111.091H92.044ZM171.397 111.091V186H155.559V111.091H171.397ZM184.428 186V111.091H234.903V124.149H200.265V141.998H232.307V155.056H200.265V172.942H235.05V186H184.428ZM264.357 186L242.923 111.091H260.224L272.623 163.14H273.245L286.925 111.091H301.738L315.381 163.249H316.04L328.439 111.091H345.74L324.306 186H308.871L294.606 137.024H294.021L279.792 186H264.357ZM390.967 186H373.996L399.855 111.091H420.265L446.088 186H429.117L410.353 128.209H409.768L390.967 186ZM389.906 156.556H429.994V168.919H389.906V156.556ZM455.104 186V111.091H470.942V172.942H503.056V186H455.104ZM513.545 186V111.091H529.383V172.942H561.497V186H513.545Z" fill="black"/>
</svg>
