<svg width="1000" height="330" viewBox="0 0 1000 330" fill="none" xmlns="http://www.w3.org/2000/svg">
<g clip-path="url(#clip0_672_13)">
<rect width="1000" height="329.305" fill="white"/>
<path d="M146.843 56.4688H166.049L171.935 56.7785L179.06 57.3981L185.411 58.1726L194.085 59.5666L195.479 59.8764L195.634 60.496L195.014 62.0449L193.93 65.7623L191.452 75.0559L189.748 81.5614L186.495 93.9528L182.623 108.513L176.427 131.747L173.484 142.589L171.471 150.179L171.161 150.953L172.4 150.798L191.297 149.869H193.311L193.001 150.489L191.142 153.432L188.664 157.304L186.65 160.402L184.172 164.274L182.468 166.907L180.454 170.005L178.286 173.413L176.582 176.046L174.259 179.609L172.555 182.242L170.386 185.649L167.443 190.141L165.43 193.239L163.726 195.872L161.558 199.28L158.15 204.546L155.827 208.109L154.123 210.742L151.49 214.769L148.547 219.261L142.041 229.174L137.549 235.99L130.424 246.677L129.03 248.846L125.622 253.957L125.158 254.732H126.397L133.677 255.661L140.337 256.281L148.547 256.745L154.742 256.9H158.46L164.81 256.745L173.02 256.281L180.919 255.506L188.974 254.422L195.169 253.338L201.21 252.098L207.716 250.549L213.447 249.001L219.797 246.987L225.219 245.128L231.879 242.495L236.216 240.636L242.412 237.693L246.594 235.525L250.156 233.511L254.338 231.033L259.45 227.625L262.083 225.767L265.026 223.598L267.194 221.894L269.208 220.19L270.912 218.796L275.868 214.15L278.502 211.516L279.586 210.277L281.445 208.264L282.839 206.56L284.852 204.082L286.866 201.294L288.879 198.351L290.893 195.098L293.062 191.226L294.92 187.508L296.934 182.552L298.793 176.975L300.032 172.019L300.961 166.443L301.271 163.19L301.426 160.557V155.135L301.116 150.798L300.496 146.307L299.567 141.815L298.328 137.323L296.779 132.831L294.765 128.029L292.442 123.382L290.274 119.665L288.415 116.722L286.556 114.089L284.697 111.611L282.684 109.132L280.98 107.119L278.192 104.021L273.39 99.2192L272.151 98.1349L270.292 96.4311L268.589 95.0371L265.955 92.8686L263.012 90.7001L260.224 88.6865L255.578 85.5886L252.325 83.575L248.298 81.2516L243.961 78.9282L238.384 76.1401L233.893 74.1265L228.471 71.958L223.979 70.2542L221.346 69.3249H220.882L216.854 77.5342L215.925 79.5478L215.305 78.9282L213.137 74.7461L211.278 71.3385L208.49 65.9172L207.251 63.7487V63.4389L216.08 61.89L224.289 60.496L225.064 60.3411L224.909 61.1155L223.36 64.3683L222.276 66.5368V66.8466L227.077 68.5504L232.963 70.8738L237.61 72.8874L243.186 75.5206L247.678 77.844L251.241 79.8576L255.423 82.3359L258.83 84.5044L261.309 86.2082L263.942 88.0669L267.194 90.5452L269.363 92.249L271.067 93.643L272.616 95.0371L273.855 96.1213L275.404 97.5154L277.727 99.6838L280.206 102.162L281.29 103.401L283.303 105.57L284.697 107.274L286.401 109.287L288.725 112.385L290.583 115.018L292.287 117.651L294.146 120.749L296.005 124.157L297.708 127.565L300.032 133.296L301.736 138.562L302.975 143.519L303.904 149.095L304.369 153.741V162.725L303.904 167.372L302.975 172.948L301.581 178.524L299.877 183.636L298.018 188.128L295.85 192.62L293.836 196.337L291.513 200.054L289.499 202.997L287.64 205.476L285.472 208.264L283.613 210.432L282.064 212.136L280.98 213.375L279.121 215.234L278.037 216.473L276.023 218.332L274.784 219.571L273.545 220.655L271.996 222.049L270.292 223.443L267.814 225.457L264.716 227.78L261.928 229.794L256.352 233.511L252.015 236.144L247.833 238.468L243.341 240.791L239.624 242.65L234.047 245.128L228.626 247.297L221.811 249.775L215.46 251.789L208.18 253.802L201.675 255.351L193.93 256.9L186.186 258.139L180.145 258.914L173.639 259.533L166.359 259.998L162.332 260.153H150.56L143.59 259.843L137.239 259.378L130.114 258.604L123.609 257.675L122.834 257.829L122.989 256.745L124.228 252.253L126.087 246.212L129.959 233.821L133.522 222.359L136.155 213.84L139.563 202.842L141.886 195.408L145.449 183.791L149.321 171.089L152.109 162.106L152.729 160.247L147.617 160.402H143.9L135.071 160.247L136.155 158.388L141.421 149.714L144.364 144.758L146.998 140.421L149.941 135.464L152.574 131.127L155.207 126.635L157.84 122.298L159.854 118.891L162.797 113.934L165.43 109.442L168.063 105.105L170.386 101.078L173.329 96.1213L175.653 92.249L177.976 88.2218L179.99 84.8141L182.623 80.3222L184.637 76.9146L188.974 69.4797L191.297 65.4525L192.846 62.8194L193.311 62.0449L182.468 60.496L175.188 59.7215L168.528 59.2568L161.093 58.947H151.799L144.519 59.2568L136.31 59.8764L129.34 60.6509L121.131 61.89L114.625 63.1291L107.81 64.6781L100.685 66.5368L93.7145 68.7053L87.0541 71.0287L80.0839 73.8167L75.9018 75.6755L70.7904 78.1537L67.6925 79.7027L64.13 81.7163L61.3419 83.2652L57.6245 85.5886L54.3717 87.7571L51.2739 89.9256L46.3173 93.643L41.9803 97.3605L37.9531 101.078L34.3905 104.64L33.3063 105.88L31.7574 107.583L30.3633 109.287L28.3497 111.765L26.3361 114.554L23.8578 118.271L21.9991 121.369L20.4502 124.157L18.7464 127.41L16.8877 131.747L15.0289 136.858L13.7898 141.35L13.0153 144.758L12.2409 149.714L11.9311 152.967L11.7762 155.6V160.247L12.086 164.739L12.7055 169.386L13.6349 173.878L14.7192 177.905L16.1132 182.087L17.817 186.269L19.6757 190.296L21.6893 194.014L23.548 197.111L25.7165 200.364L27.7302 203.152L29.434 205.321L31.6025 207.954L32.9965 209.503L34.0808 210.742L35.165 211.826L36.2493 213.065L38.2629 215.079L39.502 216.163L40.896 217.557L42.1352 218.642L44.3037 220.5L46.9369 222.669L48.7956 224.063L51.5836 226.076L54.2168 227.935L57.4696 230.104L61.187 232.427L64.7495 234.441L68.467 236.454L70.7904 237.693L74.3529 239.397L78.6899 241.411L82.872 243.115L88.9128 245.438L95.7281 247.761L100.84 249.31H101.304L104.557 242.805L105.796 240.017H106.261L108.894 245.128L110.753 248.536L113.541 253.957L114.47 255.661V255.971L102.079 258.139L97.5868 258.914L96.6575 259.069L97.277 257.52L98.9809 254.112L99.6004 252.718V252.408L94.9536 251.014L89.3775 249.155L84.266 247.297L78.535 244.973L74.0431 242.96L69.5512 240.791L66.1436 239.087L62.581 237.074L59.793 235.525L56.0755 233.201L51.4288 230.104L48.7956 228.245L45.5428 225.767L43.9939 224.527L42.2901 223.133L40.2765 221.43L38.2629 219.571L37.0237 218.487L31.2927 212.756L30.2084 211.516L28.3497 209.348L26.8008 207.489L24.7872 204.856L22.7736 202.068L21.2247 199.745L19.211 196.492L17.6621 193.704L15.8034 190.141L13.7898 185.494L12.2409 181.312L11.0017 177.285L9.91747 172.793L9.14301 168.456L8.67833 164.429L8.52344 162.261V154.051L8.98812 149.095L9.91747 143.673L11.3115 138.097L13.1702 132.521L15.0289 128.029L17.0425 123.847L19.0562 120.285L20.9149 117.187L22.7736 114.399L24.7872 111.611L26.3361 109.597L27.7302 107.893L29.434 105.88L30.828 104.331L31.9123 103.091L33.4612 101.543L34.5454 100.303L35.9395 98.9094L37.1786 97.8251L38.2629 96.7409L39.502 95.6566L41.0509 94.2626L42.7548 92.8686L45.0781 91.0099L47.0918 89.4609L50.0347 87.2924L52.513 85.5886L54.8364 84.0397L57.7794 82.181L60.8772 80.3222L64.7495 78.1537L69.2414 75.8304L73.5784 73.6619L79.1546 71.1836L85.0405 68.8602L90.6166 66.8466L96.8124 64.833L103.473 62.9742L109.668 61.4253L117.103 59.8764L125.468 58.4824L132.438 57.553L138.788 56.9334L143.125 56.6236L146.843 56.4688Z" fill="#B40400"/>
<path d="M40.7344 110.375H61.3351L62.8841 112.543L101.917 165.517L103.621 167.84L103.776 110.375H123.137V196.65H102.072L100.678 194.946L99.129 192.778L97.2703 190.3L92.9333 184.414L90.455 181.161L88.9061 178.993L86.5827 175.895L82.2457 170.009L79.7674 166.756L78.2184 164.587L76.3597 162.109L72.0227 156.223L69.5444 152.971L67.9955 150.802L65.6721 147.704L61.3351 141.818L60.2509 140.424L60.096 196.65H40.7344V110.375Z" fill="#052759"/>
<path d="M200.586 110.68H246.744L252.63 111.144L256.967 111.764L260.684 112.693L264.247 113.932L267.345 115.326L269.978 116.875L272.611 118.734L274.625 120.438L276.483 122.142L277.568 123.381L279.271 125.395L280.666 127.408L281.905 129.422L283.763 132.984L285.157 136.702L286.242 140.574L287.016 145.066L287.481 149.713V159.316L287.016 163.343L286.242 167.525L285.157 171.243L283.763 174.65L282.06 178.058L280.201 181.001L278.497 183.17L276.638 185.338L275.089 186.887L273.386 188.281L271.837 189.52L269.823 190.759L266.26 192.618L262.698 194.012L258.671 195.251L254.179 196.181L248.758 196.8L246.279 196.955H200.586V110.68ZM221.651 125.24L221.496 125.704V182.395H241.478L246.589 182.085L249.842 181.621L253.095 180.691L255.418 179.762L257.586 178.523L259.135 177.284L260.375 176.044L261.769 174.031L263.008 171.707L264.092 168.919L265.021 165.202L265.486 162.259L265.796 158.851V148.783L265.331 144.446L264.712 141.194L263.627 137.941L261.769 134.378L260.22 132.365L258.051 130.196L255.728 128.647L252.785 127.253L249.687 126.324L246.124 125.704L241.942 125.395L237.76 125.24H221.651Z" fill="#052759"/>
<g filter="url(#filter0_d_672_13)">
<path d="M333.286 130.905V107.366H414.268V130.905H389.013V207.289H358.61V130.905H333.286ZM427.741 160.004V154.651C427.741 138.546 431.699 126.422 439.614 118.278C447.575 110.088 458.304 105.993 471.801 105.993C483.879 105.993 493.098 108.899 499.458 114.709C505.817 120.52 508.997 128.183 508.997 137.7V141.474H481.134V139.553C481.134 135.343 480.242 132.255 478.458 130.288C476.719 128.275 474.111 127.268 470.634 127.268C466.882 127.268 463.977 128.732 461.918 131.66C459.905 134.589 458.898 139.461 458.898 146.278V168.926C458.898 175.24 460.019 180.066 462.261 183.406C464.503 186.746 467.683 188.416 471.801 188.416C473.814 188.416 475.575 188.142 477.085 187.593C478.641 186.998 480.059 186.083 481.34 184.848V171.739H470.565V152.386L509.409 152.249V194.25C506.938 197.361 502.569 200.541 496.301 203.789C490.033 207.037 481.752 208.662 471.457 208.662C458.327 208.662 447.758 204.59 439.751 196.446C431.744 188.256 427.741 176.109 427.741 160.004ZM530.088 207.289V107.366H559.804L579.02 153.141C579.569 154.651 580.118 156.321 580.668 158.151C581.217 159.935 581.674 161.56 582.04 163.024H582.452C582.36 161.468 582.315 159.844 582.315 158.151C582.36 156.458 582.383 154.834 582.383 153.278V107.366H607.57V207.289H578.815L558.5 160.828C557.951 159.409 557.402 157.899 556.853 156.298C556.304 154.697 555.847 153.141 555.481 151.631H555.138C555.229 153.187 555.275 154.651 555.275 156.024C555.321 157.35 555.344 158.814 555.344 160.416V207.289H530.088ZM629.896 207.289V107.366H677.181C687.567 107.366 695.528 110.66 701.064 117.248C706.646 123.837 709.437 132.438 709.437 143.053C709.437 153.667 706.737 162.246 701.339 168.788C695.94 175.285 687.681 178.534 676.564 178.534H659.887V207.289H629.896ZM659.887 158.837H669.083C672.972 158.837 675.671 157.373 677.181 154.445C678.737 151.517 679.515 147.948 679.515 143.739C679.515 139.484 678.737 135.915 677.181 133.033C675.671 130.105 672.972 128.618 669.083 128.572H659.887V158.837ZM728.881 207.289V107.366H768.205C781.29 107.366 791.401 111.506 798.539 119.788C805.676 128.023 809.245 139.576 809.245 154.445V159.798C809.245 174.622 805.653 186.243 798.47 194.661C791.287 203.08 781.198 207.289 768.205 207.289H728.881ZM757.91 187.112H764.842C769.463 187.112 772.986 185.282 775.411 181.622C777.881 177.916 779.117 172.197 779.117 164.465V150.327C779.117 142.458 777.859 136.853 775.342 133.513C772.871 130.173 769.371 128.481 764.842 128.435H757.91V187.112ZM828.071 160.004V154.651C828.071 137.219 832.028 124.775 839.944 117.317C847.859 109.814 858.222 106.062 871.032 106.062C883.157 106.062 892.65 108.83 899.513 114.366C906.376 119.856 909.807 128.481 909.807 140.239V147.994H881.738V137.219C881.738 133.696 880.869 130.997 879.131 129.121C877.438 127.199 874.944 126.239 871.65 126.239C867.944 126.239 865.085 127.749 863.071 130.768C861.058 133.742 860.052 138.546 860.052 145.18V169.543C860.052 176.36 861.081 181.302 863.14 184.367C865.245 187.387 868.127 188.897 871.787 188.897C875.081 188.897 877.552 187.844 879.199 185.74C880.892 183.589 881.738 180.089 881.738 175.24V167.141H909.807V176.338C909.853 186.586 906.445 194.524 899.582 200.152C892.719 205.779 883.18 208.593 870.964 208.593C857.741 208.593 847.287 204.773 839.6 197.132C831.914 189.491 828.071 177.115 828.071 160.004ZM929.732 207.289V107.366H959.722V183.749H995.478V207.289H929.732Z" fill="url(#paint0_linear_672_13)"/>
</g>
</g>
<defs>
<filter id="filter0_d_672_13" x="319.161" y="105.992" width="676.315" height="116.792" filterUnits="userSpaceOnUse" color-interpolation-filters="sRGB">
<feFlood flood-opacity="0" result="BackgroundImageFix"/>
<feColorMatrix in="SourceAlpha" type="matrix" values="0 0 0 0 0 0 0 0 0 0 0 0 0 0 0 0 0 0 127 0" result="hardAlpha"/>
<feOffset dx="-7.55287" dy="7.55287"/>
<feGaussianBlur stdDeviation="3.2855"/>
<feComposite in2="hardAlpha" operator="out"/>
<feColorMatrix type="matrix" values="0 0 0 0 0 0 0 0 0 0 0 0 0 0 0 0 0 0 0.25 0"/>
<feBlend mode="normal" in2="BackgroundImageFix" result="effect1_dropShadow_672_13"/>
<feBlend mode="normal" in="SourceGraphic" in2="effect1_dropShadow_672_13" result="shape"/>
</filter>
<linearGradient id="paint0_linear_672_13" x1="665.245" y1="125.755" x2="669.697" y2="297.95" gradientUnits="userSpaceOnUse">
<stop stop-color="#001F70"/>
<stop offset="1" stop-color="#050505"/>
</linearGradient>
<clipPath id="clip0_672_13">
<rect width="1000" height="329.305" fill="white"/>
</clipPath>
</defs>
</svg>
